<?xml version="1.0" standalone="no"?>
<!DOCTYPE svg PUBLIC "-//W3C//DTD SVG 20010904//EN"
 "http://www.w3.org/TR/2001/REC-SVG-20010904/DTD/svg10.dtd">
<svg version="1.0" xmlns="http://www.w3.org/2000/svg"
 width="7647.000000pt" height="8073.000000pt" viewBox="0 0 7647.000000 8073.000000"
 preserveAspectRatio="xMidYMid meet">

<g transform="translate(0.000000,8073.000000) scale(0.100000,-0.100000)"
fill="#cdd9cb" stroke="none">
<path d="M33325 65923 c-38 -1 -648 -7 -1355 -13 -2315 -19 -3915 -41 -4480
-60 -310 -11 -897 -41 -1270 -65 -129 -9 -352 -19 -495 -24 -250 -9 -263 -10
-340 -38 -45 -16 -102 -41 -128 -56 -66 -39 -169 -138 -213 -205 -21 -31 -71
-92 -111 -136 -85 -91 -159 -230 -188 -355 -18 -73 -19 -111 -15 -381 2 -80
-2 -248 -9 -375 -6 -126 -16 -403 -21 -615 -6 -212 -17 -547 -25 -745 -8 -198
-20 -463 -25 -590 -28 -683 -33 -1199 -26 -3090 4 -1061 11 -2285 16 -2720 11
-914 13 -3249 3 -3501 l-6 -172 -1836 2 c-1219 1 -2014 -3 -2366 -12 -291 -6
-1000 -21 -1575 -32 -1856 -35 -2007 -39 -2795 -71 -264 -10 -596 -19 -738
-19 -289 0 -351 -8 -472 -65 -129 -59 -247 -166 -305 -275 -10 -19 -40 -62
-67 -96 -67 -82 -98 -138 -128 -229 -37 -108 -43 -226 -20 -350 16 -86 17
-111 6 -228 -27 -301 -43 -941 -37 -1437 10 -740 25 -1448 41 -1940 38 -1137
53 -2137 66 -4390 8 -1387 7 -2126 -1 -2720 -24 -1805 -29 -2516 -30 -4110 0
-916 5 -2070 11 -2565 10 -932 -1 -3067 -22 -4320 -19 -1095 -22 -2068 -9
-2640 7 -297 14 -1082 15 -1745 1 -663 7 -1439 14 -1725 25 -1062 30 -1770 11
-1789 -3 -2 -381 -10 -840 -16 -624 -8 -862 -8 -940 0 -142 16 -217 0 -365
-76 -133 -69 -194 -113 -245 -179 -52 -68 -78 -123 -101 -213 -33 -124 -45
-594 -29 -1032 12 -312 14 -735 7 -1905 -1 -254 0 -275 21 -350 33 -116 83
-198 176 -291 125 -125 221 -164 456 -184 131 -12 844 -23 2490 -40 542 -5
1264 -15 1605 -21 1601 -29 10461 0 12175 41 228 5 656 14 950 20 977 19 1700
34 3575 75 380 9 922 22 1205 30 960 27 1303 35 2375 55 1643 31 2231 38 3795
50 1391 9 2315 19 3765 40 2126 31 3600 31 5705 0 833 -12 2072 -27 3355 -40
545 -6 1296 -15 1670 -20 774 -11 1940 -26 3180 -40 468 -5 1028 -14 1245 -20
217 -5 595 -14 840 -20 245 -5 706 -17 1025 -25 319 -8 902 -19 1295 -25 916
-14 1504 -29 1555 -40 62 -14 184 -12 250 5 145 38 284 152 348 285 44 91 77
237 77 343 0 43 -4 142 -10 220 -41 608 -42 643 -37 977 3 184 11 405 16 490
6 85 15 322 21 525 7 240 16 405 26 470 21 130 15 268 -16 348 -31 83 -147
253 -211 312 -31 28 -80 62 -111 77 -109 54 -131 56 -528 50 -280 -4 -1820 14
-1826 22 -1 0 -7 156 -13 346 -14 445 -46 1236 -71 1800 -11 245 -27 623 -35
840 -31 802 -135 3103 -185 4110 -52 1045 -132 3000 -165 4010 -80 2486 -92
4910 -45 8970 6 454 14 1235 20 1735 6 501 15 1230 20 1620 6 391 14 1246 20
1900 5 655 14 1474 20 1820 12 675 0 2060 -20 2423 -11 184 -10 196 9 255 98
295 -10 608 -266 777 -83 54 -208 100 -336 125 -99 19 -149 19 -240 0 -40 -8
-126 -16 -192 -18 -186 -6 -1561 10 -1930 23 -1064 36 -1774 63 -2095 80 -201
11 -547 29 -770 40 -223 11 -619 34 -880 50 -658 41 -953 54 -1830 85 -581 20
-1083 35 -1275 38 l-160 2 -7 320 c-3 176 -11 696 -17 1155 -6 459 -16 1101
-21 1425 -6 325 -15 1101 -20 1725 -6 624 -16 1353 -24 1620 -8 267 -20 735
-26 1040 -21 1070 -60 2689 -75 3085 -26 681 -64 1607 -70 1680 -12 144 -58
264 -146 378 -82 107 -193 182 -334 227 -67 21 -88 22 -530 26 -253 2 -692 8
-975 14 -283 5 -774 15 -1090 20 -1419 25 -2104 42 -3070 75 -239 8 -565 20
-725 25 -159 5 -699 17 -1200 25 -1066 17 -1839 32 -2050 40 -82 3 -483 10
-890 15 -789 11 -1528 24 -2210 40 -1057 26 -4696 49 -5120 33z m2720 -1348
c1426 -14 1900 -21 3015 -45 239 -5 775 -14 1190 -20 415 -6 1050 -17 1410
-25 360 -8 932 -19 1270 -25 1242 -21 1697 -31 2240 -50 1254 -44 1951 -61
3905 -95 479 -8 960 -18 1071 -21 l201 -6 7 -157 c46 -1102 73 -2076 106
-3811 6 -311 17 -785 25 -1055 8 -269 19 -917 25 -1440 18 -1747 43 -3545 90
-6545 6 -355 13 -1322 17 -2150 8 -1954 6 -2074 -102 -6270 -8 -322 -24 -880
-35 -1240 -82 -2758 -99 -5392 -56 -8650 23 -1660 36 -3301 46 -5635 5 -1144
12 -2091 14 -2105 3 -14 10 -349 16 -745 6 -396 17 -1026 25 -1400 8 -374 15
-793 15 -931 l0 -251 -182 -6 c-216 -8 -4187 -7 -5697 2 l-1064 6 -4 90 c-2
50 -6 736 -9 1525 -6 1695 2 2192 56 3365 10 231 22 492 25 580 3 88 17 392
30 675 67 1416 82 1929 106 3600 13 874 5 1666 -27 2670 -13 430 -14 574 -4
975 17 661 17 670 -4 735 -50 151 -171 297 -296 358 -76 37 -167 62 -226 62
-23 0 -63 4 -90 9 -60 12 -360 33 -924 66 -234 14 -546 34 -695 45 -148 11
-423 26 -610 35 -187 8 -484 22 -660 31 -201 9 -695 18 -1325 24 -1581 13
-2316 27 -2765 50 -104 5 -383 17 -620 25 -236 8 -502 20 -590 25 -417 25
-540 29 -945 32 -403 3 -439 1 -490 -16 -97 -33 -182 -87 -263 -167 -62 -62
-85 -93 -116 -160 -62 -133 -77 -272 -46 -449 64 -375 115 -3062 115 -6060 0
-2031 -17 -3289 -60 -4440 -28 -764 -40 -1231 -51 -2080 -5 -415 -14 -809 -19
-875 -5 -66 -12 -266 -15 -445 -3 -179 -8 -336 -11 -349 l-5 -24 -597 7
c-1337 15 -2110 41 -4697 156 -489 21 -1016 44 -1170 50 -394 15 -403 15 -411
22 -3 4 -10 175 -14 380 -5 205 -13 517 -19 693 -6 176 -16 921 -21 1655 -6
734 -15 1551 -20 1815 -10 470 -15 665 -45 1645 -49 1570 -97 3477 -120 4695
-8 446 -19 1037 -25 1315 -5 278 -14 856 -20 1285 -5 429 -15 1156 -21 1615
-14 1039 -14 6064 0 7140 27 1996 32 2377 41 2985 6 358 15 884 20 1170 39
2043 54 3674 54 5945 0 960 -5 2265 -12 2900 -16 1508 -18 3879 -3 4380 6 212
18 540 26 730 27 652 35 856 45 1245 10 353 27 776 33 781 12 10 1237 72 1647
84 465 13 2239 37 3805 51 688 6 1522 14 1855 18 957 12 1041 12 2655 -4z
m16450 -12980 c688 -14 1859 -63 2625 -110 311 -19 707 -41 880 -50 173 -8
482 -24 685 -35 593 -31 1281 -58 2065 -80 206 -6 481 -15 610 -20 129 -5 449
-10 711 -10 l477 0 7 -152 c19 -398 9 -2246 -25 -5103 -84 -6853 -94 -8685
-60 -10490 33 -1759 35 -1880 65 -2780 16 -489 18 -537 70 -1810 41 -997 56
-1342 90 -2030 55 -1103 145 -3107 185 -4120 11 -280 29 -708 40 -950 11 -242
24 -570 30 -730 6 -159 15 -382 20 -495 5 -113 12 -310 16 -438 l7 -232 -124
5 c-483 21 -1153 25 -2434 15 -759 -6 -1555 -15 -1770 -20 -583 -14 -3823 -50
-4457 -50 l-318 0 0 213 c0 116 -7 507 -15 867 -8 360 -19 986 -25 1390 -6
404 -13 749 -15 765 -3 17 -9 883 -15 1925 -11 2189 -26 4195 -40 5325 -5 435
-15 1209 -21 1720 -31 2432 -7 4964 71 7555 11 360 27 923 35 1250 8 327 24
948 35 1380 68 2662 72 3059 60 5270 -5 971 -13 1827 -16 1902 l-7 138 159 -5
c87 -3 267 -7 399 -10z m-28371 -161 l509 -7 -6 -731 c-7 -712 -11 -980 -42
-2641 -8 -440 -19 -1189 -25 -1665 -6 -476 -16 -1108 -21 -1405 -6 -297 -13
-1879 -16 -3515 -5 -2857 -2 -3591 27 -5795 9 -710 14 -999 40 -2385 24 -1261
54 -2568 85 -3610 8 -278 19 -678 25 -890 6 -212 17 -590 25 -840 36 -1115 51
-1997 65 -3745 6 -654 14 -1278 20 -1385 5 -107 11 -316 12 -464 l3 -269 -330
7 c-181 3 -620 13 -975 21 -1606 37 -2830 40 -4740 14 -1057 -14 -2541 -46
-2920 -63 l-105 -5 -2 630 c-1 346 -7 817 -14 1047 -6 229 -14 1108 -19 1952
-4 844 -13 1767 -20 2050 -10 401 -10 642 -1 1090 31 1526 34 2069 35 6390 1
3408 5 4604 15 5090 11 493 12 1130 7 2855 -7 2557 -21 3637 -61 4819 -40
1173 -52 2579 -27 3059 7 131 15 244 18 251 5 14 7 14 699 41 432 16 921 28
2040 50 429 8 1136 22 1570 31 1703 34 2554 37 4129 18z m10511 -15694 c200
-14 499 -29 835 -40 168 -6 449 -17 625 -25 506 -24 999 -34 2185 -45 608 -5
1229 -12 1380 -14 374 -7 1346 -51 1780 -81 195 -13 513 -34 705 -45 193 -11
383 -22 423 -26 l72 -6 0 -496 c1 -274 5 -598 10 -722 5 -124 14 -558 21 -965
13 -744 5 -1701 -21 -2860 -19 -800 -26 -991 -80 -2160 -16 -352 -32 -707 -35
-790 -3 -82 -15 -339 -25 -570 -51 -1107 -62 -1761 -58 -3526 l3 -1466 -700
-6 c-385 -4 -1042 -14 -1460 -22 -1197 -23 -2480 -36 -4360 -44 -957 -4 -1741
-7 -1741 -7 -5 3 17 669 26 796 6 85 15 508 20 940 10 827 20 1251 45 1900 28
720 35 988 47 1750 16 969 15 4674 0 5770 -21 1472 -31 1895 -59 2603 l-6 167
119 0 c65 0 178 -4 249 -10z m-14598 -15222 c-4 -331 -7 -871 -7 -1200 l0
-598 -298 0 -298 0 -23 288 c-22 277 -48 535 -90 902 -11 96 -25 231 -31 300
-11 133 -40 746 -40 842 l0 57 103 4 c56 1 234 4 396 5 l294 2 -6 -602z m1006
465 c-7 -282 -24 -620 -53 -1043 -16 -239 -36 -581 -45 -760 -8 -179 -18 -353
-21 -387 l-6 -63 -225 0 -226 0 7 893 c3 490 9 1028 12 1195 l7 302 277 0 277
0 -4 -137z m961 70 c23 -246 66 -1701 66 -2214 l0 -109 -351 0 -352 0 7 148
c16 347 39 736 66 1142 26 384 50 875 50 1043 l0 57 254 0 254 0 6 -67z
m-3200 -40 c3 -54 8 -154 11 -223 22 -508 32 -648 85 -1100 16 -140 41 -390
55 -555 13 -165 27 -324 31 -352 l5 -53 -470 0 -471 0 5 308 c3 169 7 505 10
747 5 462 22 1146 31 1252 l6 63 276 3 c152 1 309 3 348 5 l72 2 6 -97z m4311
84 c6 -7 41 -1339 51 -1934 l7 -423 -326 0 -325 0 -6 123 c-3 67 -10 383 -16
702 -12 645 -26 1109 -40 1320 -5 77 -10 160 -10 184 l0 44 332 -6 c182 -4
332 -8 333 -10z m-5469 -214 c-20 -609 -26 -892 -32 -1493 l-7 -660 -231 6
c-127 4 -234 9 -237 13 -3 3 -14 159 -23 346 -9 187 -24 426 -31 530 -8 105
-24 314 -35 465 -27 369 -45 926 -31 962 l10 28 233 3 c128 1 268 3 312 5 l79
2 -7 -207z m6619 192 c20 -4 20 -13 23 -627 2 -575 12 -1088 28 -1530 l7 -178
-351 0 -350 0 -6 143 c-3 78 -10 408 -16 732 -6 325 -15 732 -20 905 -5 173
-11 373 -13 443 l-3 128 341 -6 c187 -3 349 -8 360 -10z m-7695 -194 c0 -230
13 -490 50 -986 16 -220 36 -521 45 -670 8 -148 17 -319 21 -379 l6 -109 -173
6 c-96 4 -250 7 -343 7 l-169 0 6 943 c4 518 10 1035 14 1149 l6 207 131 4
c72 1 193 4 269 5 l137 2 0 -179z m8656 167 c13 -14 55 -1152 70 -1955 l7
-343 -266 0 -266 0 -5 33 c-10 63 -26 833 -33 1551 l-6 729 247 -5 c136 -3
249 -8 252 -10z m864 -24 l145 -6 -3 -51 c-2 -29 -16 -212 -32 -407 -17 -196
-41 -520 -55 -720 -22 -320 -75 -1081 -75 -1087 0 -2 -72 -3 -159 -3 l-159 0
-6 153 c-3 83 -8 280 -11 437 -9 454 -24 940 -40 1273 -8 170 -15 336 -15 369
l0 60 133 -6 c72 -3 197 -8 277 -12z m-10514 -566 c-3 -315 -7 -826 -8 -1135
l-2 -563 -253 0 c-197 0 -253 3 -253 13 0 7 -9 113 -20 237 -64 741 -90 1237
-90 1777 l0 233 178 3 c97 1 240 4 316 5 l139 2 -7 -572z m-1073 445 c4 -54 7
-213 7 -353 0 -416 28 -902 93 -1637 l13 -143 -310 0 c-171 0 -327 3 -347 6
l-35 6 -27 257 c-47 438 -120 1298 -142 1656 -8 138 -18 260 -20 272 l-5 23
217 3 c120 1 293 3 384 5 l166 2 6 -97z m12579 83 c147 -7 270 -15 273 -17 8
-9 53 -411 70 -624 16 -223 31 -649 40 -1160 3 -187 8 -359 11 -382 l5 -43
-480 0 -481 0 0 38 c0 37 17 284 65 972 22 318 74 983 91 1168 l6 62 66 -1
c37 0 187 -6 334 -13z m-13788 -68 c3 -35 13 -169 21 -298 8 -129 26 -368 40
-530 14 -162 35 -398 46 -525 20 -236 65 -681 75 -747 l6 -38 -150 0 c-82 0
-209 3 -283 6 l-134 7 0 801 c-1 478 -6 895 -13 1033 -6 128 -9 260 -5 293 l6
60 192 0 193 0 6 -62z m46406 10 c0 -24 7 -187 15 -363 8 -176 19 -500 25
-720 6 -220 15 -514 20 -654 6 -140 8 -256 6 -258 -2 -2 -121 0 -265 3 l-261
7 0 580 c0 530 -14 1326 -24 1404 l-5 32 127 4 c70 1 180 4 245 5 l117 2 0
-42z m-926 -65 c5 -79 24 -1363 26 -1805 l0 -108 -336 0 -337 0 7 193 c4 105
11 424 16 707 5 283 14 649 21 813 l13 297 291 0 292 0 7 -97z m1752 83 c0 0
17 -107 37 -236 46 -289 58 -380 97 -746 39 -363 85 -742 110 -901 11 -68 20
-129 20 -138 0 -13 -22 -15 -147 -15 -82 0 -211 3 -289 7 l-141 6 -7 201 c-3
111 -13 428 -21 706 -14 487 -30 921 -40 1064 l-4 68 192 -7 c106 -4 192 -8
193 -9z m-32301 -11 c165 -8 310 -15 323 -15 18 0 22 -6 22 -32 0 -104 55
-501 166 -1193 135 -841 143 -900 136 -906 -4 -4 -219 -10 -478 -14 l-472 -7
-6 213 c-3 118 -11 401 -16 629 -14 545 -33 858 -76 1200 -7 63 -14 121 -14
128 0 15 37 15 415 -3z m29512 -87 c-14 -213 -27 -662 -37 -1238 -6 -327 -13
-608 -16 -624 l-6 -29 -185 6 c-102 3 -188 8 -190 11 -3 2 -27 206 -54 453
-27 246 -65 581 -84 743 -19 162 -41 376 -50 475 -8 99 -17 206 -20 237 -5 53
-4 57 17 61 13 2 160 5 327 6 l304 1 -6 -102z m-1092 80 c2 -7 11 -105 20
-218 9 -113 27 -302 41 -420 51 -444 144 -1284 144 -1302 0 -17 -15 -18 -357
-12 -197 4 -359 8 -361 9 -3 3 -26 477 -57 1150 -8 193 -20 446 -25 564 -6
118 -8 217 -4 220 3 3 121 9 262 12 141 3 274 6 295 7 23 1 39 -3 42 -10z
m5020 -12 l300 -11 -2 -60 c-1 -33 -23 -193 -47 -355 -76 -497 -97 -657 -202
-1556 l-6 -52 -212 5 c-116 2 -221 6 -232 8 -16 4 -23 15 -28 47 -36 221 -76
528 -126 983 -51 456 -118 953 -135 1004 -5 14 -30 14 690 -13z m-6061 -173
c6 -146 41 -938 72 -1610 l7 -143 -265 0 c-146 0 -353 3 -460 7 l-195 6 -12
126 c-34 371 -103 1181 -120 1421 -12 151 -23 294 -26 317 l-5 43 388 3 c213
1 437 3 498 5 l111 2 7 -177z m-25954 132 c322 -14 587 -25 589 -25 4 0 3 -15
-23 -365 -9 -110 -22 -346 -31 -525 -8 -179 -22 -417 -30 -530 -9 -113 -20
-284 -26 -380 -6 -96 -12 -189 -15 -206 l-4 -31 -198 -7 c-108 -3 -285 -6
-392 -7 l-195 -1 -26 174 c-15 95 -67 427 -117 738 -94 582 -133 842 -151
1015 -6 55 -13 117 -16 138 -5 35 -4 37 22 37 16 0 291 -11 613 -25z m23797
-207 c-4 -128 -11 -433 -17 -678 -5 -245 -13 -563 -16 -707 l-6 -263 -418 0
-418 0 -6 63 c-5 59 -20 651 -31 1242 -3 154 -8 344 -11 422 l-6 143 348 3
c192 1 403 3 468 5 l119 2 -6 -232z m713 220 c1 -74 140 -1740 154 -1845 l5
-33 -235 0 -234 0 5 38 c2 20 7 233 10 472 6 429 18 914 31 1223 l7 157 128 0
c97 0 129 -3 129 -12z m8757 -2 c3 -3 31 -530 48 -926 37 -855 46 -1092 43
-1095 -2 -2 -195 -1 -430 2 l-426 6 4 31 c2 17 20 168 39 336 50 433 89 727
145 1100 40 264 80 542 80 553 0 3 494 -4 497 -7z m-20948 -143 c-1 -299 -18
-938 -35 -1320 l-18 -403 -441 0 -442 0 -6 503 c-4 276 -12 606 -17 732 -23
495 -26 600 -22 605 2 3 178 7 390 10 213 3 433 7 490 8 l102 2 -1 -137z m910
-40 c30 -433 62 -761 131 -1336 22 -181 40 -331 40 -333 0 -2 -155 -4 -345 -4
-190 0 -345 1 -345 3 0 1 9 196 20 432 10 237 22 592 25 790 3 198 8 420 11
493 l6 132 222 0 223 0 12 -177z m1127 15 c-17 -408 -26 -768 -33 -1199 l-6
-466 -90 -7 c-50 -3 -156 -6 -236 -6 l-146 0 -53 448 c-63 532 -75 654 -102
1002 -11 146 -22 293 -24 328 l-5 62 350 0 351 0 -6 -162z m1048 140 c7 -32
44 -435 56 -603 18 -254 72 -1187 68 -1190 -2 -1 -175 -5 -385 -7 l-383 -5 0
121 c1 259 38 1670 46 1694 2 9 71 12 298 12 l296 0 4 -22z m5906 -15 c0 -21
7 -132 14 -248 8 -115 20 -320 26 -455 14 -310 47 -853 61 -989 5 -57 8 -105
6 -107 -2 -2 -192 -1 -422 3 l-418 6 7 121 c4 67 23 335 42 596 38 523 54 804
54 982 l0 117 153 4 c83 1 225 4 315 5 l162 2 0 -37z m1124 -270 c10 -483 25
-1098 32 -1330 l7 -213 -292 0 -291 0 -11 27 c-5 15 -14 48 -19 73 -12 57 -45
564 -65 1000 -9 184 -22 424 -30 534 -8 109 -15 202 -15 207 0 5 151 9 339 9
l339 0 6 -307z m11784 300 l122 -6 0 -106 c-1 -58 -7 -239 -15 -401 -38 -769
-40 -1085 -8 -1446 l6 -72 -254 5 c-140 3 -257 8 -260 12 -3 3 -13 204 -23
446 -17 442 -50 1196 -64 1443 l-7 132 191 0 c105 0 246 -3 312 -7z m-17573
-9 c20 -5 20 -11 20 -889 0 -486 -4 -887 -8 -892 -5 -4 -160 -8 -345 -8 l-337
0 -37 625 c-32 540 -63 950 -85 1123 l-6 47 389 0 c214 0 398 -3 409 -6z
m3582 -276 c-3 -180 -18 -455 -41 -753 -19 -258 -38 -524 -41 -590 -3 -66 -8
-135 -11 -152 l-5 -33 -214 0 c-214 0 -215 0 -220 23 -6 30 -79 866 -105 1207
-12 151 -27 340 -34 420 -7 80 -11 148 -9 153 2 4 157 7 345 7 l341 0 -6 -282z
m-9337 230 c0 -24 7 -176 15 -338 16 -312 39 -1434 31 -1457 -4 -10 -65 -13
-299 -13 l-293 0 -23 278 c-12 152 -33 390 -47 527 -13 138 -37 394 -54 570
-17 176 -34 350 -38 388 l-8 67 45 1 c25 1 172 5 326 8 154 4 295 8 313 9 31
2 32 1 32 -40z m6935 30 c8 -24 35 -421 55 -808 11 -212 27 -502 35 -645 8
-143 15 -272 15 -287 l0 -28 -410 0 -410 0 0 890 0 890 355 0 c276 0 357 -3
360 -12z m1275 -2 c0 -8 4 -58 10 -112 5 -55 19 -225 30 -379 20 -269 93
-1124 105 -1232 l6 -53 -425 0 c-346 0 -427 3 -438 14 -10 10 -17 76 -26 252
-44 868 -71 1321 -88 1472 l-6 52 416 0 c349 0 416 -2 416 -14z m-17718 -22
l237 -6 5 -52 c3 -28 13 -170 21 -316 20 -335 44 -614 100 -1153 25 -235 45
-433 45 -441 0 -19 -88 -24 -534 -31 l-349 -6 7 103 c4 57 16 225 26 373 11
149 27 410 35 580 22 448 40 720 61 911 l5 51 52 -4 c29 -1 159 -6 289 -9z
m8357 -76 c6 -51 22 -217 36 -368 14 -151 32 -336 40 -410 19 -178 86 -962 82
-966 -1 -2 -182 -4 -401 -6 l-398 -3 6 90 c13 188 25 570 37 1147 l13 598 240
3 c133 1 262 3 287 5 l47 2 11 -92z m-1033 -155 c-3 -126 -11 -424 -16 -663
-6 -239 -15 -525 -20 -634 -6 -109 -10 -222 -10 -251 l0 -52 -202 -7 c-112 -3
-295 -7 -408 -8 l-205 -2 -7 95 c-4 52 -25 416 -48 809 -22 393 -43 763 -46
822 l-7 107 64 4 c35 2 255 4 488 5 l424 2 -7 -227z m-6010 204 c8 -8 24 -935
24 -1413 l0 -521 -97 -6 c-54 -4 -162 -7 -240 -7 l-141 0 -6 28 c-9 44 -104
988 -121 1202 -17 220 -45 647 -45 699 l0 34 311 -6 c171 -3 313 -8 315 -10z
m3622 -174 c7 -104 17 -253 22 -333 5 -80 16 -302 25 -495 19 -453 34 -727 41
-791 l5 -51 -83 -6 c-46 -4 -165 -7 -264 -7 l-182 0 -6 33 c-3 17 -28 201 -57
407 -28 206 -66 490 -85 630 -27 195 -84 736 -84 792 0 4 148 8 328 8 l328 0
12 -187z m976 125 c7 -76 26 -388 66 -1113 16 -297 32 -567 36 -601 l6 -61
-32 -7 c-18 -3 -142 -6 -275 -6 l-242 0 -7 93 c-8 119 -22 405 -41 842 -9 193
-25 474 -35 625 -11 151 -20 278 -20 283 0 4 121 7 269 7 l269 0 6 -62z
m-3204 -65 c-1 -225 -20 -689 -45 -1058 -13 -203 -27 -428 -30 -500 -10 -221
-12 -233 -43 -239 -15 -3 -201 -8 -414 -11 l-388 -7 0 258 c0 367 -18 1526
-25 1607 l-6 67 475 0 476 0 0 -117z m1134 -90 c22 -265 48 -475 135 -1113 39
-283 71 -524 71 -536 0 -20 -6 -20 -427 -32 -236 -7 -457 -12 -492 -12 l-64 0
7 143 c4 78 18 306 31 507 33 490 45 761 45 1028 l0 222 338 0 338 0 18 -207z"/>
<path d="M33045 62584 c-849 -25 -1373 -51 -2025 -99 -184 -14 -461 -32 -615
-40 -382 -21 -607 -40 -957 -80 -338 -39 -366 -45 -465 -91 -119 -57 -249
-194 -284 -302 -6 -20 -31 -58 -54 -83 -110 -119 -158 -231 -175 -409 -6 -63
-15 -142 -20 -175 -79 -504 -107 -1195 -96 -2360 27 -2793 24 -2663 61 -3250
37 -585 102 -987 196 -1224 115 -290 338 -496 659 -609 287 -100 685 -141
1570 -158 403 -8 1348 21 1865 57 303 21 965 88 1475 149 135 16 450 52 700
80 511 57 575 66 780 116 261 64 383 126 516 265 207 216 312 501 368 1009 85
755 101 1390 101 4060 0 2168 -1 2247 -45 2430 -55 227 -202 409 -415 511
-198 95 -465 135 -1120 169 -434 22 -1693 43 -2020 34z m1551 -1144 c443 -15
900 -43 914 -57 11 -10 17 -2279 9 -3193 -14 -1485 -28 -1934 -80 -2505 -21
-232 -51 -441 -68 -474 -15 -26 -134 -46 -595 -97 -226 -24 -539 -60 -696 -79
-593 -71 -1216 -134 -1545 -155 -1153 -73 -2421 -59 -2833 32 -60 13 -58 7
-91 194 -37 210 -59 443 -86 949 -33 595 -53 3920 -27 4380 19 322 71 789 90
806 18 16 441 53 907 79 198 11 477 29 620 40 506 39 1215 76 1830 94 196 6
1354 -4 1651 -14z"/>
<path d="M34889 59817 c-24 -13 -149 -105 -278 -205 -323 -252 -809 -617
-1436 -1077 -508 -373 -1014 -752 -1881 -1408 -397 -300 -572 -425 -649 -465
-81 -41 -125 -113 -125 -202 0 -150 132 -252 285 -220 94 19 250 127 910 629
633 482 1127 850 1780 1331 815 599 1547 1153 1638 1239 129 121 105 307 -50
385 -48 24 -140 21 -194 -7z"/>
<path d="M32448 59131 c-44 -14 -90 -46 -136 -95 -24 -25 -87 -76 -140 -113
-177 -123 -1194 -883 -1383 -1034 -152 -122 -190 -157 -213 -199 -83 -152 24
-334 194 -333 30 0 71 7 90 15 19 8 116 79 215 158 99 79 266 207 370 285 689
513 941 699 1023 754 245 167 320 323 227 471 -46 73 -166 117 -247 91z"/>
<path d="M45845 62474 c-32 -3 -781 -17 -1845 -34 -1372 -22 -1999 -67 -2665
-190 -143 -26 -341 -60 -440 -75 -390 -57 -495 -87 -607 -173 -88 -67 -167
-185 -202 -302 -10 -33 -28 -192 -46 -400 -57 -673 -62 -853 -102 -3342 -9
-612 -9 -944 0 -1560 7 -431 17 -846 22 -923 26 -374 70 -595 153 -760 176
-354 550 -560 1187 -655 339 -50 443 -55 1155 -54 369 0 859 6 1090 12 231 7
677 19 990 27 314 8 707 21 875 29 168 9 413 20 545 26 515 23 1297 86 1445
116 264 54 476 239 590 514 90 217 117 473 127 1195 5 430 -9 1342 -27 1700
-18 354 -39 928 -50 1335 -23 899 -32 1070 -86 1735 -54 667 -96 1001 -145
1161 -75 244 -249 427 -490 515 -163 59 -383 82 -949 99 -310 9 -459 10 -525
4z m607 -1135 c167 -6 304 -12 305 -13 6 -6 45 -384 63 -611 42 -527 50 -626
60 -815 5 -107 17 -442 25 -745 17 -625 29 -971 51 -1430 33 -707 44 -1757 23
-2190 -6 -126 -12 -231 -13 -232 -9 -11 -832 -67 -1201 -83 -137 -6 -387 -17
-555 -25 -168 -7 -415 -17 -550 -20 -135 -3 -504 -12 -820 -20 -1514 -39
-1845 -39 -2203 1 -250 27 -490 79 -513 110 -27 36 -42 296 -55 959 -27 1409
39 4812 93 4846 6 4 34 9 64 13 29 3 161 26 292 51 629 119 1163 154 2712 180
514 9 1072 20 1240 24 465 12 652 12 982 0z"/>
<path d="M42885 50680 c-104 -4 -341 -13 -525 -19 -825 -28 -936 -33 -1219
-61 -645 -65 -814 -111 -966 -263 -120 -120 -179 -269 -174 -438 3 -75 2 -77
-35 -120 -51 -60 -103 -170 -121 -254 -34 -169 -61 -843 -75 -1885 -6 -421
-14 -862 -20 -980 -42 -974 -72 -2955 -51 -3365 14 -269 37 -571 52 -670 35
-222 138 -429 285 -565 233 -218 591 -316 1276 -351 172 -9 338 -8 805 5 323
8 739 18 923 21 184 4 436 11 560 16 124 5 637 14 1140 19 1442 14 2229 61
2550 150 211 59 405 192 532 363 172 232 226 407 343 1102 128 759 154 971
220 1790 109 1370 203 3765 166 4241 -27 343 -71 496 -186 660 -142 200 -357
310 -725 373 -357 61 -1093 138 -1670 176 -588 38 -2624 74 -3085 55z m1860
-1140 c859 -19 1113 -32 1815 -96 416 -37 843 -93 862 -112 16 -16 15 -567 -1
-962 -6 -157 -18 -463 -26 -680 -38 -994 -85 -1808 -150 -2595 -52 -619 -73
-790 -176 -1415 -90 -546 -117 -673 -144 -684 -22 -8 -277 -34 -455 -46 -448
-30 -840 -42 -1630 -50 -470 -4 -1082 -15 -1360 -24 -278 -8 -730 -20 -1005
-26 -275 -6 -615 -14 -757 -17 -163 -4 -319 -1 -430 6 -173 13 -414 43 -425
54 -8 9 -20 147 -34 412 -19 355 -6 1466 31 2775 6 206 15 474 21 595 5 121
14 569 19 995 10 816 12 918 36 1335 19 349 26 435 33 440 8 4 473 51 591 59
47 4 312 13 590 22 278 9 586 19 685 24 206 10 1231 4 1910 -10z"/>
<path d="M44417 47809 c-52 -12 -65 -19 -290 -163 -202 -129 -381 -233 -912
-531 -165 -92 -335 -190 -377 -217 -139 -89 -197 -178 -185 -283 11 -107 108
-194 213 -195 69 0 103 13 214 85 52 34 286 169 520 300 520 291 885 512 997
601 77 63 109 163 81 255 -31 104 -153 173 -261 148z"/>
<path d="M45210 47114 c-25 -14 -56 -36 -70 -49 -28 -26 -844 -577 -1730
-1168 -322 -215 -661 -443 -755 -507 -93 -65 -188 -127 -210 -138 -86 -44
-135 -122 -135 -214 0 -101 64 -184 167 -214 72 -21 134 -9 221 44 129 78
2687 1799 2749 1849 92 75 120 207 65 308 -58 106 -199 148 -302 89z"/>
<path d="M29900 50600 c-140 -4 -349 -15 -465 -23 -115 -9 -289 -21 -385 -27
-96 -6 -215 -17 -265 -25 -199 -33 -353 -149 -467 -352 -105 -188 -100 -152
-107 -743 -10 -846 -7 -1962 7 -2290 7 -168 21 -624 32 -1015 21 -770 31 -989
60 -1395 37 -510 50 -708 70 -1110 27 -542 41 -662 92 -815 102 -308 350 -547
673 -648 191 -59 297 -67 919 -67 842 0 1241 14 2916 100 491 26 926 66 1555
145 237 30 563 68 725 85 387 41 473 54 555 85 270 101 449 344 511 695 33
187 31 1254 -6 3125 -23 1131 -32 1665 -40 2450 -6 493 -14 853 -20 887 -32
179 -97 305 -215 423 -150 150 -350 238 -633 280 -295 43 -659 72 -1069 85
-180 5 -418 14 -528 20 -110 5 -324 15 -475 20 -151 6 -419 22 -595 35 -935
73 -1057 78 -1850 80 -407 1 -855 -1 -995 -5z m1465 -1120 c284 -11 945 -51
1295 -80 129 -10 343 -24 475 -30 613 -26 963 -41 1236 -50 250 -8 633 -37
745 -55 l31 -5 6 -648 c6 -615 12 -985 37 -2227 26 -1351 31 -1757 31 -2274
-1 -305 -2 -556 -4 -557 -1 -2 -90 -12 -197 -24 -107 -11 -370 -43 -585 -70
-678 -86 -1043 -119 -1645 -150 -1599 -81 -1684 -84 -2530 -85 l-725 0 -7 90
c-4 50 -17 275 -28 500 -12 226 -30 529 -41 675 -52 712 -60 875 -84 1775 -8
303 -22 753 -31 1000 -13 353 -15 635 -11 1308 2 472 6 859 8 861 2 2 112 11
244 20 421 30 1332 43 1780 26z"/>
<path d="M57560 49744 c-14 -2 -279 -8 -590 -14 -940 -17 -1107 -25 -1925 -85
-280 -21 -536 -33 -925 -45 -497 -16 -662 -35 -775 -92 -60 -31 -203 -135
-263 -192 -70 -67 -127 -163 -153 -261 -19 -69 -22 -105 -22 -265 1 -102 10
-329 22 -505 42 -658 57 -1199 71 -2620 13 -1312 21 -1487 81 -1674 71 -224
234 -407 464 -521 116 -57 228 -91 410 -125 394 -72 683 -86 1285 -65 322 12
314 11 1505 80 193 11 508 27 700 35 505 21 611 35 780 106 162 67 341 210
434 347 121 179 209 440 255 762 21 144 53 505 66 740 21 365 24 1750 6 2515
-21 890 -34 1083 -87 1276 -86 314 -322 515 -674 574 -162 27 -550 44 -665 29z
m274 -1132 c6 -11 35 -1257 38 -1678 l3 -322 -130 -6 c-297 -14 -979 -27
-1245 -24 l-285 3 -8 994 c-5 738 -4 997 4 1002 6 4 165 10 353 14 187 4 483
10 656 14 462 11 608 12 614 3z m-2045 -1616 l1 -409 -277 7 c-153 4 -435 13
-628 21 -192 8 -443 17 -557 21 -142 4 -208 10 -208 18 -6 477 -44 1486 -66
1742 l-6 72 183 6 c361 13 618 26 899 46 157 11 366 26 465 33 l180 12 6 -580
c3 -319 7 -764 8 -989z m-949 -802 c195 -7 491 -17 656 -20 l301 -7 5 -861 c3
-474 3 -864 -1 -867 -22 -23 -1114 -48 -1296 -30 -174 17 -338 42 -350 53 -11
10 -21 519 -27 1306 l-3 453 180 -6 c99 -3 340 -13 535 -21z m3030 -136 c-1
-590 -54 -1275 -116 -1495 -8 -28 -26 -30 -384 -43 -236 -9 -739 -36 -1046
-55 l-91 -6 -6 368 c-4 202 -7 585 -7 851 l0 482 418 1 c331 1 846 13 1195 27
l37 2 0 -132z"/>
<path d="M56495 41610 c-82 -4 -455 -8 -828 -9 -373 0 -755 -6 -850 -11 -305
-19 -769 -60 -899 -80 -378 -58 -454 -92 -620 -276 -94 -104 -148 -195 -172
-289 -42 -166 -54 -537 -63 -1885 -6 -978 1 -1628 27 -2490 10 -334 22 -397
101 -557 84 -170 220 -300 414 -393 320 -155 757 -244 1379 -280 230 -13 1210
-13 2211 0 861 11 1029 19 1150 50 207 53 372 172 481 346 104 166 146 329
219 838 107 755 128 1056 145 2096 6 338 15 741 21 895 14 375 14 880 0 1040
-32 349 -121 562 -307 734 -171 157 -359 225 -719 261 -132 13 -1473 21 -1690
10z m1485 -1129 l105 -6 8 -115 c5 -66 4 -266 -3 -470 -6 -195 -15 -537 -20
-759 -5 -222 -10 -404 -12 -406 -10 -7 -334 -38 -588 -55 -162 -11 -490 -36
-729 -55 -239 -19 -438 -35 -443 -35 -4 0 -8 278 -8 618 0 554 8 896 28 1182
l7 95 140 5 c199 8 1389 9 1515 1z m-2082 -16 c2 -2 -2 -84 -9 -182 -7 -104
-15 -502 -18 -958 l-6 -780 -150 -11 c-186 -15 -608 -41 -860 -54 -104 -5
-298 -10 -429 -10 l-239 0 6 838 c4 460 10 896 13 969 l7 132 36 5 c60 10 565
47 751 56 161 8 889 4 898 -5z m2152 -2304 c0 -212 -24 -609 -56 -916 -16
-151 -100 -755 -107 -761 -2 -2 -295 -8 -653 -13 -357 -6 -727 -12 -822 -13
l-174 -3 1 175 c1 96 6 310 11 475 27 874 34 1047 44 1051 14 4 817 67 1209
94 163 12 343 27 400 34 56 8 112 14 125 15 22 1 22 0 22 -138z m-2190 -78 c0
-20 -7 -232 -15 -472 -8 -240 -19 -597 -24 -794 -5 -197 -10 -359 -12 -361
-11 -10 -882 15 -1019 29 -257 26 -534 81 -566 112 -11 12 -14 55 -14 229 0
214 -15 927 -24 1122 l-5 102 257 0 c260 0 646 17 1092 50 135 9 264 18 288
19 l42 1 0 -37z"/>
<path d="M20615 49655 c-5 -2 -341 -9 -745 -15 -404 -6 -791 -15 -860 -20 -69
-5 -273 -18 -455 -30 -335 -21 -404 -31 -504 -74 -31 -13 -94 -31 -141 -40
-235 -43 -417 -220 -464 -451 -8 -39 -17 -144 -21 -235 -3 -91 -15 -293 -25
-450 -44 -650 -45 -694 -43 -1415 3 -1136 19 -2030 38 -2158 31 -209 98 -386
196 -518 172 -233 505 -420 936 -528 244 -62 753 -145 1073 -175 356 -35 1036
-61 1325 -52 399 13 1121 85 1314 131 406 98 667 392 770 870 52 235 106 759
150 1450 28 432 22 1837 -9 2285 -36 503 -126 761 -341 971 -238 234 -590 364
-1149 424 -227 24 -1002 46 -1045 30z m855 -1145 c220 -21 437 -62 500 -95 22
-11 28 -23 33 -62 30 -228 47 -700 47 -1280 l0 -433 -28 0 c-76 0 -596 -23
-1012 -45 -592 -32 -538 -32 -544 8 -6 40 -64 947 -76 1202 -6 105 -10 308
-10 452 l0 262 83 4 c143 8 898 -2 1007 -13z m-1517 -112 c4 -62 7 -187 7
-278 0 -206 45 -1019 84 -1523 2 -30 -1 -50 -8 -52 -59 -21 -1452 -20 -1533 0
l-23 5 0 444 c0 440 6 622 35 1101 21 340 11 306 98 342 69 30 82 32 327 47
356 23 331 22 686 24 l321 2 6 -112z m2083 -2310 c-24 -488 -107 -1321 -136
-1368 -7 -11 -376 -56 -670 -81 -80 -7 -266 -13 -415 -13 l-270 -1 -7 140 c-3
77 -11 331 -17 565 -6 234 -16 512 -22 619 -5 106 -9 194 -7 196 7 5 1132 60
1507 73 l44 2 -7 -132z m-2821 19 c176 -1 440 2 586 6 l266 8 6 -81 c4 -45 11
-238 17 -429 5 -190 15 -485 21 -654 6 -170 8 -311 6 -314 -8 -7 -322 15 -517
38 -96 11 -278 38 -405 59 -356 60 -504 97 -615 152 l-65 33 -6 60 c-4 33 -9
302 -13 598 l-6 538 202 -6 c112 -4 347 -7 523 -8z"/>
<path d="M20515 41759 c-222 -8 -530 -32 -769 -59 -470 -55 -1468 -214 -1601
-255 -162 -50 -297 -162 -375 -313 -22 -42 -58 -99 -79 -126 -54 -67 -87 -137
-111 -231 -28 -110 -46 -483 -62 -1276 -18 -932 0 -1489 72 -2229 16 -168 36
-386 45 -485 35 -395 84 -595 197 -790 138 -240 308 -396 573 -526 232 -113
487 -189 831 -248 664 -112 1260 -147 2349 -138 902 8 1142 33 1370 146 385
191 574 606 625 1376 40 610 50 1292 26 1870 -29 703 -82 1454 -136 1935 -44
391 -71 514 -148 665 -139 277 -334 417 -722 519 -189 50 -318 70 -701 110
-489 52 -944 69 -1384 55z m860 -1140 c197 -13 687 -65 795 -85 121 -21 149
-32 155 -57 11 -54 57 -516 75 -757 11 -146 26 -355 34 -465 13 -165 36 -569
36 -619 0 -18 -6 -19 -460 -70 -562 -64 -1121 -116 -1242 -116 -25 0 -26 1
-32 103 -4 56 -13 273 -21 482 -8 209 -19 479 -25 600 -19 444 -22 619 -15
811 l8 196 271 -7 c149 -3 339 -10 421 -16z m-1119 -387 c0 -207 8 -546 17
-752 36 -776 47 -1053 43 -1058 -9 -8 -310 -23 -626 -30 -320 -7 -838 0 -971
13 l-68 7 -7 56 c-17 139 15 1903 35 1925 26 27 1326 212 1521 216 l55 1 1
-378z m2237 -2199 c6 -422 -22 -1230 -53 -1511 -12 -106 -39 -254 -50 -271
-18 -30 -600 -53 -1146 -44 l-401 6 -7 186 c-11 307 -45 1048 -61 1333 -8 147
-15 274 -15 281 0 10 41 17 173 26 94 7 249 19 342 27 187 16 1164 123 1180
129 33 12 35 6 38 -162z m-2153 -46 c0 -8 7 -135 15 -283 12 -230 39 -822 60
-1331 l6 -143 -59 0 c-137 0 -655 57 -917 101 -233 39 -469 106 -568 162 -77
43 -95 110 -122 442 -3 39 -19 210 -35 380 -32 336 -48 529 -51 615 -2 49 -1
55 17 53 10 -1 165 -7 344 -13 364 -13 967 0 1293 28 9 1 17 -4 17 -11z"/>
<path d="M35805 29058 c-176 -33 -354 -194 -417 -376 -30 -89 -33 -268 -4
-352 36 -106 88 -193 161 -265 82 -83 133 -114 241 -151 72 -24 89 -26 189
-21 87 3 125 10 180 31 91 34 186 106 247 187 82 108 113 219 106 368 -6 115
-43 220 -117 333 -128 197 -351 291 -586 246z"/>
</g>
</svg>
