<?xml version="1.0" standalone="no"?>
<!DOCTYPE svg PUBLIC "-//W3C//DTD SVG 20010904//EN"
 "http://www.w3.org/TR/2001/REC-SVG-20010904/DTD/svg10.dtd">
<svg version="1.0" xmlns="http://www.w3.org/2000/svg"
 width="7647.000000pt" height="8073.000000pt" viewBox="0 0 7647.000000 8073.000000"
 preserveAspectRatio="xMidYMid meet">

<g transform="translate(0.000000,8073.000000) scale(0.100000,-0.100000)"
fill="#cdd9cb" stroke="none">
<path d="M37790 70500 c-121 -22 -243 -86 -325 -170 -27 -29 -70 -66 -95 -83
-25 -17 -97 -73 -160 -126 -63 -52 -257 -200 -430 -329 -173 -130 -576 -439
-895 -687 -883 -687 -1042 -809 -1985 -1526 -870 -661 -1102 -840 -1820 -1395
-602 -465 -840 -647 -1645 -1251 -418 -313 -989 -745 -1270 -958 -939 -714
-1337 -1009 -2392 -1768 -1175 -845 -1752 -1255 -3359 -2384 -408 -287 -1004
-708 -1325 -935 -321 -228 -825 -583 -1119 -789 -890 -624 -2172 -1545 -3470
-2493 -723 -528 -3395 -2534 -3853 -2894 -86 -67 -255 -203 -376 -302 -348
-284 -407 -328 -449 -336 -20 -3 -80 -26 -132 -51 -82 -39 -107 -57 -182 -134
-71 -72 -95 -105 -132 -181 -50 -101 -76 -189 -76 -253 0 -22 -7 -78 -15 -124
-11 -64 -16 -221 -20 -690 -10 -1105 -43 -2290 -95 -3446 -42 -940 -55 -1851
-70 -4920 -13 -2599 -27 -4674 -40 -5780 -47 -4214 -50 -6153 -10 -9135 5
-415 15 -1329 20 -2030 13 -1592 27 -2825 40 -3390 6 -239 17 -768 25 -1175 8
-407 19 -875 25 -1040 5 -165 14 -489 20 -720 9 -378 33 -1105 60 -1870 6
-154 13 -474 17 -712 6 -404 5 -435 -13 -495 -25 -85 -25 -259 0 -342 36 -120
96 -218 195 -317 25 -25 75 -79 111 -119 129 -146 292 -222 535 -250 73 -9
839 -13 2820 -16 2579 -3 3733 -11 5310 -34 380 -5 1007 -15 1395 -20 680 -10
1856 -34 3215 -65 358 -8 1080 -22 1605 -30 525 -9 1176 -20 1445 -25 270 -6
1831 -14 3470 -19 3319 -11 3493 -12 5500 -46 1845 -32 3465 -53 5910 -77
1747 -17 5868 4 8610 43 1229 17 7482 18 8360 1 669 -13 2303 -35 2615 -36
127 0 180 4 230 18 103 28 210 90 299 172 44 40 97 82 118 93 46 24 129 93
171 142 44 50 108 174 127 244 10 39 19 136 25 280 5 121 14 306 20 410 18
323 40 1155 51 1930 19 1309 -4 4186 -56 7095 -8 459 -22 1285 -30 1835 -8
550 -22 1293 -30 1650 -8 358 -19 909 -25 1225 -31 1725 -85 4091 -125 5455
-44 1533 -59 2571 -58 4195 0 745 5 1623 12 1950 6 327 15 847 21 1155 20
1113 31 1591 50 2225 44 1414 50 1623 62 2080 24 944 14 2757 -22 3958 l-8
292 30 83 c39 106 49 255 24 362 -38 159 -140 300 -293 405 -119 82 -276 201
-580 442 -303 239 -742 570 -1324 998 -444 327 -787 588 -1349 1029 -813 637
-1144 894 -1830 1422 -382 294 -893 688 -1135 875 -1603 1238 -2869 2190
-4265 3206 -803 584 -1130 817 -1725 1228 -154 107 -545 379 -870 605 -1335
931 -2534 1749 -3865 2638 -2690 1795 -3777 2547 -5305 3671 -630 463 -1582
1149 -1948 1403 -155 108 -392 273 -527 368 -135 95 -348 243 -475 330 -253
173 -320 223 -409 302 -140 126 -351 186 -536 153z m356 -1601 c120 -83 283
-197 363 -253 81 -57 279 -195 441 -308 394 -273 1347 -960 2040 -1469 146
-108 506 -369 800 -580 1270 -914 1906 -1350 4445 -3049 721 -482 1445 -969
1610 -1081 657 -449 1776 -1220 2225 -1534 261 -183 702 -489 980 -682 1539
-1066 3619 -2608 6020 -4463 366 -282 879 -678 1140 -879 568 -436 755 -582
1475 -1146 890 -698 1082 -843 1845 -1405 498 -366 678 -503 1052 -798 l306
-242 6 -72 c6 -79 21 -642 36 -1418 13 -625 13 -1786 0 -2430 -11 -556 -19
-849 -55 -2030 -30 -988 -42 -1453 -55 -2250 -6 -344 -15 -821 -21 -1060 -17
-729 -23 -3286 -10 -4265 13 -995 22 -1441 51 -2460 11 -385 26 -970 35 -1300
8 -330 17 -694 20 -810 8 -297 53 -2429 65 -3115 6 -316 17 -874 25 -1240 20
-929 24 -1143 35 -1905 6 -368 19 -1194 30 -1835 11 -641 24 -1439 30 -1775
33 -1975 36 -5100 6 -6150 -13 -449 -35 -1026 -40 -1032 -3 -4 -2102 18 -2546
26 -272 6 -898 13 -1390 17 -637 5 -897 10 -902 18 -4 6 -8 45 -8 86 0 41 -4
136 -10 210 -5 74 -19 281 -30 460 -24 377 -38 542 -86 994 -48 458 -69 725
-98 1211 -25 405 -34 612 -56 1245 -31 879 -61 1690 -70 1880 -15 297 -76
1352 -100 1710 -53 800 -88 2162 -75 2950 10 646 24 1320 35 1660 33 1006 42
1481 47 2470 3 668 1 1339 -6 1720 -6 344 -16 958 -21 1365 -6 407 -17 1224
-25 1815 -8 591 -17 1730 -20 2530 -3 800 -10 1664 -15 1920 -18 835 -30 1350
-40 1650 -6 162 -17 529 -25 815 -49 1698 -136 3566 -230 4935 -55 797 -64
948 -75 1220 -6 140 -15 278 -21 307 -13 66 -62 120 -147 164 -59 30 -68 31
-136 26 -40 -4 -124 -2 -187 3 -63 6 -420 32 -794 60 -374 27 -824 61 -1000
75 -564 44 -2065 138 -2490 156 -170 8 -678 13 -1290 13 -907 1 -1058 -1
-1480 -21 -1172 -56 -1949 -68 -3795 -57 -2603 16 -9208 6 -10125 -15 -456
-10 -796 -18 -1745 -41 -228 -5 -626 -14 -885 -20 -1413 -31 -2811 -94 -4085
-185 -267 -19 -708 -48 -980 -65 -272 -16 -664 -41 -870 -55 -571 -37 -677
-43 -1340 -70 -338 -14 -714 -29 -835 -35 -498 -23 -836 -30 -1980 -45 -660
-8 -1382 -20 -1605 -25 -223 -6 -522 -10 -666 -10 -294 0 -331 -6 -383 -66
-30 -33 -39 -58 -61 -164 -6 -33 -14 -275 -20 -605 -5 -302 -18 -755 -29
-1005 -27 -592 -48 -1187 -61 -1740 -6 -245 -16 -551 -21 -680 -6 -129 -13
-759 -16 -1400 -4 -920 -1 -1359 13 -2090 20 -1014 22 -1971 14 -6415 -4
-2450 1 -3445 30 -5305 24 -1550 46 -2617 65 -3100 8 -206 21 -575 30 -820 8
-245 22 -636 30 -870 8 -234 19 -609 25 -835 6 -225 19 -617 30 -870 11 -253
27 -671 35 -930 8 -258 22 -643 30 -855 8 -212 22 -610 30 -885 8 -275 19
-644 25 -820 12 -398 27 -1431 36 -2517 l7 -827 -119 5 c-223 9 -2498 24
-2709 18 -115 -4 -795 -1 -1510 5 -875 7 -1476 8 -1840 1 -297 -5 -628 -6
-736 -3 l-197 6 -6 296 c-8 322 -40 1370 -56 1786 -5 143 -14 442 -20 665 -6
223 -17 635 -25 915 -8 281 -19 755 -25 1055 -6 300 -15 725 -20 945 -14 562
-28 1660 -40 3195 -6 723 -15 1650 -20 2059 -41 3045 -38 5855 10 9701 10 784
18 1972 40 5985 15 2838 25 3457 70 4450 17 386 27 654 60 1650 5 160 15 705
22 1212 l12 923 125 94 c70 52 221 172 336 266 334 274 497 401 1014 793 837
634 2623 1974 2936 2203 1271 932 2783 2019 3750 2697 314 220 854 601 1200
847 347 246 905 639 1240 875 1537 1080 2164 1525 3275 2324 1174 844 1489
1077 2720 2012 228 173 748 565 1155 871 706 530 1111 838 1945 1484 453 350
791 608 1510 1154 709 538 979 746 1709 1314 556 433 1447 1113 1462 1115 4 1
105 -67 225 -150z m14079 -19710 c463 -11 509 -13 1555 -79 821 -52 1089 -71
1380 -95 96 -8 333 -26 525 -40 704 -50 1171 -86 1203 -91 l32 -5 0 -73 c0
-86 13 -317 40 -721 11 -159 33 -490 50 -735 81 -1203 166 -3039 210 -4515 6
-198 15 -493 20 -655 9 -280 18 -610 40 -1425 5 -198 14 -1021 20 -1830 16
-2380 28 -3462 62 -5655 17 -1073 17 -3386 0 -3945 -7 -231 -19 -634 -27 -895
-55 -1799 -46 -3396 26 -4525 29 -461 86 -1429 103 -1765 16 -290 26 -563 66
-1675 37 -1054 41 -1141 60 -1470 32 -544 49 -763 86 -1125 59 -580 82 -828
93 -1000 16 -237 50 -781 55 -878 l5 -82 -232 0 -232 0 2 367 c2 203 8 593 13
868 19 870 24 2047 11 2460 -32 1061 -48 1445 -91 2190 -16 281 -43 776 -60
1100 -17 325 -46 851 -65 1170 -20 319 -62 1035 -95 1590 -33 556 -78 1312
-100 1680 -90 1511 -169 3249 -200 4400 -6 215 -12 435 -15 490 -6 158 -30
4261 -28 4960 1 347 8 898 17 1225 27 1011 29 1590 12 2630 -9 531 -20 1366
-26 1855 -16 1393 -41 2689 -70 3522 -15 425 -12 844 6 1106 18 254 11 368
-27 493 -74 244 -255 418 -489 470 -64 15 -98 15 -274 6 -211 -11 -269 -23
-376 -77 l-45 -23 -1190 -5 c-955 -4 -1300 -9 -1745 -25 -917 -35 -1357 -42
-2604 -42 -1421 0 -1602 4 -3506 75 -1471 55 -1982 73 -3010 105 -1618 50
-1479 47 -3375 81 -313 5 -1184 12 -1935 16 -2208 9 -3716 -17 -7650 -132
-633 -19 -2146 -52 -2975 -65 -346 -5 -841 -16 -1100 -23 -320 -8 -1024 -11
-2204 -10 -1467 2 -1764 5 -1930 18 -108 8 -222 20 -254 27 -34 6 -103 9 -165
5 -176 -8 -302 -67 -421 -193 -81 -87 -123 -162 -155 -281 -13 -49 -31 -104
-40 -122 -10 -18 -26 -66 -37 -108 -17 -70 -19 -116 -20 -627 0 -550 4 -683
41 -1276 53 -847 90 -2023 111 -3548 17 -1167 1 -1956 -81 -3962 -16 -399 -32
-808 -36 -910 -3 -102 -8 -864 -9 -1695 -2 -830 -8 -1679 -14 -1885 -13 -480
-14 -1672 -1 -2355 5 -291 14 -874 20 -1295 15 -1116 50 -2010 140 -3635 52
-937 65 -1294 75 -2055 11 -859 29 -1406 65 -2060 37 -667 43 -937 37 -1863
-3 -491 -10 -984 -16 -1097 -27 -517 -43 -832 -66 -1300 -14 -278 -30 -586
-35 -685 -6 -99 -13 -418 -17 -710 l-6 -530 -35 -54 -34 -54 -61 7 c-33 3 -90
6 -127 6 l-68 0 -6 718 c-10 1111 -25 2193 -36 2562 -33 1094 -42 1373 -55
1720 -8 212 -22 597 -30 855 -8 259 -24 682 -35 940 -11 259 -27 718 -35 1020
-15 546 -37 1219 -75 2225 -26 690 -42 1424 -70 3170 -33 2055 -40 4255 -30
8830 3 1577 1 2235 -9 2585 -18 650 -26 3167 -12 3596 6 184 15 510 21 724 25
955 46 1537 80 2270 6 116 13 433 17 706 l6 496 326 6 c768 16 1461 27 2271
37 850 10 1274 20 1700 40 118 6 492 21 830 35 699 28 812 34 1435 75 248 16
641 41 875 55 234 14 673 43 975 65 900 64 1702 107 2665 140 940 33 1173 39
1720 50 289 6 689 15 890 20 1378 37 2536 53 3547 48 793 -4 1473 -2 4468 16
451 3 1194 1 1650 -4 2971 -33 4089 -24 5720 45 325 14 655 27 735 28 225 5
1211 -3 1655 -14z m-12625 -1879 c1825 -28 2147 -35 3765 -85 1174 -37 1219
-38 2465 -85 2551 -96 2523 -95 4120 -95 1400 0 1619 4 2650 41 611 22 1125
31 1620 28 234 -1 590 -3 793 -3 l367 -1 0 -173 c0 -95 5 -299 10 -452 20
-544 50 -1870 60 -2620 5 -418 15 -1135 21 -1593 6 -458 10 -835 8 -837 -5 -5
-385 -42 -559 -55 -467 -34 -1968 -110 -2780 -140 -300 -11 -675 -27 -835 -35
-388 -19 -699 -33 -1060 -45 -361 -13 -1189 -44 -1785 -67 -346 -14 -695 -17
-1705 -18 -871 -1 -1328 -5 -1455 -13 -102 -7 -257 -17 -345 -22 -88 -6 -412
-28 -720 -50 -308 -22 -659 -46 -780 -54 -131 -9 -242 -22 -275 -32 -190 -56
-331 -203 -409 -426 -113 -325 -181 -1011 -221 -2233 -35 -1090 -54 -2337 -41
-2781 11 -363 20 -736 46 -1799 24 -985 33 -2139 28 -3520 -3 -698 -6 -1271
-7 -1272 -6 -8 -515 -19 -1866 -43 -605 -10 -725 -12 -3780 -40 -1043 -10
-1656 -20 -2570 -41 -250 -6 -1152 -12 -2005 -13 -1132 -3 -1562 -7 -1594 -15
-214 -56 -344 -218 -400 -497 -34 -167 -44 -308 -76 -1004 -33 -715 -83 -1440
-161 -2310 -24 -278 -60 -723 -79 -990 -20 -267 -58 -732 -85 -1035 -63 -701
-74 -861 -105 -1465 -24 -483 -34 -748 -55 -1505 -6 -203 -17 -485 -25 -625
-24 -411 -124 -2460 -141 -2880 -8 -212 -17 -395 -20 -407 -4 -23 -5 -23 -207
-23 -111 0 -584 7 -1052 15 -467 8 -1127 19 -1465 25 -338 6 -795 15 -1015 20
-220 6 -942 21 -1605 35 -1432 29 -1632 33 -1636 38 -10 9 18 1247 35 1567 19
345 36 689 76 1485 24 489 35 1002 35 1640 0 654 -10 1036 -40 1590 -43 789
-55 1156 -70 2175 -13 846 -21 1070 -75 2035 -81 1458 -120 2417 -135 3340 -5
347 -15 959 -22 1360 -15 933 -14 1978 2 2640 9 332 13 963 12 1745 -2 1284 3
1558 43 2530 14 327 31 782 40 1010 8 228 20 575 27 770 17 474 17 2704 0
3320 -7 250 -17 617 -22 815 -21 751 -37 1120 -75 1750 -43 712 -56 1178 -32
1201 4 4 348 5 764 3 1362 -7 2485 -2 3238 14 407 9 907 19 1110 22 657 11
2235 45 2770 60 2908 84 3934 108 5210 125 446 6 902 12 1015 14 360 5 2392
-4 3060 -14z m15896 -6716 c11 -61 -4 -1673 -21 -2289 -14 -466 -16 -808 -12
-1737 3 -846 1 -1158 -7 -1158 -6 0 -96 -7 -201 -15 -709 -54 -1662 -44 -4320
46 -210 7 -657 9 -1230 6 -1402 -8 -2447 -51 -4315 -177 -322 -22 -718 -46
-880 -55 -464 -24 -615 -34 -913 -61 -153 -14 -281 -24 -283 -21 -3 2 -7 231
-11 508 -9 782 27 2431 73 3304 31 611 94 1170 134 1195 6 4 68 10 138 14 70
3 375 24 677 46 1194 85 1292 88 2452 82 954 -5 1147 -1 2348 43 363 14 854
31 1090 40 475 16 754 28 1190 50 160 8 477 21 705 30 827 30 973 37 2040 95
684 38 1024 61 1185 79 39 5 89 9 112 10 41 1 42 0 49 -35z m-4706 -5735 c217
-4 419 -11 449 -14 l54 -7 -7 -211 c-17 -524 -63 -999 -122 -1247 -42 -177
-151 -376 -237 -428 -81 -51 -296 -82 -982 -142 -253 -22 -550 -49 -660 -60
-388 -39 -587 -50 -900 -50 -322 1 -390 7 -411 35 -18 24 -29 102 -68 455 -60
540 -68 660 -73 1161 l-5 467 113 6 c648 35 2010 52 2849 35z m1910 -59 c1148
-31 1959 -31 2415 -1 77 6 188 13 246 17 l106 7 7 -1114 c7 -1292 19 -1860 56
-2854 15 -380 59 -1400 74 -1710 7 -143 12 -262 10 -263 -2 -3 -131 0 -1014
28 -1185 38 -5771 46 -8285 15 -1235 -16 -2039 -27 -2460 -35 -258 -4 -472 -7
-476 -5 -3 2 -4 667 -1 1477 4 1398 -5 2461 -28 3338 -5 195 -12 466 -16 603
l-6 247 43 0 c24 0 109 7 189 15 213 21 524 43 870 60 168 8 607 35 975 60
669 45 1163 75 1603 98 l232 12 0 -280 c0 -326 12 -606 40 -935 25 -281 75
-731 95 -853 54 -317 215 -507 485 -576 112 -28 268 -41 506 -41 272 0 483 12
929 55 198 19 495 46 660 60 823 70 1051 109 1239 208 228 121 437 426 526
769 69 268 130 800 145 1278 3 96 8 213 11 259 l6 84 227 -7 c124 -3 390 -11
591 -16z m1355 -6669 c373 -9 676 -18 1357 -40 131 -4 239 -9 241 -12 2 -2 23
-323 46 -714 92 -1556 172 -2905 200 -3375 33 -530 91 -1619 91 -1692 l0 -45
-87 -7 c-764 -56 -1285 -66 -2168 -41 -591 17 -772 26 -1210 60 -170 13 -472
34 -670 45 -397 22 -467 27 -1055 70 -223 17 -727 48 -1120 70 -393 22 -870
49 -1060 60 -598 34 -970 49 -1465 61 -701 16 -1980 0 -2941 -37 -318 -12
-444 -13 -555 -5 -79 6 -146 15 -149 21 -8 12 -14 174 -35 930 -8 289 -22 698
-30 910 -8 212 -20 495 -25 630 -5 135 -14 441 -20 680 -6 239 -15 590 -20
780 -5 190 -10 629 -10 976 l0 631 338 7 c965 19 2340 36 4027 50 816 6 5952
-4 6320 -13z m-11935 -75 c0 -8 -158 -272 -353 -591 -105 -170 -294 -483 -422
-695 -424 -705 -576 -944 -908 -1430 -381 -558 -769 -1105 -1238 -1745 -376
-512 -516 -709 -912 -1285 -257 -373 -1004 -1490 -1501 -2244 -81 -124 -151
-226 -155 -226 -3 1 -31 42 -62 93 -237 390 -687 1111 -838 1342 -101 154
-290 444 -419 645 -130 201 -327 500 -439 665 -375 556 -809 1208 -1008 1515
-606 932 -1393 2119 -1866 2812 -145 213 -333 492 -417 620 -84 128 -186 271
-227 318 l-74 85 1422 6 c842 4 1683 13 2062 23 663 16 1600 28 3595 46 1157
10 2344 25 2995 39 426 10 765 12 765 7z m469 -1771 c6 -236 16 -599 21 -805
6 -206 17 -537 25 -735 24 -576 34 -884 45 -1300 6 -214 17 -565 25 -780 8
-214 22 -655 30 -980 8 -324 24 -799 35 -1055 37 -900 52 -1556 70 -3100 12
-1032 12 -1393 3 -1386 -8 4 -35 45 -485 746 -361 562 -444 695 -783 1260
-164 272 -368 608 -453 745 -86 138 -212 345 -280 460 -330 555 -420 704 -699
1155 -165 267 -458 751 -652 1075 -194 325 -377 624 -405 665 -29 41 -55 80
-59 87 -10 16 206 323 713 1013 422 575 758 1048 1145 1615 364 533 504 751
895 1400 123 204 327 541 455 750 127 209 254 417 281 463 l49 82 6 -472 c4
-260 12 -666 18 -903z m-11321 670 c98 -149 265 -396 372 -550 316 -460 1122
-1676 1830 -2765 135 -206 344 -523 467 -705 498 -741 772 -1151 779 -1168 4
-12 -2 -27 -19 -45 -62 -67 -324 -539 -625 -1127 -123 -242 -268 -521 -322
-620 -53 -99 -169 -313 -257 -475 -88 -162 -247 -461 -353 -665 -107 -203
-276 -527 -378 -720 -198 -377 -679 -1341 -916 -1834 -80 -167 -148 -306 -150
-308 -5 -5 -1278 -4 -1283 1 -4 3 33 867 42 996 3 41 12 221 20 400 25 523 74
1515 95 1910 11 201 24 550 29 775 14 530 17 631 46 1235 31 633 45 833 100
1450 55 607 68 767 100 1225 14 198 48 612 75 920 27 308 58 679 69 825 32
415 91 1388 91 1484 0 22 2 37 4 35 3 -2 85 -126 184 -274z m16122 -4975 c179
-5 371 -12 428 -16 l103 -6 -8 -171 c-13 -294 -10 -979 5 -1096 16 -125 51
-264 87 -345 108 -243 366 -429 710 -511 315 -76 979 -84 1665 -20 146 14 375
34 510 45 348 29 446 49 583 122 81 43 183 145 234 233 158 274 239 674 281
1385 l7 115 65 -3 c36 -2 180 -12 320 -22 665 -51 767 -55 1748 -81 353 -10
526 -10 785 0 370 13 814 37 982 51 61 6 115 10 121 10 7 0 13 -38 18 -102 15
-248 37 -715 50 -1108 9 -234 21 -578 28 -765 15 -429 15 -1371 0 -2063 -7
-293 -15 -802 -19 -1132 l-6 -598 -1766 -5 c-971 -2 -2103 -10 -2516 -16
-1798 -26 -2682 -33 -5336 -38 l-2816 -6 -6 99 c-4 55 -7 388 -7 741 0 1296
-32 2959 -75 3968 -8 187 -19 509 -25 715 -5 206 -11 422 -13 480 l-3 105 300
0 c166 0 474 6 686 14 830 29 2255 40 2880 21z m1310 -60 c85 -5 481 -28 880
-50 658 -37 1032 -61 1619 -105 113 -9 207 -17 209 -20 2 -2 -3 -113 -12 -247
-18 -255 -45 -499 -72 -633 -30 -152 -100 -343 -136 -372 -23 -19 -115 -32
-368 -53 -135 -11 -337 -29 -450 -40 -317 -30 -520 -40 -840 -40 -568 0 -768
32 -923 146 -61 44 -85 95 -105 224 -18 114 -21 484 -8 913 8 284 9 287 30
287 11 0 91 -4 176 -10z m-9843 -410 c333 -558 585 -974 802 -1324 263 -423
370 -600 571 -941 84 -143 253 -422 375 -620 122 -198 352 -576 510 -840 159
-264 350 -577 425 -695 165 -261 559 -876 693 -1081 l97 -151 -437 7 c-241 3
-850 10 -1353 16 -503 5 -1556 21 -2340 34 -1920 34 -2988 44 -4542 45 -1138
0 -1308 2 -1308 15 0 40 674 1389 1080 2160 81 154 225 429 320 610 95 182
239 452 320 600 81 149 177 324 213 390 35 66 166 318 289 560 179 350 476
905 493 923 10 10 316 -467 705 -1098 178 -289 354 -573 391 -631 37 -59 76
-127 87 -152 29 -65 85 -122 154 -157 50 -24 73 -30 129 -30 37 0 80 5 96 11
15 7 69 15 119 19 148 12 229 64 283 180 26 56 235 377 910 1392 557 840 723
1081 733 1066 5 -7 88 -146 185 -308z"/>
<path d="M39640 56313 c-36 -2 -153 -10 -260 -18 -107 -8 -312 -15 -455 -15
-300 0 -354 -7 -450 -54 -38 -19 -90 -44 -116 -54 -98 -41 -163 -133 -175
-247 -4 -40 3 -120 19 -240 38 -265 46 -373 57 -760 6 -192 15 -507 20 -700
23 -805 72 -1077 226 -1253 96 -110 266 -204 445 -246 373 -89 1026 -99 1614
-25 596 74 865 160 1036 329 89 88 147 182 193 311 71 198 86 343 86 818 0
846 -53 1265 -200 1576 -162 341 -496 504 -1140 555 -283 22 -695 33 -900 23z
m820 -603 c365 -26 572 -80 657 -173 43 -46 88 -165 117 -309 41 -201 73 -823
63 -1243 -7 -291 -20 -382 -66 -481 -28 -59 -35 -67 -85 -90 -105 -48 -368
-101 -681 -138 -538 -64 -1299 -40 -1467 45 -51 26 -64 50 -82 149 -30 171
-41 360 -61 1120 -19 677 -33 931 -61 1073 l-6 27 124 0 c122 0 411 15 603 30
127 11 754 4 945 -10z"/>
<path d="M35435 56279 c-298 -22 -934 -99 -1160 -139 -210 -38 -543 -122 -610
-155 -101 -49 -169 -146 -182 -257 -3 -29 -15 -80 -26 -113 -29 -86 -33 -360
-13 -860 30 -729 58 -1108 96 -1296 75 -366 249 -571 577 -678 167 -54 481
-109 758 -132 163 -13 763 -6 895 10 402 51 563 109 721 258 120 114 184 229
252 454 88 287 117 502 124 894 8 417 -25 826 -93 1165 -71 354 -211 596 -418
719 -80 48 -232 97 -356 116 -131 19 -407 27 -565 14z m548 -603 c81 -23 100
-38 141 -114 39 -76 68 -172 90 -307 100 -592 97 -1256 -8 -1650 -79 -296
-106 -316 -476 -361 -179 -22 -733 -25 -905 -6 -262 30 -486 75 -582 117 -96
43 -131 137 -157 417 -48 511 -88 1680 -60 1708 29 29 414 104 689 135 77 9
212 25 300 36 288 37 461 48 690 45 164 -3 235 -8 278 -20z"/>
<path d="M59435 46904 c-248 -25 -450 -65 -666 -133 -90 -28 -181 -91 -227
-156 -28 -40 -50 -59 -93 -79 -119 -55 -208 -175 -229 -311 -54 -349 -80 -866
-80 -1575 0 -924 34 -1840 115 -3150 13 -217 31 -546 40 -730 30 -664 77
-1217 121 -1430 107 -517 239 -729 545 -874 160 -76 279 -97 656 -117 529 -28
1106 47 1593 207 217 71 330 146 425 279 175 245 232 624 256 1700 11 527 4
1126 -26 2045 -8 250 -19 626 -25 835 -15 587 -27 915 -65 1830 -29 693 -51
847 -146 1039 -109 220 -281 362 -542 447 -165 54 -525 119 -852 154 -142 15
-705 29 -800 19z m705 -809 c306 -31 665 -97 741 -136 68 -34 70 -59 114
-1089 18 -421 40 -1101 55 -1650 6 -217 15 -514 20 -660 33 -920 38 -2094 10
-2555 -18 -303 -49 -575 -76 -667 -6 -20 -94 -49 -291 -97 -363 -88 -807 -121
-1206 -90 -170 13 -218 26 -235 61 -18 38 -70 239 -87 338 -30 180 -65 636
-95 1240 -11 228 -31 595 -45 815 -78 1260 -107 2060 -109 2995 0 627 9 935
39 1225 8 77 15 143 15 147 0 16 139 77 220 96 74 18 130 26 325 46 80 8 454
-3 605 -19z"/>
<path d="M16615 46034 c-248 -25 -450 -65 -666 -133 -90 -28 -181 -91 -227
-156 -28 -40 -50 -59 -93 -79 -119 -55 -208 -175 -229 -311 -54 -349 -80 -866
-80 -1575 0 -924 34 -1840 115 -3150 13 -217 31 -546 40 -730 30 -664 77
-1217 121 -1430 107 -517 239 -729 545 -874 160 -76 279 -97 656 -117 529 -28
1106 47 1593 207 217 71 330 146 425 279 175 245 232 624 256 1700 11 527 4
1126 -26 2045 -8 250 -19 626 -25 835 -15 587 -27 915 -65 1830 -29 693 -51
847 -146 1039 -109 220 -281 362 -542 447 -165 54 -525 119 -852 154 -142 15
-705 29 -800 19z m705 -809 c306 -31 665 -97 741 -136 68 -34 70 -59 114
-1089 18 -421 40 -1101 55 -1650 6 -217 15 -514 20 -660 33 -920 38 -2094 10
-2555 -18 -303 -49 -575 -76 -667 -6 -20 -94 -49 -291 -97 -363 -88 -807 -121
-1206 -90 -170 13 -218 26 -235 61 -18 38 -70 239 -87 338 -30 180 -65 636
-95 1240 -11 228 -31 595 -45 815 -78 1260 -107 2060 -109 2995 0 627 9 935
39 1225 8 77 15 143 15 147 0 16 139 77 220 96 74 18 130 26 325 46 80 8 454
-3 605 -19z"/>
</g>
</svg>
