<?xml version="1.0" standalone="no"?>
<!DOCTYPE svg PUBLIC "-//W3C//DTD SVG 20010904//EN"
 "http://www.w3.org/TR/2001/REC-SVG-20010904/DTD/svg10.dtd">
<svg version="1.0" xmlns="http://www.w3.org/2000/svg"
 width="7647.000000pt" height="8073.000000pt" viewBox="0 0 7647.000000 8073.000000"
 preserveAspectRatio="xMidYMid meet">

<g transform="translate(0.000000,8073.000000) scale(0.100000,-0.100000)"
fill="#000000" stroke="none">
<path d="M23318 71995 c-129 -32 -267 -118 -342 -214 -27 -33 -53 -55 -82 -66
-109 -42 -234 -148 -299 -255 -78 -128 -94 -223 -115 -675 -39 -861 -50 -1966
-49 -4825 0 -1416 -4 -2879 -10 -3250 -36 -2297 -56 -4996 -41 -5610 18 -723
50 -985 149 -1195 121 -259 334 -440 636 -541 312 -104 873 -134 1250 -67 458
81 764 400 900 940 116 461 238 1910 275 3268 22 789 31 1083 50 1525 10 250
24 592 30 760 23 668 32 884 55 1340 42 812 61 1366 87 2555 18 809 18 4598 0
4830 -36 463 -136 731 -355 947 -228 226 -598 382 -1097 462 -457 74 -904 104
-1042 71z m588 -1265 c88 -11 213 -29 279 -40 126 -21 323 -74 351 -94 9 -7
20 -39 26 -76 16 -97 22 -3612 9 -4460 -22 -1313 -41 -1895 -101 -3080 -11
-212 -26 -592 -35 -845 -8 -253 -22 -622 -30 -820 -8 -198 -20 -466 -25 -595
-5 -129 -17 -494 -25 -810 -21 -813 -34 -1112 -75 -1735 -49 -727 -113 -1350
-165 -1591 l-16 -72 -87 -7 c-77 -6 -297 7 -343 21 -20 5 -25 66 -39 414 -19
477 -6 3004 26 4975 11 675 19 2039 25 4380 5 1870 11 3456 14 3525 3 69 10
294 15 500 11 371 15 430 29 430 4 0 79 -9 167 -20z"/>
<path d="M61074 70514 c-54 -19 -111 -76 -137 -133 -16 -38 -22 -78 -28 -221
-6 -154 -36 -571 -42 -593 -1 -5 -95 89 -207 209 -228 241 -245 253 -350 254
-57 0 -73 -4 -120 -32 -74 -46 -112 -114 -112 -201 0 -105 33 -154 260 -388
l74 -77 -113 -6 c-63 -3 -217 -9 -344 -14 -252 -9 -276 -14 -337 -76 -134
-133 -60 -367 129 -406 43 -9 132 -10 377 -1 177 6 392 11 479 11 l158 0 -205
-271 c-130 -172 -211 -288 -221 -317 -22 -65 -19 -128 9 -187 40 -88 119 -138
216 -138 94 0 148 33 238 149 l23 29 -5 -137 c-6 -170 5 -215 66 -275 53 -52
102 -73 171 -73 102 0 208 79 237 178 7 20 18 172 25 337 7 165 14 301 14 303
1 2 89 -79 197 -180 107 -101 213 -193 234 -206 48 -29 133 -39 186 -22 117
37 189 160 163 279 -18 84 -55 126 -388 432 l-93 86 344 -1 344 -1 49 30 c116
72 150 224 75 336 -65 98 -135 118 -405 120 -104 1 -216 4 -247 8 l-57 6 84
120 c89 127 115 183 115 250 0 144 -134 263 -272 241 -88 -14 -129 -48 -224
-186 -70 -100 -71 -98 -54 83 19 210 24 447 11 502 -35 144 -184 228 -317 179z"/>
<path d="M32925 70039 c-44 -4 -109 -14 -145 -22 -77 -19 -525 -174 -730 -254
-465 -180 -1161 -611 -1654 -1022 -369 -308 -855 -804 -1137 -1161 -467 -590
-1084 -1623 -1357 -2272 -196 -466 -458 -1241 -591 -1748 -163 -625 -339
-1646 -411 -2380 -19 -196 -70 -846 -107 -1370 -25 -348 -25 -1427 0 -1850 40
-671 109 -1605 133 -1795 37 -302 127 -506 304 -689 178 -185 421 -310 740
-380 227 -49 681 -106 853 -106 248 0 449 84 603 253 101 111 155 217 200 396
50 197 55 284 59 1151 5 968 22 2038 35 2285 6 99 17 293 25 430 8 138 22 399
30 580 22 472 34 608 101 1135 108 851 179 1205 358 1780 222 716 351 1042
590 1490 233 435 392 650 745 1000 253 251 536 476 900 715 216 142 410 253
865 492 641 338 780 420 908 541 317 299 393 815 195 1308 -149 369 -449 899
-652 1152 -154 191 -337 291 -595 326 -158 21 -174 22 -265 15z m23 -1316 c77
-109 340 -629 325 -643 -9 -9 -307 -169 -652 -349 -557 -293 -934 -529 -1349
-848 -224 -172 -356 -287 -561 -488 -488 -480 -741 -831 -1075 -1495 -242
-479 -351 -760 -576 -1475 -219 -697 -299 -1089 -425 -2075 -64 -508 -84 -743
-110 -1310 -9 -184 -22 -436 -30 -560 -8 -124 -19 -342 -25 -485 -12 -313 -30
-1658 -30 -2272 0 -244 -3 -443 -7 -443 -19 0 -144 22 -205 36 l-66 15 -6 47
c-15 115 -90 1165 -116 1622 -32 559 -30 1338 5 1840 27 386 85 1118 101 1275
57 557 210 1469 333 1976 117 484 368 1245 567 1722 206 491 703 1343 1081
1852 290 391 804 917 1194 1221 402 314 911 618 1239 738 225 82 345 125 357
125 6 1 20 -11 31 -26z"/>
<path d="M15871 69939 c-103 -20 -241 -76 -366 -148 -118 -67 -505 -361 -594
-450 -134 -134 -207 -277 -231 -452 -9 -65 -18 -91 -39 -119 -72 -91 -110
-198 -118 -335 -5 -83 -2 -115 16 -184 32 -130 76 -197 231 -356 171 -176 280
-319 567 -750 172 -259 374 -585 578 -935 98 -168 246 -422 330 -565 224 -381
315 -545 430 -780 349 -712 636 -1521 873 -2460 146 -576 263 -1288 336 -2045
65 -659 67 -757 76 -2495 7 -1534 7 -1572 27 -1660 97 -424 382 -681 818 -735
160 -21 762 2 1065 41 114 14 247 59 344 117 142 84 291 252 379 427 103 206
165 536 208 1110 17 232 23 1195 10 1478 -40 806 -110 1575 -246 2687 -114
928 -322 1913 -552 2615 -186 567 -413 1098 -858 2005 -725 1477 -965 1892
-1521 2635 -281 376 -785 926 -1024 1118 -152 122 -307 203 -449 233 -72 15
-221 17 -290 3z m230 -1471 c130 -139 381 -431 480 -558 91 -117 340 -462 426
-590 76 -115 281 -455 387 -645 38 -66 236 -457 441 -870 667 -1341 883 -1848
1080 -2530 129 -449 290 -1213 365 -1732 86 -604 200 -1664 244 -2293 46 -637
50 -747 50 -1245 0 -479 -9 -721 -39 -1005 -22 -214 -27 -247 -35 -261 -9 -13
-276 -36 -288 -25 -3 3 -9 671 -14 1483 -4 813 -10 1503 -13 1533 -3 30 -10
129 -15 220 -51 806 -197 1841 -361 2545 -120 516 -324 1212 -496 1690 -240
666 -523 1281 -837 1823 -537 925 -755 1291 -964 1617 -140 219 -394 590 -518
757 l-72 97 14 43 c8 24 17 49 19 56 10 27 36 7 146 -110z"/>
<path d="M40515 67404 c-292 -35 -940 -160 -1305 -253 -1210 -307 -2212 -738
-3095 -1332 -625 -420 -1060 -830 -1488 -1404 -514 -689 -925 -1483 -1212
-2340 -503 -1506 -805 -3133 -910 -4895 -28 -478 -47 -985 -42 -1095 11 -219
79 -380 224 -535 198 -211 482 -318 1053 -394 569 -76 678 -81 825 -31 242 81
407 260 498 540 68 209 85 298 187 1000 117 800 113 781 305 1510 227 864 343
1237 598 1935 304 831 450 1134 797 1655 319 480 563 785 920 1149 230 234
392 368 671 554 328 219 660 384 1019 507 293 100 575 176 945 255 547 115
610 132 745 200 323 163 493 416 573 855 20 107 22 153 22 420 -1 318 -4 361
-66 780 -32 222 -63 351 -108 450 -61 134 -168 255 -292 330 -78 48 -280 125
-369 141 -96 17 -340 16 -495 -2z m55 -1266 c0 -7 5 -42 10 -78 15 -95 29
-384 23 -466 l-5 -71 -157 -32 c-861 -178 -1390 -343 -1906 -595 -581 -284
-1067 -623 -1491 -1043 -408 -402 -789 -876 -1160 -1438 -380 -577 -589 -1014
-917 -1920 -271 -746 -385 -1116 -621 -2015 -210 -800 -202 -763 -351 -1779
-24 -167 -46 -306 -49 -309 -8 -7 -199 18 -216 28 -12 7 -12 54 -1 287 63
1427 229 2607 537 3837 112 446 307 1089 429 1412 317 838 800 1635 1317 2172
604 628 1608 1215 2703 1581 526 175 959 284 1594 401 228 42 261 46 261 28z"/>
<path d="M7842 67100 c-76 -14 -168 -47 -237 -84 -48 -26 -76 -35 -138 -40
-151 -12 -271 -58 -375 -145 -139 -116 -170 -184 -321 -691 -139 -470 -163
-560 -267 -1005 -72 -308 -77 -338 -78 -445 0 -201 61 -348 203 -490 137 -136
268 -195 536 -241 169 -29 242 -55 765 -281 507 -218 680 -299 931 -433 770
-412 1038 -591 1624 -1079 347 -289 602 -536 946 -916 248 -274 489 -590 766
-1005 114 -171 192 -309 309 -550 195 -400 284 -635 398 -1054 195 -711 297
-1439 346 -2451 13 -272 24 -370 57 -475 112 -357 404 -585 833 -650 203 -31
586 -14 1110 50 246 30 324 46 414 79 225 85 403 279 485 528 84 256 92 549
26 1073 -96 764 -163 1219 -256 1715 -198 1065 -338 1683 -543 2403 -201 702
-414 1293 -602 1669 -189 378 -458 785 -708 1073 -174 199 -491 493 -757 701
-195 153 -593 438 -804 575 -115 76 -329 215 -475 310 -146 95 -434 284 -640
419 -637 418 -739 479 -1175 698 -679 341 -1247 542 -1829 648 -76 14 -150 31
-165 38 -94 49 -272 75 -379 56z m288 -1315 c515 -90 1019 -275 1655 -606 281
-146 440 -244 1010 -619 415 -273 758 -496 1030 -672 183 -118 669 -472 815
-593 303 -254 463 -416 643 -657 367 -491 604 -1045 911 -2128 171 -605 260
-991 435 -1890 127 -654 152 -806 250 -1535 78 -578 96 -735 84 -745 -4 -4
-91 -15 -193 -24 -102 -9 -206 -19 -231 -21 l-46 -5 -7 132 c-53 1033 -187
1890 -421 2693 -135 463 -229 703 -470 1190 -139 280 -227 433 -391 675 -414
616 -735 1008 -1247 1525 -309 312 -499 482 -910 813 -447 359 -736 551 -1292
859 -417 231 -670 359 -965 487 -568 247 -818 354 -905 387 -58 22 -101 44
-103 53 -6 29 183 706 197 706 4 0 72 -11 151 -25z"/>
<path d="M47790 63865 c-46 -21 -96 -70 -123 -120 -21 -40 -22 -48 -28 -783
-3 -408 -8 -745 -11 -747 -5 -5 -227 247 -615 695 -121 140 -305 353 -410 472
-105 120 -222 260 -261 311 -38 51 -84 105 -101 119 -150 127 -377 30 -389
-167 -8 -119 50 -203 460 -671 144 -165 388 -444 540 -620 152 -175 333 -382
401 -459 69 -77 124 -141 122 -143 -4 -4 -561 34 -935 64 -173 14 -336 22
-361 19 -68 -9 -145 -57 -179 -112 -77 -121 -35 -271 93 -337 53 -27 70 -30
330 -51 151 -13 418 -33 593 -44 175 -12 330 -22 343 -24 21 -2 -30 -65 -384
-472 -224 -258 -502 -577 -619 -709 -248 -281 -272 -311 -286 -380 -40 -194
151 -349 331 -269 60 27 179 158 1034 1144 l290 335 7 -251 c4 -137 11 -529
16 -870 8 -614 8 -621 30 -670 45 -98 117 -148 217 -149 109 -1 207 72 236
177 11 41 8 872 -7 1517 l-6 255 49 -50 c26 -28 262 -289 524 -580 540 -601
793 -873 853 -917 60 -43 101 -58 165 -58 133 1 234 102 234 235 0 88 -26 129
-186 295 -138 143 -415 446 -939 1030 -240 268 -262 295 -239 298 14 1 294
-13 621 -33 760 -46 953 -52 1015 -35 28 8 65 30 95 57 131 118 95 321 -72
393 -40 17 -82 22 -246 31 -549 27 -1684 97 -1690 104 -2 2 90 113 205 247
846 985 1166 1367 1194 1425 53 109 14 245 -86 308 -44 27 -57 30 -131 30 -75
0 -86 -3 -125 -30 -24 -17 -81 -75 -127 -130 -200 -238 -529 -624 -808 -951
l-301 -352 5 691 c5 753 4 774 -48 846 -49 67 -101 95 -184 99 -48 1 -82 -3
-106 -13z"/>
<path d="M21480 54579 c-1418 -22 -2022 -46 -4185 -169 -1914 -109 -3044 -213
-3744 -346 -374 -71 -799 -180 -1046 -269 -519 -187 -855 -488 -1095 -980
-273 -560 -430 -1466 -430 -2482 0 -699 102 -1436 257 -1853 74 -201 214 -444
348 -605 83 -101 246 -256 350 -335 402 -302 977 -523 1811 -694 662 -136
1755 -281 2679 -356 568 -46 1951 -120 2255 -120 52 0 100 -4 106 -8 10 -7 36
-333 64 -802 31 -528 87 -1018 151 -1334 89 -437 240 -785 475 -1096 209 -275
425 -447 779 -620 585 -286 1211 -455 2035 -549 155 -18 263 -26 565 -46 44
-3 239 -10 434 -15 195 -5 355 -11 357 -12 1 -2 9 -133 18 -293 86 -1594 95
-4100 31 -8575 -31 -2194 -39 -3421 -27 -4301 12 -781 54 -3147 66 -3705 l6
-251 -332 -7 c-2448 -50 -4728 -254 -6313 -566 -1261 -249 -2369 -620 -3236
-1085 -693 -372 -1284 -806 -1843 -1355 -588 -577 -1023 -1174 -1381 -1895
-163 -326 -242 -515 -345 -825 -210 -628 -305 -1176 -317 -1845 -6 -316 3
-535 33 -790 121 -1053 504 -2019 1173 -2958 591 -830 1375 -1521 2304 -2031
1247 -684 2504 -983 3934 -935 882 29 1678 167 2483 431 1391 455 2487 1194
3229 2177 535 709 954 1673 1205 2773 275 1202 452 2786 566 5043 44 894 66
1518 76 2183 l7 452 116 0 c788 -1 2845 -30 3786 -55 303 -8 697 -17 878 -21
l327 -7 0 -22 c0 -169 136 -1641 205 -2225 137 -1146 204 -1418 426 -1721 68
-92 219 -234 320 -302 303 -201 775 -335 1379 -391 238 -23 785 -39 1082 -33
l266 5 6 -87 c3 -47 8 -149 11 -226 47 -1134 142 -2240 331 -3880 119 -1036
150 -1199 274 -1450 63 -127 125 -209 244 -322 275 -264 643 -422 1266 -547
643 -129 1223 -164 1614 -96 238 42 723 167 971 252 292 100 485 314 565 628
68 266 81 551 79 1700 -2 997 8 1237 77 1820 100 860 252 1484 543 2239 307
796 577 1263 1021 1766 328 370 647 644 1123 963 453 303 765 461 1392 704
616 239 1110 369 1885 497 430 71 670 91 1096 91 653 0 1084 -55 1614 -205
960 -271 1766 -783 2429 -1540 311 -356 616 -835 930 -1462 449 -899 692
-1648 1129 -3488 102 -427 145 -630 202 -950 140 -790 183 -1125 245 -1915 28
-359 58 -504 140 -678 161 -339 441 -563 885 -706 539 -175 1238 -275 2970
-426 1096 -96 1257 -108 1735 -135 735 -41 1933 -83 2875 -101 553 -10 1537
23 2130 72 500 41 1300 169 1657 264 596 159 1098 443 1431 809 388 426 638
897 872 1642 161 515 271 991 389 1694 239 1426 344 2677 327 3920 -15 1200
-103 2097 -312 3205 -138 733 -309 1361 -609 2250 -334 987 -656 1727 -1105
2540 -635 1151 -1505 2364 -2489 3470 -190 213 -647 673 -832 838 -774 684
-1627 1250 -2869 1902 -1002 527 -1810 832 -2650 999 -842 168 -2324 294
-4609 391 -260 11 -478 23 -484 27 -6 3 -137 7 -291 9 -155 1 -418 7 -586 13
-1053 37 -2159 55 -3475 55 -1312 1 -1288 2 -2950 -59 -1191 -44 -1287 -48
-4420 -200 -1143 -55 -1253 -61 -1865 -85 -1539 -62 -2801 -136 -3190 -186
-321 -41 -646 -145 -847 -270 -176 -108 -364 -347 -513 -648 -125 -253 -167
-442 -177 -791 -5 -201 -7 -213 -33 -275 -52 -120 -62 -168 -66 -310 -15 -490
-26 -780 -39 -1020 -21 -401 -43 -987 -56 -1540 -7 -267 -13 -487 -15 -489 -2
-2 -99 -7 -216 -12 -117 -4 -307 -17 -423 -28 -260 -25 -446 -37 -875 -56
-681 -31 -899 -65 -1128 -175 -143 -69 -240 -138 -352 -250 -318 -319 -480
-773 -590 -1654 -68 -543 -114 -1333 -127 -2148 l-6 -418 -66 5 c-36 2 -217 7
-401 10 -184 3 -589 12 -900 20 -793 21 -1641 34 -2737 41 l-943 7 0 164 c0
162 -15 978 -46 2473 -31 1543 -30 3220 6 5530 12 772 27 2153 41 3834 15
1854 -9 3617 -67 4784 -9 183 -15 334 -13 336 2 2 202 9 444 15 852 22 1104
44 1490 126 649 139 1159 355 1725 731 454 301 759 634 955 1039 174 362 258
724 287 1247 18 313 -14 748 -88 1213 -15 94 -27 179 -28 190 -1 19 8 20 159
27 833 38 1507 84 2750 188 1271 107 1785 212 2310 470 230 114 397 230 571
397 272 262 430 525 580 968 114 335 160 536 224 980 23 154 49 332 60 395 67
402 90 825 90 1678 0 918 -28 1238 -135 1558 -93 279 -216 462 -391 582 -33
22 -88 66 -124 97 -99 86 -216 146 -345 175 -168 38 -1582 146 -2955 225 -432
25 -938 54 -1125 65 -187 11 -671 38 -1075 60 -404 22 -958 54 -1230 70 -1212
72 -2379 124 -3875 170 -970 30 -2500 38 -3695 19z m3115 -1479 c1442 -35
2845 -94 4410 -185 424 -25 1135 -65 1580 -90 2071 -115 2836 -162 3720 -230
571 -45 591 -46 604 -55 46 -28 67 -1026 36 -1698 -19 -414 -27 -501 -75 -802
-21 -135 -48 -315 -60 -400 -38 -282 -73 -430 -156 -671 -64 -186 -114 -277
-194 -359 -110 -111 -264 -189 -520 -263 -373 -108 -807 -158 -2530 -291
-1676 -130 -3217 -176 -8300 -247 -1582 -22 -3771 3 -4950 56 -1584 73 -2561
165 -3668 346 -781 128 -1345 293 -1615 473 -228 151 -304 335 -376 916 -32
256 -41 420 -41 745 0 436 25 773 81 1105 74 438 174 738 282 851 70 73 182
116 540 209 577 149 1159 225 2512 330 686 53 2555 161 3525 205 1478 66 3750
90 5195 55z m3619 -6820 c182 -960 145 -1627 -109 -1966 -129 -172 -413 -377
-768 -555 -357 -180 -784 -301 -1192 -339 -360 -33 -1382 -54 -2340 -47 -877
6 -1129 20 -1565 83 -195 28 -535 94 -650 125 -225 61 -560 187 -721 271 -119
62 -181 114 -244 209 -181 270 -238 607 -320 1889 -9 135 -19 278 -22 319 l-6
74 74 -6 c41 -4 434 -9 874 -13 597 -4 1171 -1 2265 15 1556 22 3551 57 4065
70 171 4 383 9 471 9 l161 2 27 -140z m21261 -12460 c542 -10 1125 -23 1619
-36 l239 -7 -7 -136 c-13 -272 -27 -719 -41 -1321 -8 -338 -31 -1009 -50
-1490 -67 -1665 -64 -2020 21 -2480 104 -562 295 -943 743 -1480 390 -466
1069 -1082 1771 -1606 483 -361 1209 -818 2215 -1394 215 -123 552 -319 750
-435 198 -117 513 -301 700 -410 1242 -722 1978 -1200 3510 -2280 555 -392
853 -585 1590 -1030 1487 -900 1566 -948 1810 -1117 224 -155 598 -437 740
-559 163 -139 663 -642 756 -759 230 -290 406 -565 582 -913 l69 -137 -37
-228 c-135 -825 -295 -1464 -495 -1971 -152 -386 -357 -679 -580 -827 -265
-177 -566 -264 -1310 -379 -872 -134 -2063 -173 -3665 -121 -1505 50 -1984 77
-3125 176 -999 87 -1138 100 -1455 135 -759 84 -1190 153 -1462 234 l-68 20
-28 338 c-46 560 -86 882 -173 1408 -112 675 -158 898 -330 1614 -444 1848
-707 2638 -1213 3651 -327 655 -699 1245 -1042 1654 -800 954 -1804 1635
-2970 2014 -568 185 -1107 288 -1683 322 -229 13 -942 13 -1156 0 -299 -19
-660 -69 -1120 -155 -756 -142 -1264 -289 -1980 -574 -696 -278 -1164 -530
-1740 -941 -355 -253 -578 -439 -863 -720 -819 -805 -1296 -1600 -1770 -2951
-294 -835 -468 -1749 -553 -2894 -13 -176 -18 -429 -21 -1278 -4 -975 -6
-1058 -21 -1066 -26 -13 -316 -78 -412 -92 -250 -35 -923 48 -1328 166 -147
42 -189 60 -196 82 -18 60 -153 1196 -230 1938 -134 1283 -210 2472 -246 3855
-5 217 -12 454 -15 525 -3 72 -9 1014 -14 2095 -5 1081 -15 2345 -21 2809 -13
877 -9 1339 25 2756 8 341 19 913 25 1270 17 1061 46 1924 94 2795 2 51 15
109 39 180 53 156 67 274 68 576 0 371 10 518 37 571 26 50 40 59 129 77 236
50 1492 125 3253 196 479 19 1105 48 2260 105 2939 143 4643 212 5805 235 483
9 1726 4 2570 -10z m3995 -130 c1800 -91 2930 -195 3625 -335 622 -125 1245
-354 1990 -730 1171 -592 2054 -1159 2750 -1765 179 -156 629 -608 816 -820
539 -609 1067 -1291 1561 -2015 369 -541 781 -1260 1064 -1855 253 -534 428
-979 674 -1720 235 -705 367 -1185 480 -1749 164 -818 252 -1517 302 -2391 15
-261 17 -1689 2 -1757 l-9 -43 -208 208 c-115 114 -258 252 -319 307 -302 273
-718 591 -1154 882 -264 176 -171 119 -1744 1071 -748 453 -972 598 -1610
1048 -1478 1041 -2199 1509 -3455 2242 -231 135 -598 349 -815 477 -217 128
-555 323 -750 435 -583 333 -1137 670 -1555 944 -984 648 -2039 1626 -2289
2124 -140 279 -180 637 -157 1397 13 409 57 1578 66 1720 5 94 18 551 35 1240
12 499 29 991 36 1064 l6 53 131 -6 c73 -4 310 -16 527 -26z m-19754 -5977
c-28 -991 -33 -2093 -15 -3360 10 -702 28 -4103 22 -4112 -15 -22 -795 -15
-1113 9 -231 18 -571 81 -676 125 -31 13 -32 16 -52 126 -68 367 -199 1524
-276 2434 -78 921 -111 1899 -87 2566 40 1084 102 1737 206 2144 48 191 42
181 117 188 93 10 360 25 633 37 300 13 479 25 760 50 260 24 294 26 404 28
l84 2 -7 -237z m-9980 -4365 c-3 -95 -8 -328 -11 -518 -10 -653 -57 -1750
-115 -2680 -155 -2475 -399 -4011 -807 -5074 -422 -1099 -1015 -1820 -1970
-2395 -764 -459 -1746 -787 -2728 -910 -1195 -150 -2288 -26 -3266 370 -1091
441 -1948 1082 -2579 1929 -835 1121 -1168 2326 -1004 3640 20 168 84 482 133
660 188 681 542 1367 1002 1940 163 204 267 319 469 520 887 888 1943 1471
3410 1884 968 273 2135 466 3685 610 1036 97 2472 172 3698 194 l88 2 -5 -172z"/>
<path d="M41225 30730 c-238 -14 -482 -84 -740 -210 -319 -156 -550 -326 -718
-528 -235 -282 -427 -713 -494 -1108 -26 -154 -26 -561 0 -719 85 -513 289
-937 617 -1279 419 -437 1002 -676 1650 -676 552 0 968 167 1327 531 349 355
569 882 658 1574 23 176 23 490 1 650 -77 550 -315 963 -738 1280 -132 99
-198 137 -408 230 -204 91 -369 146 -537 180 -70 14 -164 37 -208 51 -93 30
-207 37 -410 24z m280 -1280 c167 -32 214 -47 372 -116 128 -55 179 -88 255
-165 101 -103 155 -254 165 -464 6 -137 -5 -246 -47 -457 -61 -302 -150 -508
-275 -634 -87 -87 -165 -128 -289 -149 -117 -20 -191 -19 -328 4 -150 26 -235
53 -342 109 -173 91 -305 231 -401 427 -65 132 -100 260 -116 427 -10 105 -10
139 4 228 27 180 105 378 200 507 100 135 431 311 587 312 36 1 133 -12 215
-29z"/>
<path d="M53562 51644 c-137 -36 -236 -128 -285 -262 -18 -51 -21 -98 -33
-472 -7 -228 -13 -485 -13 -570 l-1 -154 -277 276 c-300 297 -332 322 -458
348 -148 31 -318 -39 -405 -165 -92 -134 -94 -314 -4 -456 15 -24 100 -116
188 -204 293 -291 556 -562 556 -573 0 -6 -14 -9 -32 -7 -18 3 -215 9 -438 15
-223 6 -489 15 -591 21 -207 13 -252 8 -345 -38 -78 -38 -164 -132 -195 -214
-31 -84 -32 -208 -2 -286 31 -77 86 -147 154 -192 114 -76 179 -85 714 -101
204 -5 430 -13 503 -16 l132 -6 -57 -62 c-31 -33 -216 -234 -412 -446 -195
-212 -394 -426 -441 -475 -56 -59 -96 -111 -114 -149 -109 -230 -4 -486 232
-565 115 -39 258 -20 356 49 51 35 248 236 471 480 231 252 448 484 457 488 4
2 7 -394 5 -880 l-2 -883 23 -56 c77 -190 257 -301 440 -271 169 28 294 142
337 308 12 47 15 170 17 693 1 350 4 786 7 970 l6 334 270 -284 c525 -552 909
-965 994 -1069 90 -110 147 -147 265 -177 260 -64 522 185 478 453 -14 86 -60
182 -126 263 -64 80 -239 269 -645 700 -168 179 -337 358 -374 398 l-69 73 54
0 c59 0 547 -25 1263 -66 560 -31 625 -30 717 13 262 123 318 461 109 656 -55
51 -129 92 -193 106 -56 13 -329 30 -1402 86 -473 25 -862 47 -864 50 -5 5
385 425 886 954 178 188 205 229 225 346 45 264 -198 503 -464 456 -123 -21
-156 -45 -374 -266 -110 -111 -324 -335 -475 -497 l-275 -296 -3 122 c-2 66 1
339 8 606 13 549 11 582 -47 692 -56 106 -139 172 -260 203 -70 18 -121 18
-191 -1z"/>
<path d="M45295 46554 c-11 -2 -45 -9 -75 -15 -30 -6 -91 -28 -135 -49 -139
-67 -237 -165 -306 -306 -69 -141 -68 -140 -70 -884 -1 -366 -4 -804 -8 -975
l-6 -310 -179 215 c-415 497 -610 709 -732 796 -284 203 -631 186 -872 -41
-89 -84 -141 -166 -179 -280 -22 -68 -26 -98 -26 -195 0 -97 4 -127 26 -195
42 -127 83 -186 241 -340 79 -77 204 -212 278 -300 325 -385 919 -1097 916
-1100 -7 -6 -1992 165 -2096 181 -203 30 -352 7 -498 -79 -135 -80 -234 -202
-287 -356 -27 -76 -31 -100 -31 -201 -1 -94 3 -129 22 -190 63 -202 213 -362
406 -435 138 -52 232 -64 976 -124 842 -69 1235 -103 1239 -107 3 -3 -13 -23
-35 -47 -23 -23 -128 -143 -236 -267 -107 -124 -376 -434 -597 -690 -222 -256
-471 -541 -555 -634 -167 -187 -204 -234 -247 -318 -69 -137 -92 -326 -54
-468 24 -93 90 -213 154 -282 105 -114 225 -177 386 -204 87 -15 103 -15 190
0 52 9 123 28 157 42 153 64 211 122 768 764 439 506 447 516 619 715 90 104
170 197 179 205 13 13 14 -81 8 -805 -10 -1363 -9 -1739 9 -1819 49 -229 232
-420 470 -492 82 -24 257 -24 340 1 257 77 434 275 480 541 13 75 16 275 21
1334 4 685 9 1334 13 1442 l6 197 308 -360 c392 -457 1716 -2021 1824 -2155
102 -126 166 -183 263 -233 103 -54 185 -74 300 -75 320 0 583 217 646 534 38
194 -14 389 -154 576 -44 58 -1193 1418 -1671 1978 -121 143 -219 261 -218
263 2 1 196 -11 433 -27 1889 -130 2547 -171 2627 -167 238 15 448 156 552
372 55 112 69 186 63 318 -15 309 -228 550 -543 613 -38 8 -542 46 -1120 84
-2073 138 -2550 171 -2573 176 -13 3 -22 9 -20 13 2 7 228 253 563 615 5 6 62
67 125 136 63 69 117 127 120 130 5 4 71 75 255 276 52 57 377 407 435 469
442 474 501 550 562 731 20 59 23 88 22 199 0 113 -4 139 -27 203 -36 104 -81
175 -162 256 -198 199 -502 248 -755 121 -93 -47 -160 -104 -263 -224 -49 -58
-277 -308 -506 -556 -229 -247 -556 -600 -725 -783 -170 -183 -310 -331 -313
-329 -2 3 1 429 7 948 12 990 8 1314 -17 1439 -60 304 -308 520 -612 535 -47
2 -95 2 -106 -1z"/>
<path d="M45740 22373 c-88 -10 -476 -90 -671 -139 -534 -134 -844 -233 -1474
-469 -545 -204 -688 -264 -985 -410 -419 -208 -687 -368 -899 -539 -390 -313
-812 -779 -1108 -1221 -216 -323 -627 -1070 -737 -1340 -148 -363 -262 -831
-313 -1275 -25 -222 -25 -925 0 -1230 52 -618 142 -1134 357 -2050 162 -685
282 -1082 484 -1587 425 -1071 898 -1718 1591 -2183 614 -411 1540 -708 2465
-792 218 -19 941 -16 1190 5 805 70 1599 255 2381 555 663 255 1474 730 1954
1144 361 313 786 829 1029 1252 420 730 706 1779 766 2811 13 217 13 747 0
980 -58 1073 -272 2178 -575 2980 -214 565 -561 1197 -933 1699 -355 479 -845
938 -1277 1195 -311 185 -530 278 -875 371 -352 95 -602 132 -1405 211 -302
29 -829 47 -965 32z m785 -1497 c772 -77 962 -104 1233 -181 359 -103 620
-265 948 -589 336 -333 613 -728 874 -1246 225 -447 334 -752 469 -1310 211
-869 304 -1992 231 -2785 -58 -636 -262 -1377 -506 -1845 -175 -334 -551 -791
-843 -1026 -336 -270 -938 -617 -1367 -788 -633 -252 -1342 -426 -1984 -486
-329 -31 -881 -29 -1162 5 -481 58 -1098 242 -1438 427 -445 244 -746 589
-1031 1183 -234 490 -401 980 -568 1665 -253 1040 -350 1638 -370 2288 -16
506 15 819 120 1196 76 276 153 445 408 898 173 308 252 437 365 597 206 290
534 637 772 816 154 117 561 336 859 463 171 73 1002 384 1175 440 339 110
843 242 922 242 65 0 208 24 268 45 37 13 82 14 260 10 118 -2 283 -11 365
-19z"/>
<path d="M45620 19119 c-395 -45 -710 -107 -970 -191 -580 -188 -1037 -461
-1425 -852 -421 -423 -712 -1007 -800 -1603 -95 -644 11 -1447 280 -2133 212
-539 552 -962 991 -1233 643 -394 1520 -573 2243 -457 612 99 1256 434 1717
894 197 197 330 372 484 636 231 398 348 718 439 1209 62 329 66 372 66 816 0
433 -5 509 -51 765 -65 360 -207 733 -418 1099 -218 377 -412 588 -697 759
-115 69 -198 106 -356 158 -265 88 -499 120 -970 134 -363 11 -428 11 -533 -1z
m654 -1479 c299 -17 428 -50 501 -127 49 -51 188 -290 246 -423 98 -227 135
-393 151 -686 19 -338 -5 -599 -88 -943 -54 -228 -150 -442 -299 -665 -225
-337 -690 -628 -1110 -692 -130 -21 -354 -13 -525 16 -312 55 -649 196 -798
335 -172 160 -298 422 -397 828 -63 257 -79 389 -79 677 -1 281 8 353 65 524
113 339 330 607 660 814 171 108 469 227 691 276 114 25 360 63 453 69 112 8
370 6 529 -3z"/>
</g>
</svg>
