<?xml version="1.0" standalone="no"?>
<!DOCTYPE svg PUBLIC "-//W3C//DTD SVG 20010904//EN"
 "http://www.w3.org/TR/2001/REC-SVG-20010904/DTD/svg10.dtd">
<svg version="1.0" xmlns="http://www.w3.org/2000/svg"
 width="7647.000000pt" height="8073.000000pt" viewBox="0 0 7647.000000 8073.000000"
 preserveAspectRatio="xMidYMid meet">

<g transform="translate(0.000000,8073.000000) scale(0.100000,-0.100000)"
fill="#6e917d" stroke="none">
<path d="M39735 68519 c-267 -14 -542 -68 -1036 -204 -756 -208 -1374 -499
-2134 -1006 -731 -488 -1076 -827 -1525 -1499 -235 -351 -479 -791 -600 -1079
-202 -481 -314 -1074 -327 -1729 -9 -452 35 -875 148 -1421 160 -770 433
-1417 894 -2116 480 -727 998 -1224 1680 -1610 559 -318 1353 -583 2007 -671
156 -21 636 -30 825 -15 335 27 886 110 1263 191 655 141 1353 403 1832 687
481 284 890 619 1202 983 578 675 944 1449 1146 2427 89 431 128 804 137 1298
10 561 -24 944 -128 1485 -80 409 -237 947 -365 1247 -107 250 -309 630 -448
843 -243 371 -494 672 -741 888 -337 295 -479 408 -726 573 -387 258 -716 405
-1211 538 -273 74 -427 105 -623 126 -82 9 -213 25 -291 36 -268 37 -624 47
-979 28z m800 -1238 c77 -11 208 -27 290 -36 177 -19 278 -40 515 -105 339
-93 557 -192 828 -373 195 -131 196 -132 465 -361 257 -218 391 -368 592 -661
136 -199 306 -509 398 -725 134 -318 273 -837 341 -1280 99 -639 84 -1344 -40
-1975 -145 -736 -402 -1332 -779 -1805 -253 -317 -458 -503 -809 -735 -280
-184 -439 -267 -747 -388 -430 -170 -816 -273 -1349 -361 -651 -108 -1018
-122 -1394 -55 -156 28 -401 92 -601 156 -1056 341 -1702 880 -2279 1906 -266
471 -405 847 -516 1392 -125 615 -148 1070 -79 1590 71 532 185 846 493 1359
300 499 534 800 806 1040 317 279 903 662 1368 895 352 176 642 283 1097 406
327 88 501 123 686 135 202 13 549 4 714 -19z"/>
<path d="M39510 66283 c-315 -34 -1029 -306 -1409 -537 -468 -285 -888 -659
-1195 -1065 -150 -198 -293 -434 -381 -631 -97 -215 -209 -597 -256 -870 -17
-100 -20 -151 -16 -255 9 -231 66 -366 221 -521 123 -123 217 -185 604 -395
215 -117 259 -132 383 -127 87 3 103 7 174 42 163 81 241 192 361 521 65 179
231 489 362 680 229 333 526 614 887 840 152 96 453 246 680 340 324 134 419
188 501 286 104 125 139 283 110 504 -8 66 -23 185 -31 265 -24 212 -62 467
-80 526 -44 150 -181 266 -340 289 -28 5 -66 19 -85 32 -87 59 -315 95 -490
76z m173 -830 c15 -72 39 -355 31 -362 -5 -4 -72 -34 -149 -66 -919 -382
-1555 -906 -1998 -1645 -69 -114 -274 -506 -288 -548 -3 -10 -32 2 -100 42
-132 77 -130 75 -118 166 15 104 82 367 130 508 125 366 407 772 746 1074 344
308 659 507 1047 663 332 133 528 194 632 195 59 0 62 -1 67 -27z"/>
<path d="M54680 65063 c-283 -27 -395 -48 -580 -109 -371 -122 -648 -330 -846
-635 -52 -79 -152 -279 -195 -386 -50 -127 -98 -329 -109 -465 -5 -68 -14
-141 -19 -163 -17 -70 -34 -317 -28 -416 16 -266 112 -541 270 -774 81 -119
276 -314 387 -387 225 -148 505 -246 792 -277 141 -16 414 -13 558 4 452 56
865 249 1232 577 258 232 465 604 550 990 20 93 23 130 23 373 0 244 -3 280
-23 375 -71 323 -203 572 -416 785 -63 63 -151 138 -204 174 -223 151 -568
276 -897 326 -91 14 -390 19 -495 8z m454 -1247 c114 -31 239 -86 278 -122 14
-14 38 -53 53 -87 23 -49 28 -79 33 -168 6 -126 -7 -203 -49 -302 -57 -135
-129 -216 -278 -312 -167 -108 -306 -153 -501 -162 -221 -10 -369 27 -456 112
-78 77 -88 119 -80 314 12 258 76 481 172 598 113 138 542 205 828 129z"/>
<path d="M46692 64299 c-171 -25 -348 -141 -450 -293 -66 -99 -93 -178 -99
-296 -7 -118 10 -207 80 -420 43 -132 56 -161 91 -199 88 -95 177 -127 331
-118 117 6 206 31 318 90 143 73 292 237 353 387 62 153 52 338 -28 500 -33
68 -58 102 -127 170 -150 148 -297 204 -469 179z m174 -344 c54 -32 121 -106
147 -163 30 -70 30 -181 -2 -246 -64 -129 -218 -240 -351 -252 l-65 -6 -43 71
c-51 85 -92 228 -92 319 0 106 62 201 172 266 85 50 160 53 234 11z"/>
<path d="M28759 62649 c-628 -82 -1244 -408 -1641 -869 -298 -344 -528 -814
-608 -1239 -91 -484 -27 -979 187 -1449 261 -570 699 -1009 1212 -1212 436
-173 1007 -195 1520 -59 622 164 1199 583 1571 1139 252 378 389 730 452 1165
21 145 17 654 -5 780 -69 381 -157 624 -310 852 -272 406 -583 640 -1012 762
-130 37 -387 96 -476 110 -262 42 -658 51 -890 20z m636 -1220 c84 -11 283
-55 397 -88 101 -29 163 -68 237 -147 112 -121 150 -202 198 -427 27 -125 24
-445 -6 -584 -84 -397 -361 -785 -722 -1011 -362 -228 -853 -284 -1178 -136
-327 150 -600 592 -628 1019 -20 315 145 718 401 977 174 176 411 308 686 380
134 35 414 43 615 17z"/>
<path d="M22590 61178 c-91 -62 -99 -138 -30 -283 52 -111 241 -577 236 -582
-2 -2 -57 22 -122 55 -66 32 -226 110 -357 172 -226 107 -240 112 -285 106
-116 -15 -177 -136 -121 -236 29 -51 74 -78 321 -196 270 -128 418 -203 417
-212 0 -4 -176 -94 -391 -201 -215 -106 -406 -207 -425 -224 -45 -40 -63 -76
-63 -130 0 -80 64 -146 148 -155 48 -4 62 2 503 222 250 125 455 223 457 217
2 -6 -20 -168 -48 -361 -59 -398 -59 -418 -3 -481 62 -68 150 -74 221 -14 44
37 57 80 87 298 16 108 31 197 35 197 3 0 26 -48 49 -107 106 -261 146 -323
224 -344 100 -27 201 53 199 157 0 25 -17 80 -46 146 -75 172 -155 368 -150
368 3 0 100 -49 218 -110 242 -125 275 -135 345 -98 52 27 79 60 90 109 15 67
-15 134 -77 174 -17 11 -162 87 -321 170 -160 82 -291 152 -291 155 0 3 158
82 351 175 421 204 440 219 427 340 -10 88 -79 141 -172 132 -40 -3 -122 -39
-374 -161 -178 -87 -326 -155 -329 -152 -7 7 39 380 68 547 10 64 19 135 19
159 0 143 -159 221 -264 129 -48 -42 -60 -80 -92 -291 -15 -104 -31 -185 -35
-180 -3 4 -21 45 -39 92 -56 142 -140 323 -166 358 -34 43 -73 62 -132 62 -34
0 -59 -7 -82 -22z"/>
<path d="M48314 60021 c-22 -10 -50 -31 -62 -46 -23 -28 -25 -35 -63 -190 -12
-49 -55 -193 -96 -319 l-75 -229 -77 209 c-77 206 -166 428 -198 492 -25 50
-68 75 -132 80 -46 3 -62 0 -90 -20 -61 -41 -76 -71 -75 -146 1 -58 8 -84 59
-202 31 -74 84 -207 116 -295 33 -88 64 -170 69 -183 6 -13 10 -27 10 -32 0
-5 -105 43 -233 105 -248 120 -299 140 -344 129 -75 -18 -133 -86 -133 -156 1
-46 32 -111 66 -135 16 -11 152 -80 303 -154 l274 -134 -144 -68 c-210 -100
-372 -171 -471 -206 -48 -16 -99 -38 -113 -47 -65 -43 -87 -149 -42 -214 40
-59 71 -75 145 -74 89 1 226 55 655 257 64 31 117 55 117 53 0 -1 -40 -136
-90 -300 -99 -329 -115 -399 -106 -448 16 -83 79 -138 159 -138 89 0 148 52
167 147 16 77 109 396 119 406 4 4 51 -129 106 -295 54 -167 107 -320 119
-341 59 -109 227 -105 279 6 33 69 24 108 -109 509 -69 209 -124 381 -122 383
2 2 62 -28 133 -67 287 -154 538 -277 581 -284 68 -10 113 3 155 45 44 43 57
94 40 151 -18 62 -49 90 -149 136 -113 53 -662 342 -680 359 -10 9 48 40 270
145 740 350 784 374 814 447 32 75 1 169 -66 204 -56 30 -116 25 -196 -18 -80
-42 -827 -399 -854 -408 -15 -5 -5 33 56 222 163 503 170 596 44 661 -53 27
-82 27 -136 3z"/>
<path d="M52530 59514 c-165 -34 -322 -98 -435 -179 -131 -93 -227 -232 -265
-381 -11 -44 -32 -101 -46 -128 -72 -132 -70 -267 5 -414 80 -155 242 -288
412 -338 80 -24 200 -34 292 -24 232 24 404 106 558 266 168 176 236 348 226
567 -8 191 -63 313 -202 452 -87 87 -164 133 -270 160 -61 17 -230 28 -275 19z
m246 -347 c57 -29 122 -95 156 -159 20 -37 23 -57 23 -153 0 -105 -2 -114 -34
-179 -19 -40 -59 -96 -96 -134 -117 -124 -232 -172 -412 -174 -93 0 -107 2
-167 30 -69 32 -143 98 -171 152 -16 32 -16 32 19 66 48 47 63 99 47 167 -31
125 52 253 219 341 150 79 312 96 416 43z"/>
<path d="M23410 56274 c-19 -2 -134 -16 -255 -30 -1440 -164 -2378 -435 -3555
-1024 -801 -400 -1433 -808 -2095 -1351 -842 -691 -1472 -1372 -2014 -2178
-313 -465 -636 -1063 -899 -1661 -656 -1496 -932 -3293 -786 -5125 89 -1123
315 -2246 657 -3277 299 -899 677 -1681 1280 -2648 506 -812 972 -1406 1576
-2010 539 -539 1103 -979 1711 -1334 354 -208 857 -442 1284 -597 1689 -617
3787 -770 5916 -433 1481 234 2722 673 3910 1382 905 541 1777 1305 2506 2197
767 938 1337 1930 1774 3085 302 797 525 1659 694 2675 190 1143 229 2229 116
3240 -100 886 -280 1736 -565 2655 -245 793 -572 1480 -1040 2185 -324 489
-616 837 -1116 1330 -442 436 -755 688 -1311 1056 -497 329 -1015 605 -1548
824 -483 199 -1326 440 -2135 610 -148 31 -389 83 -535 115 -1012 224 -1536
279 -2660 280 -305 1 -386 4 -435 16 -59 15 -393 28 -475 18z m1560 -2104
c547 -24 850 -65 1470 -201 151 -33 412 -89 580 -125 327 -69 695 -158 1065
-259 834 -227 1478 -533 2215 -1053 320 -226 491 -372 816 -697 396 -396 621
-671 860 -1050 374 -594 593 -1094 809 -1850 177 -619 290 -1158 370 -1760 64
-489 79 -749 72 -1265 -9 -625 -49 -1056 -158 -1705 -205 -1215 -510 -2189
-985 -3136 -401 -802 -998 -1620 -1645 -2254 -746 -730 -1527 -1234 -2557
-1651 -1299 -525 -3202 -778 -4777 -633 -1268 116 -2327 439 -3180 972 -634
395 -1227 936 -1769 1613 -524 655 -1150 1703 -1480 2477 -410 963 -699 2167
-806 3355 -59 666 -52 1357 20 2007 95 846 322 1674 655 2395 458 990 930
1672 1637 2365 717 703 1525 1270 2447 1718 785 380 1438 580 2311 707 197 29
228 31 385 25 93 -3 193 -2 220 3 69 13 1137 14 1425 2z"/>
<path d="M24675 52944 c-11 -3 -45 -13 -75 -23 -38 -13 -98 -21 -195 -25 -230
-9 -470 -58 -836 -171 -495 -152 -1052 -376 -1606 -645 -809 -393 -1778 -1016
-2501 -1608 -804 -658 -1298 -1205 -1614 -1787 -239 -438 -439 -1007 -552
-1562 -131 -640 -188 -1896 -110 -2421 68 -461 317 -743 754 -851 97 -24 675
-127 765 -136 181 -19 369 87 462 261 68 127 96 246 148 619 154 1114 225
1503 362 1960 97 325 357 932 523 1220 313 544 802 1044 1420 1450 370 243
602 376 995 570 293 144 468 221 724 317 402 151 524 190 1086 342 289 78 478
142 604 202 122 59 213 147 264 255 85 180 86 291 7 774 -48 292 -65 420 -86
635 -8 91 -22 198 -30 239 -30 160 -118 282 -250 347 -62 31 -84 37 -156 40
-45 1 -92 1 -103 -2z m-231 -986 c10 -73 35 -240 57 -371 21 -130 39 -243 39
-251 0 -15 -126 -54 -455 -142 -439 -117 -624 -176 -1055 -339 -271 -102 -486
-198 -820 -364 -414 -207 -688 -366 -1075 -624 -716 -477 -1285 -1072 -1656
-1733 -122 -217 -262 -523 -409 -890 -129 -321 -200 -552 -288 -939 -80 -345
-105 -489 -197 -1130 -48 -330 -89 -602 -91 -605 -7 -6 -261 38 -353 61 -124
32 -141 52 -160 193 -52 370 -23 1272 60 1881 80 595 325 1306 604 1755 75
121 234 332 361 480 391 455 1037 1007 1739 1487 814 557 1502 932 2331 1269
525 213 1109 389 1305 393 l46 1 17 -132z"/>
<path d="M49561 55385 c-52 -7 -230 -21 -395 -29 -618 -34 -887 -76 -1325
-207 -315 -95 -837 -295 -1181 -452 -931 -424 -1939 -1047 -2494 -1541 -325
-288 -710 -738 -970 -1135 -499 -759 -899 -1827 -1005 -2681 -38 -308 -46
-454 -46 -915 0 -548 15 -750 91 -1214 122 -745 293 -1389 521 -1966 387 -979
852 -1760 1432 -2408 318 -355 607 -598 1101 -926 696 -463 1139 -688 1735
-884 629 -207 1140 -320 1690 -373 227 -22 935 -30 1214 -15 669 38 1426 142
1941 267 589 143 1210 374 1642 612 565 310 1086 728 1476 1182 503 586 821
1147 1181 2084 275 716 427 1234 572 1954 174 864 227 1428 216 2292 -11 859
-69 1368 -233 2023 -160 639 -540 1431 -902 1882 -69 85 -546 571 -692 703
-107 97 -423 354 -561 454 -251 185 -669 399 -1524 778 -448 198 -600 241
-1225 344 -589 97 -787 119 -1305 142 -181 8 -384 19 -450 25 -216 16 -405 18
-504 4z m804 -1453 c502 -21 712 -45 1294 -143 495 -83 492 -82 1226 -419 378
-173 650 -310 770 -388 199 -129 480 -369 764 -652 150 -149 296 -305 327
-345 129 -176 264 -417 367 -660 165 -389 209 -530 286 -907 86 -422 117 -755
128 -1378 13 -824 -52 -1415 -258 -2338 -175 -780 -562 -1826 -887 -2397 -172
-302 -469 -686 -703 -910 -170 -163 -438 -367 -678 -518 -482 -301 -1217 -556
-1951 -676 -591 -97 -1104 -141 -1625 -141 -636 0 -1022 54 -1625 226 -660
189 -1025 361 -1680 791 -545 359 -819 615 -1187 1114 -383 516 -764 1284
-997 2009 -130 404 -282 1113 -330 1545 -47 414 -47 953 0 1370 63 565 326
1330 655 1905 248 434 642 901 999 1185 832 662 2243 1385 3162 1619 227 58
377 78 704 96 115 6 277 15 359 19 188 11 517 8 880 -7z"/>
<path d="M49618 52519 c-236 -31 -822 -207 -1148 -344 -451 -190 -1026 -541
-1475 -900 -769 -616 -1209 -1304 -1480 -2315 -183 -683 -223 -1183 -124
-1565 89 -345 349 -592 778 -739 223 -77 527 -157 616 -163 220 -15 397 111
481 340 12 35 46 171 74 303 58 269 113 457 228 784 99 282 153 410 243 575
152 280 307 483 569 746 402 404 704 572 1529 854 439 149 530 194 635 306
218 236 252 502 161 1239 -27 219 -86 553 -109 618 -37 105 -123 195 -233 244
-47 21 -123 27 -273 20 -25 -1 -126 0 -225 2 -99 2 -210 0 -247 -5z m267 -811
c15 -63 56 -462 62 -594 l6 -151 -59 -23 c-32 -12 -169 -59 -304 -105 -676
-230 -1033 -405 -1399 -685 -291 -222 -623 -569 -847 -883 -159 -222 -330
-540 -433 -802 -93 -237 -246 -702 -299 -907 l-47 -187 -100 33 c-173 56 -263
111 -289 175 -40 101 -45 344 -11 579 45 318 158 751 272 1052 277 727 690
1214 1473 1737 569 380 936 548 1571 719 170 46 251 60 346 63 47 1 53 -1 58
-21z"/>
<path d="M38515 54979 c-121 -14 -355 -64 -493 -104 -188 -55 -331 -111 -522
-207 -923 -461 -1521 -1257 -1652 -2198 -19 -140 -16 -478 5 -620 115 -754
572 -1398 1282 -1802 401 -228 745 -332 1145 -345 596 -19 1201 174 1630 520
113 91 271 249 371 370 324 394 520 838 606 1372 23 141 26 659 5 800 -24 155
-71 388 -102 498 -116 415 -401 914 -677 1185 -169 166 -439 331 -648 396 -49
15 -119 43 -155 61 -141 72 -177 78 -460 81 -140 1 -291 -2 -335 -7z m295
-1245 c70 -45 186 -81 286 -90 65 -6 86 -12 121 -37 110 -78 303 -394 378
-620 92 -276 119 -658 65 -930 -69 -353 -277 -700 -539 -897 -196 -149 -478
-235 -766 -234 -129 1 -164 5 -250 28 -126 33 -334 133 -484 233 -386 257
-603 677 -561 1087 34 334 192 658 445 911 304 305 692 506 1100 570 126 20
144 18 205 -21z"/>
<path d="M38696 46295 c-139 -29 -275 -88 -374 -163 -71 -53 -158 -156 -178
-212 -9 -25 -29 -70 -43 -100 -24 -50 -26 -65 -25 -180 1 -160 24 -253 104
-415 69 -141 139 -230 247 -316 143 -114 226 -138 409 -120 59 6 137 18 173
27 384 96 694 449 694 789 0 303 -226 569 -570 671 -110 33 -326 42 -437 19z
m329 -320 c143 -37 280 -136 331 -241 94 -192 -68 -468 -341 -581 -56 -24
-129 -39 -226 -49 -86 -8 -122 9 -209 96 -109 109 -190 296 -190 441 0 50 4
62 30 91 17 18 36 50 42 71 13 44 58 87 126 121 49 24 129 52 172 59 62 10
210 6 265 -8z"/>
<path d="M39955 43724 c-16 -3 -64 -11 -105 -19 -63 -11 -85 -11 -140 1 -185
39 -489 -11 -758 -127 -202 -87 -405 -210 -602 -365 -47 -37 -164 -146 -260
-243 -569 -570 -790 -1057 -790 -1736 0 -650 209 -1181 631 -1605 177 -178
359 -308 596 -428 365 -185 675 -269 1028 -279 543 -16 1113 138 1523 411 453
302 788 810 916 1388 143 646 103 1187 -128 1735 -135 320 -393 668 -647 874
-329 266 -647 384 -1064 394 -93 2 -183 1 -200 -1z m259 -1229 c143 -27 258
-110 381 -275 230 -310 305 -668 230 -1105 -49 -288 -133 -476 -284 -637 -153
-163 -342 -254 -643 -308 -242 -43 -395 -37 -582 25 -293 96 -506 245 -640
449 -108 164 -150 329 -150 591 0 189 17 287 72 408 101 223 422 569 669 724
l76 47 121 0 c120 1 190 11 486 67 175 33 170 33 264 14z"/>
<path d="M55375 40420 c-176 -15 -336 -41 -470 -75 -306 -78 -582 -196 -713
-304 -83 -68 -106 -94 -128 -148 -9 -21 -30 -57 -46 -81 -123 -178 -198 -532
-198 -930 0 -302 35 -473 140 -689 126 -258 318 -459 534 -558 246 -114 621
-145 941 -79 266 54 587 217 820 414 340 288 547 785 547 1310 -1 493 -205
827 -626 1026 -199 94 -516 139 -801 114z m367 -325 c205 -27 333 -76 468
-180 193 -148 270 -328 271 -630 1 -365 -106 -697 -302 -937 -183 -224 -530
-427 -827 -484 -261 -50 -597 -14 -767 81 -208 117 -385 392 -430 670 -22 136
-20 427 5 597 36 247 73 361 147 458 19 25 41 59 48 77 25 59 136 124 336 198
366 135 751 190 1051 150z"/>
<path d="M43890 39054 c-635 -53 -1094 -149 -1760 -366 -397 -130 -769 -274
-1135 -440 -1020 -464 -1961 -1080 -2835 -1856 -206 -184 -640 -611 -855 -842
-826 -888 -1376 -1698 -1980 -2915 -392 -789 -641 -1439 -845 -2200 -172 -643
-271 -1211 -320 -1835 -18 -222 -24 -812 -11 -1050 65 -1195 335 -2481 748
-3570 311 -821 642 -1518 1020 -2150 453 -757 1121 -1616 1771 -2282 1025
-1047 2235 -1915 3317 -2380 935 -401 1740 -608 2715 -695 247 -22 1097 -25
1370 -5 684 51 1325 147 1895 282 1159 275 2460 846 3513 1542 1616 1069 2946
2455 3834 3998 506 878 887 1853 1112 2841 161 710 289 1645 341 2499 53 863
41 1636 -36 2315 -41 365 -114 833 -189 1205 -199 986 -562 1912 -1073 2730
-446 715 -804 1162 -1324 1652 -499 470 -737 653 -1608 1235 -664 445 -1495
896 -2160 1173 -526 219 -1368 479 -2350 724 -778 194 -1328 285 -1990 331
-126 9 -300 26 -385 37 -125 18 -211 22 -445 24 -159 1 -310 0 -335 -2z m659
-2104 c88 -17 138 -20 315 -19 219 1 327 -8 666 -57 540 -78 1270 -257 2250
-551 722 -216 1133 -394 1915 -831 382 -213 635 -374 1215 -776 399 -276 673
-508 1030 -872 302 -309 568 -667 872 -1174 351 -585 608 -1286 753 -2055 156
-827 206 -1444 185 -2288 -16 -631 -46 -1023 -121 -1606 -140 -1095 -340
-1840 -723 -2704 -325 -732 -807 -1466 -1431 -2182 -184 -211 -668 -695 -875
-876 -978 -856 -1863 -1401 -3035 -1869 -906 -363 -1950 -562 -3020 -577 -507
-7 -767 11 -1190 82 -779 132 -1554 419 -2239 828 -847 505 -1781 1310 -2452
2112 -758 907 -1241 1702 -1678 2764 -308 749 -484 1339 -625 2096 -228 1222
-214 2187 49 3271 193 798 466 1506 890 2314 528 1005 974 1622 1740 2404 631
644 1270 1142 2050 1600 222 131 738 385 993 491 489 202 1004 369 1376 445
177 36 197 37 334 20 119 -15 279 -4 367 25 61 20 253 13 389 -15z"/>
<path d="M44890 35274 c-19 -2 -80 -9 -135 -15 -366 -39 -900 -191 -1397 -398
-843 -350 -1574 -708 -2133 -1044 -838 -503 -1431 -978 -2009 -1608 -684 -746
-1049 -1342 -1326 -2167 -122 -364 -229 -860 -277 -1283 -21 -193 -25 -832 -5
-1034 26 -274 80 -561 138 -737 76 -231 254 -367 540 -413 124 -21 455 -38
630 -33 125 3 158 8 207 27 114 45 220 150 274 270 60 134 78 285 93 776 10
331 27 488 91 815 96 494 268 971 539 1497 170 331 333 583 561 869 319 400
484 552 943 868 513 354 926 587 1476 836 604 272 1043 414 1810 585 429 96
607 142 680 176 276 128 382 395 366 924 -10 313 -26 564 -41 636 -32 158
-116 261 -288 353 -164 87 -218 98 -482 101 -121 2 -236 1 -255 -1z m254 -886
c9 -134 7 -416 -3 -422 -5 -3 -141 -35 -302 -72 -970 -217 -1454 -375 -2199
-721 -602 -280 -1064 -552 -1635 -961 -440 -316 -700 -575 -1070 -1067 -229
-305 -368 -531 -560 -910 -467 -924 -680 -1765 -698 -2750 l-2 -130 -35 -3
c-19 -2 -63 -1 -97 3 -62 6 -63 7 -73 43 -19 66 -49 274 -61 417 -14 179 -14
641 1 810 23 267 116 750 195 1015 167 559 404 1028 755 1495 326 433 828 947
1280 1312 367 295 928 658 1470 948 427 229 1292 626 1735 795 465 178 908
282 1226 289 l66 1 7 -92z"/>
<path d="M54328 36654 c-168 -40 -270 -143 -304 -304 -15 -73 -12 -98 28 -255
25 -98 113 -187 225 -227 46 -16 76 -19 144 -16 73 3 96 9 163 41 182 86 301
292 267 459 -46 220 -287 360 -523 302z m189 -338 c24 -28 22 -43 -9 -89 -23
-32 -67 -57 -103 -57 -22 0 -25 4 -25 33 0 18 -9 49 -20 70 -11 20 -20 39 -20
42 0 3 15 13 33 21 48 22 116 12 144 -20z"/>
<path d="M32744 34540 c-46 -10 -92 -46 -113 -88 -16 -32 -54 -185 -102 -405
-7 -32 -15 -54 -19 -50 -4 4 -38 84 -75 177 -38 93 -78 183 -89 199 -48 70
-148 92 -218 49 -42 -26 -78 -92 -78 -143 0 -20 35 -122 85 -243 47 -115 83
-212 80 -214 -3 -3 -94 39 -204 92 -226 112 -261 120 -330 84 -108 -56 -127
-178 -41 -258 24 -22 133 -80 299 -160 l261 -124 -63 -29 c-191 -88 -453 -199
-513 -218 -116 -37 -166 -89 -166 -174 0 -92 73 -165 166 -165 58 0 211 59
529 202 98 44 180 78 183 75 3 -3 -7 -63 -21 -134 -36 -172 -39 -196 -25 -237
14 -45 69 -93 116 -102 82 -15 176 48 203 137 l13 44 24 -46 c42 -83 108 -120
189 -105 43 8 94 50 111 93 27 64 18 103 -71 317 l-15 36 72 -34 c40 -19 104
-48 141 -66 58 -28 76 -32 123 -28 92 8 148 69 147 160 -1 86 -32 118 -189
194 -75 37 -132 70 -127 74 4 3 94 42 198 84 272 112 292 122 322 167 75 114
-17 260 -155 247 -29 -3 -151 -48 -316 -117 -147 -62 -270 -110 -273 -107 -5
4 39 212 104 495 45 196 40 235 -39 294 -38 28 -80 37 -124 27z"/>
<path d="M18035 34369 c-297 -38 -786 -230 -1234 -486 -241 -138 -260 -151
-361 -247 -47 -45 -125 -115 -173 -156 -319 -272 -545 -726 -596 -1202 -24
-214 -8 -505 40 -725 99 -458 355 -954 669 -1299 374 -409 914 -711 1447 -809
135 -25 403 -30 550 -11 406 54 816 230 1143 492 112 91 340 318 424 424 259
327 436 721 511 1140 23 128 31 434 15 586 -39 389 -142 719 -328 1059 -118
213 -234 367 -426 563 -282 287 -566 476 -866 575 -274 91 -574 126 -815 96z
m295 -1223 c181 -33 303 -102 478 -270 174 -167 283 -333 365 -556 73 -196
103 -457 73 -630 -33 -185 -117 -389 -218 -525 -28 -38 -97 -115 -152 -171
-157 -157 -296 -245 -474 -303 -248 -81 -412 -62 -697 79 -278 138 -467 317
-619 589 -220 392 -264 768 -122 1049 19 37 48 84 65 105 62 78 353 295 506
378 176 95 445 208 579 244 106 28 117 29 216 11z"/>
<path d="M27905 32610 c-417 -26 -593 -32 -662 -21 -134 21 -240 11 -350 -33
-43 -18 -88 -25 -173 -30 -245 -15 -687 -81 -1018 -152 -877 -188 -1749 -567
-2571 -1118 -799 -536 -1385 -1137 -1823 -1871 -395 -662 -615 -1304 -695
-2025 -22 -195 -25 -816 -5 -1015 96 -971 348 -1754 844 -2615 477 -827 976
-1405 1647 -1904 543 -404 1141 -712 1711 -880 439 -129 915 -212 1415 -247
215 -15 785 -6 1025 15 546 50 957 132 1405 281 731 243 1298 581 1980 1181
357 314 754 775 992 1153 208 329 448 867 610 1361 122 375 227 842 267 1195
60 512 38 1424 -45 1950 -63 399 -199 930 -359 1400 -273 803 -505 1314 -795
1750 -232 350 -490 620 -850 890 -183 138 -533 348 -740 446 -268 126 -660
225 -1050 264 -123 13 -627 38 -645 33 -3 -1 -54 -4 -115 -8z m565 -1235 c244
-21 458 -64 634 -124 136 -48 493 -257 666 -392 499 -388 787 -885 1174 -2029
123 -361 231 -768 290 -1090 83 -453 107 -1288 51 -1750 -65 -532 -271 -1185
-551 -1750 -95 -190 -162 -300 -279 -456 -352 -469 -769 -858 -1291 -1201
-523 -344 -1129 -551 -1849 -632 -760 -86 -1459 -32 -2145 166 -605 174 -1286
581 -1789 1068 -567 548 -1120 1472 -1366 2280 -218 715 -263 1533 -119 2170
96 429 303 895 585 1318 425 636 1073 1187 1944 1654 388 209 884 407 1270
508 379 100 845 176 1200 196 104 5 249 17 320 25 123 13 252 23 550 43 213
13 529 12 705 -4z"/>
<path d="M26865 30464 c-246 -52 -705 -213 -1240 -434 -557 -230 -1030 -509
-1390 -821 -125 -109 -378 -365 -476 -484 -209 -253 -373 -535 -502 -860 -242
-611 -290 -1340 -131 -1980 94 -379 212 -540 499 -680 171 -83 537 -199 665
-211 141 -13 276 39 385 150 148 150 208 335 275 845 65 493 161 821 356 1211
175 349 276 498 472 696 141 143 330 272 587 398 258 128 484 211 845 311 244
67 314 99 395 180 189 187 204 424 64 950 -102 379 -153 500 -258 605 -69 69
-141 111 -222 129 -64 15 -243 12 -324 -5z m34 -964 c19 -72 32 -133 29 -135
-2 -2 -60 -21 -129 -41 -528 -153 -1064 -417 -1407 -694 -178 -142 -413 -404
-548 -608 -62 -93 -183 -311 -273 -490 -128 -255 -232 -539 -309 -847 -53
-210 -75 -328 -107 -570 -14 -110 -28 -210 -30 -222 l-5 -23 -65 24 c-97 35
-111 48 -130 113 -101 345 -112 829 -26 1221 70 319 254 706 454 952 389 479
876 818 1607 1119 316 130 854 328 895 330 6 1 25 -58 44 -129z"/>
<path d="M32905 21893 c-200 -25 -434 -82 -670 -163 -49 -17 -148 -47 -220
-66 -180 -48 -307 -95 -470 -174 -334 -162 -660 -388 -909 -630 -649 -629
-878 -1388 -690 -2282 91 -432 322 -916 610 -1278 101 -127 401 -422 554 -544
952 -762 2058 -955 2979 -520 661 312 1205 953 1445 1703 114 355 166 689 166
1071 0 570 -135 1085 -415 1589 -175 314 -330 507 -570 709 -335 282 -856 505
-1346 576 -97 15 -378 20 -464 9z m370 -1233 c189 -37 430 -136 596 -246 145
-95 270 -257 397 -510 242 -483 277 -1053 97 -1600 -54 -164 -105 -272 -193
-405 -368 -558 -894 -778 -1481 -618 -414 112 -857 404 -1161 764 -390 462
-532 1131 -330 1553 117 245 367 494 694 691 96 58 114 65 194 77 98 14 177
41 267 90 33 18 97 41 143 53 46 11 113 36 150 56 65 34 238 89 331 105 83 14
188 10 296 -10z"/>
<path d="M27261 19525 c-141 -40 -246 -130 -299 -257 -46 -111 -57 -162 -43
-207 6 -21 11 -52 11 -69 0 -100 86 -256 177 -322 149 -106 298 -115 480 -28
86 41 214 165 260 253 91 174 81 345 -28 470 -111 126 -391 207 -558 160z
m267 -341 c50 -26 57 -33 60 -62 9 -93 -150 -235 -243 -218 -86 16 -134 152
-87 246 38 77 155 91 270 34z"/>
<path d="M24570 17919 c-107 -28 -166 -59 -257 -138 -86 -75 -121 -122 -179
-244 -44 -94 -50 -133 -35 -268 19 -169 87 -285 221 -374 232 -154 489 -132
686 60 79 77 142 167 176 254 30 76 33 267 4 351 -68 201 -201 325 -391 365
-91 19 -134 18 -225 -6z m226 -329 c52 -33 86 -99 92 -180 6 -87 -18 -140 -99
-221 -87 -87 -154 -100 -257 -48 -82 41 -105 74 -114 168 -6 69 -5 78 22 131
37 74 121 146 199 171 40 13 119 2 157 -21z"/>
</g>
</svg>
