<?xml version="1.0" standalone="no"?>
<!DOCTYPE svg PUBLIC "-//W3C//DTD SVG 20010904//EN"
 "http://www.w3.org/TR/2001/REC-SVG-20010904/DTD/svg10.dtd">
<svg version="1.0" xmlns="http://www.w3.org/2000/svg"
 width="7647.000000pt" height="8073.000000pt" viewBox="0 0 7647.000000 8073.000000"
 preserveAspectRatio="xMidYMid meet">

<g transform="translate(0.000000,8073.000000) scale(0.100000,-0.100000)"
fill="#000000" stroke="none">
<path d="M44535 74569 c-906 -82 -1736 -468 -2267 -1054 -416 -458 -655 -983
-744 -1630 -25 -178 -25 -577 -1 -760 70 -527 236 -951 518 -1325 540 -715
1347 -1021 2255 -854 264 48 504 131 760 263 791 408 1341 1124 1485 1936 33
183 33 484 1 659 -55 297 -184 567 -375 783 -232 263 -528 436 -879 515 -147
33 -423 33 -578 -1 -315 -67 -567 -200 -701 -369 -216 -271 -241 -639 -69
-1000 66 -139 120 -217 233 -341 65 -71 97 -113 101 -136 8 -41 63 -118 107
-151 50 -36 131 -57 200 -51 165 15 305 187 285 350 -13 105 -35 137 -257 374
-158 169 -230 366 -188 516 32 118 232 218 492 248 369 41 758 -174 947 -524
154 -285 166 -668 34 -1055 -150 -441 -464 -832 -894 -1115 -606 -398 -1357
-474 -1914 -195 -392 197 -727 606 -880 1076 -85 263 -116 469 -116 779 0 374
63 682 204 1003 267 607 819 1084 1528 1321 747 249 1630 212 2313 -99 576
-262 1199 -775 1660 -1367 513 -658 958 -1634 1255 -2749 224 -845 468 -2362
564 -3511 21 -246 27 -388 34 -820 l7 -370 28 -57 c51 -104 143 -161 257 -160
133 0 236 79 276 209 30 93 17 808 -22 1263 -40 474 -134 1236 -220 1785 -180
1149 -375 1973 -641 2710 -513 1421 -1180 2386 -2149 3111 -617 460 -1183 694
-1894 779 -159 20 -607 28 -755 14z"/>
<path d="M53805 73379 c-975 -90 -1815 -480 -2519 -1169 -817 -799 -1236
-1770 -1236 -2865 0 -468 76 -917 239 -1404 312 -935 808 -1776 1396 -2367
165 -166 268 -244 424 -322 112 -56 115 -57 200 -57 77 0 92 3 139 30 64 35
97 71 130 143 46 102 17 239 -69 316 -19 18 -81 57 -136 85 -153 80 -273 192
-502 465 -434 517 -787 1165 -1027 1881 -421 1261 -213 2452 595 3410 527 625
1236 1056 1983 1209 271 55 333 61 653 61 323 0 420 -11 650 -71 281 -73 583
-221 820 -403 413 -316 637 -703 716 -1236 21 -135 18 -501 -5 -645 -60 -386
-216 -748 -459 -1070 -94 -124 -316 -352 -442 -453 -301 -243 -671 -424 -1028
-504 -111 -24 -141 -27 -332 -27 -185 -1 -220 2 -298 21 -471 120 -802 481
-913 998 -24 111 -24 368 -1 488 27 133 71 258 138 386 187 361 484 626 836
748 64 22 96 27 184 27 101 1 108 0 155 -29 61 -38 100 -110 113 -208 16 -113
1 -171 -89 -354 -84 -170 -117 -217 -237 -347 -97 -105 -128 -168 -127 -261 1
-168 120 -288 285 -288 109 0 155 28 286 172 129 141 186 221 276 386 167 308
219 520 187 757 -51 380 -275 645 -619 735 -453 118 -1108 -177 -1514 -682
-459 -570 -593 -1241 -377 -1889 291 -871 1097 -1365 2009 -1230 398 58 819
225 1186 469 191 127 335 244 495 405 498 498 797 1101 875 1765 19 168 19
482 0 650 -49 416 -186 798 -396 1106 -229 334 -591 646 -991 852 -317 163
-648 262 -1033 307 -124 15 -499 21 -620 9z"/>
<path d="M37906 67080 c-237 -38 -479 -168 -622 -336 -61 -71 -290 -265 -638
-539 -492 -388 -771 -613 -1201 -969 -231 -191 -494 -410 -585 -485 -91 -75
-327 -272 -525 -437 -198 -165 -524 -435 -725 -599 -884 -724 -1255 -1027
-1550 -1265 -701 -566 -1007 -814 -1245 -1010 -413 -339 -888 -728 -1285
-1050 -455 -369 -748 -613 -1432 -1192 -288 -244 -629 -531 -758 -640 -626
-523 -882 -739 -1200 -1012 -190 -164 -642 -550 -1004 -859 -363 -309 -863
-735 -1110 -947 -868 -740 -1898 -1606 -2936 -2468 -1282 -1065 -2581 -2149
-2890 -2412 -1262 -1075 -1640 -1405 -2430 -2125 -146 -133 -439 -400 -651
-593 -213 -193 -492 -449 -620 -568 -129 -120 -324 -301 -434 -404 -110 -102
-339 -314 -510 -470 -170 -157 -461 -424 -645 -595 -184 -171 -510 -470 -725
-665 -624 -567 -1044 -963 -1590 -1500 -349 -343 -513 -494 -648 -599 -117
-90 -234 -209 -290 -294 -57 -85 -122 -230 -148 -327 -20 -72 -23 -110 -23
-250 0 -193 17 -274 88 -426 59 -124 115 -204 205 -295 129 -129 301 -226 474
-270 67 -17 87 -25 83 -36 -31 -79 -80 -338 -102 -528 -20 -178 -22 -504 -5
-650 46 -380 173 -676 388 -905 153 -163 365 -293 568 -347 89 -23 118 -26
270 -27 151 0 183 3 290 28 467 109 913 410 1399 946 257 284 485 566 932
1159 l229 304 21 -49 c12 -27 98 -278 192 -559 93 -280 207 -602 252 -715 102
-257 273 -605 379 -775 360 -572 795 -907 1336 -1027 86 -19 129 -22 315 -22
186 0 228 3 309 22 52 12 97 20 99 17 3 -2 0 -226 -7 -497 -40 -1733 -62
-3823 -64 -6108 -2 -2204 -1 -2278 38 -3635 8 -280 24 -843 35 -1250 34 -1272
52 -1818 100 -3055 48 -1226 59 -1563 70 -2120 21 -1080 29 -1318 75 -2355 14
-302 29 -680 34 -840 16 -456 25 -2761 12 -3105 -6 -162 -15 -448 -21 -635 -6
-187 -16 -448 -22 -580 -6 -132 -13 -287 -15 -345 -5 -126 9 -234 47 -355 16
-49 36 -130 45 -178 93 -511 552 -867 1070 -832 207 14 1994 -1 3005 -25 704
-17 1740 -52 2655 -90 610 -26 1116 -44 2050 -75 418 -14 1014 -34 1325 -45
311 -11 727 -24 925 -30 4172 -120 6040 -131 9665 -60 1052 21 1182 24 2785
70 989 28 1580 43 2215 55 252 5 1081 23 1805 40 627 15 2635 36 3895 41 1405
6 3882 -8 4530 -26 1403 -39 2537 -55 3880 -55 816 0 1053 3 1120 13 301 48
560 213 721 460 27 41 78 105 112 142 177 187 273 396 297 648 12 127 12 1300
0 1837 -11 499 -20 683 -66 1500 -34 605 -47 795 -119 1760 -19 259 -46 625
-60 815 -14 190 -59 795 -100 1345 -137 1827 -168 2295 -210 3155 -33 682 -37
815 -42 1665 -8 1270 12 2030 92 3575 28 540 50 1021 65 1450 6 162 17 468 25
680 36 949 50 1515 70 2760 16 1028 30 1748 45 2360 5 212 15 736 21 1165 6
429 12 781 14 783 2 2 32 -11 66 -29 92 -46 250 -104 381 -139 467 -124 850
-69 1210 176 136 93 224 168 393 338 320 320 564 663 946 1329 l154 268 7
-188 c34 -957 410 -1690 1023 -1996 320 -159 753 -247 1070 -218 276 26 521
98 800 236 363 178 667 420 870 690 276 369 402 727 475 1350 17 147 60 611
60 648 0 7 31 23 73 36 301 97 550 343 654 646 127 373 22 796 -266 1068 -76
72 -123 105 -226 164 -38 21 -137 94 -220 160 -82 67 -220 177 -305 245 -161
128 -794 640 -1295 1048 -159 130 -387 315 -505 411 -118 96 -447 359 -730
584 -793 630 -933 744 -1620 1330 -239 204 -597 508 -795 675 -374 316 -755
644 -1055 910 -96 85 -411 361 -700 614 -827 723 -1247 1092 -2240 1972 -173
154 -522 459 -775 679 -253 220 -557 486 -676 590 -679 598 -1029 908 -1036
918 -6 10 -41 281 -88 682 -15 129 -44 539 -65 900 -6 105 -22 354 -35 555
-14 201 -30 523 -35 715 -5 193 -15 527 -21 743 -13 446 -7 2222 10 2847 6
209 15 594 21 855 13 600 35 1153 71 1760 16 286 22 940 10 1240 -14 385 -39
497 -140 652 -93 142 -252 255 -411 293 -83 19 -220 19 -401 0 -199 -21 -402
-32 -930 -50 -510 -17 -791 -28 -1214 -50 -159 -8 -445 -19 -635 -25 -190 -6
-536 -17 -770 -26 -234 -8 -857 -19 -1385 -24 -585 -6 -989 -13 -1035 -20
-243 -35 -372 -92 -501 -220 -104 -103 -152 -193 -201 -375 l-32 -120 -4 -457
c-3 -362 1 -538 17 -855 12 -219 25 -544 31 -723 9 -296 31 -1573 27 -1576 -1
-1 -50 39 -108 90 -58 50 -297 255 -530 456 -233 200 -579 500 -769 665 -190
165 -444 386 -565 490 -121 104 -323 280 -450 390 -126 111 -471 408 -765 661
-294 253 -1016 874 -1605 1380 -1277 1098 -1651 1413 -2405 2021 -679 549
-798 646 -940 766 -85 73 -200 172 -254 221 -217 193 -346 262 -636 337 -128
34 -306 46 -414 29z m337 -2458 c72 -59 276 -225 452 -367 935 -757 1597
-1313 2830 -2380 160 -138 560 -482 890 -765 330 -283 753 -647 940 -810 187
-162 439 -381 560 -485 121 -104 342 -296 490 -425 410 -358 1540 -1332 2600
-2240 1147 -983 1137 -974 2510 -2170 471 -409 1461 -1277 2055 -1800 399
-351 1077 -950 1325 -1169 126 -112 518 -456 870 -766 352 -309 780 -685 950
-835 171 -150 443 -388 605 -529 350 -303 745 -650 1225 -1076 450 -400 752
-666 1430 -1259 609 -533 743 -650 1216 -1066 444 -391 612 -536 1139 -981
250 -211 545 -461 654 -554 l199 -170 -304 -8 c-376 -10 -3731 -1 -4799 12
-432 6 -1417 15 -2190 21 -773 5 -1823 15 -2335 20 -511 5 -1393 14 -1960 20
-1039 10 -1339 14 -4105 50 -1754 23 -2668 36 -3440 50 -1611 30 -2812 46
-5040 70 -525 6 -1290 15 -1700 20 -1531 21 -3318 30 -6175 30 -2801 0 -4227
-6 -7220 -30 -731 -6 -2383 -11 -3670 -11 -1287 0 -2598 -5 -2913 -10 -316 -6
-575 -9 -577 -7 -1 2 74 73 168 158 223 203 410 376 757 699 483 450 524 488
1255 1152 1011 918 1121 1015 2065 1824 620 531 916 782 1430 1208 245 204
605 504 800 667 195 163 501 417 680 565 818 676 2456 2049 3055 2559 187 160
628 536 980 835 352 300 890 759 1195 1021 697 597 774 663 1385 1175 275 231
705 593 955 805 666 565 898 757 1650 1367 129 104 406 331 615 502 448 368
1085 886 1525 1241 388 313 627 507 1160 944 721 590 963 790 1420 1171 361
301 966 802 1450 1200 97 80 802 635 807 635 2 0 63 -49 136 -108z m15364
-2224 c-3 -189 -13 -464 -21 -613 -37 -647 -50 -1040 -83 -2455 -37 -1616 -17
-3492 47 -4413 25 -359 50 -771 47 -773 -1 -1 -112 95 -247 213 -375 330
-1656 1455 -2105 1848 -220 193 -534 467 -699 609 -164 142 -439 381 -610 530
-171 149 -517 448 -769 665 -446 384 -457 394 -457 430 0 20 -4 146 -10 281
-11 308 -27 1003 -40 1800 -11 640 -20 929 -45 1410 -8 157 -16 370 -17 474
l-3 190 180 -2 c244 -4 1379 15 1695 28 140 5 473 17 740 25 267 9 656 24 865
35 209 10 535 24 725 30 190 7 426 15 525 19 99 5 204 9 234 9 l54 2 -6 -342z
m-21517 -17738 c1097 -5 2526 -16 3175 -24 649 -9 1619 -20 2155 -26 1820 -19
3837 -48 4590 -65 346 -8 1314 -22 3070 -45 833 -11 1853 -24 2265 -30 413 -5
1189 -14 1725 -20 536 -6 1394 -15 1905 -20 512 -5 1513 -14 2225 -20 1493
-11 3050 -26 4395 -41 903 -10 3763 -5 3961 7 l91 6 59 -49 c136 -112 563
-455 1069 -858 297 -236 592 -472 655 -524 l115 -94 -440 7 c-518 8 -882 17
-1910 51 -1221 40 -2342 66 -3800 90 -495 8 -1003 17 -1130 20 -126 3 -570 15
-985 25 -415 11 -1135 29 -1600 40 -879 21 -1130 28 -2195 60 -1908 59 -3060
91 -4100 115 -363 8 -919 22 -1235 30 -832 21 -1412 34 -2110 45 -610 10
-1200 22 -2045 40 -926 20 -2890 32 -4315 26 -1454 -6 -2022 -13 -3375 -41
-396 -8 -1078 -22 -1515 -30 -853 -16 -1331 -27 -2160 -50 -637 -18 -1244 -32
-1975 -45 -567 -10 -1157 -23 -1820 -40 -1215 -31 -3991 -37 -4815 -11 -184 6
-693 22 -1130 36 -1689 53 -2505 86 -3830 155 -699 37 -1103 55 -1600 75 -212
8 -605 24 -875 35 -655 27 -1077 40 -1267 40 -87 0 -158 2 -158 5 0 7 80 82
520 482 212 192 437 398 500 457 63 58 124 108 135 111 45 9 754 26 1270 30
303 3 1803 7 3335 10 1532 2 3264 10 3850 16 2453 25 6368 33 9320 19z
m-20200 -3145 c352 -18 810 -32 1338 -41 221 -4 405 -10 407 -14 10 -16 -496
-668 -745 -960 -158 -186 -488 -516 -610 -610 -447 -344 -834 -443 -1107 -283
-72 42 -190 159 -244 241 -59 89 -100 194 -131 332 -21 96 -23 128 -23 385 0
178 5 311 13 365 32 212 72 377 128 521 l25 67 57 10 c72 14 510 7 892 -13z
m3550 -120 c735 -28 1862 -86 1874 -96 6 -5 5 -96 -2 -231 -18 -337 -31 -662
-47 -1203 -8 -269 -18 -587 -21 -705 -4 -118 -10 -224 -15 -236 -9 -26 -154
-76 -272 -95 -117 -18 -319 -7 -437 25 -123 34 -312 128 -421 210 -103 78
-293 274 -371 382 -199 278 -361 608 -537 1091 -58 158 -291 860 -291 876 0 2
30 3 68 1 37 -3 249 -11 472 -19z m25142 -54 c406 -4 740 -10 743 -13 8 -8
-360 -741 -456 -908 -249 -436 -470 -732 -740 -995 -582 -565 -1207 -809
-1909 -744 -302 28 -603 114 -905 259 -571 275 -1194 856 -1640 1530 -125 189
-518 840 -511 847 25 25 3686 41 5418 24z m2426 -41 c257 -5 744 -14 1082 -20
746 -12 1604 -31 1609 -36 9 -8 -420 -814 -562 -1054 -223 -377 -485 -703
-684 -853 -287 -217 -635 -254 -990 -104 -492 207 -801 667 -1017 1512 -30
117 -126 545 -126 560 0 7 169 6 688 -5z m-9112 -77 c-336 -784 -527 -1137
-808 -1491 -120 -151 -328 -361 -452 -457 -435 -337 -879 -407 -1344 -211
-344 146 -694 457 -960 856 -199 297 -353 655 -515 1197 l-25 82 51 5 c29 3
349 12 712 21 363 9 815 20 1005 25 190 5 725 16 1190 25 465 8 886 17 935 18
50 2 125 4 167 5 l77 2 -33 -77z m935 -428 c309 -516 415 -681 571 -891 168
-224 317 -395 537 -614 382 -382 707 -626 1090 -819 604 -305 1247 -414 1851
-315 759 125 1487 604 2045 1345 247 328 440 656 736 1253 82 164 151 292 153
285 3 -8 14 -59 26 -114 105 -486 233 -881 382 -1180 192 -383 433 -666 735
-861 452 -293 985 -370 1423 -207 248 92 420 212 650 450 325 336 564 712
1055 1661 72 138 133 248 136 244 4 -4 14 -50 24 -102 147 -825 297 -1264 577
-1686 348 -526 779 -882 1259 -1042 749 -248 1619 -71 2361 480 492 366 925
880 1498 1777 69 106 126 188 128 182 2 -6 -1 -87 -7 -180 -14 -212 -14 -598
-1 -767 13 -169 35 -322 66 -463 90 -404 312 -823 565 -1066 110 -106 194
-164 320 -225 202 -96 371 -130 679 -137 537 -13 980 94 1485 356 363 188 740
439 1055 701 227 188 706 684 985 1019 l70 83 3 -38 c2 -22 -4 -379 -12 -794
-9 -415 -21 -1077 -26 -1470 -6 -393 -17 -1007 -25 -1365 -15 -681 -30 -1468
-40 -2110 -20 -1308 -33 -1816 -80 -3115 -37 -1017 -41 -1093 -85 -1955 -79
-1535 -107 -2754 -90 -3895 14 -868 65 -1965 145 -3075 33 -455 137 -1860 180
-2425 19 -250 48 -646 65 -880 17 -234 44 -596 60 -805 47 -614 102 -1513 130
-2130 11 -238 29 -1135 30 -1449 l0 -179 -797 6 c-1091 9 -2068 24 -2748 42
-1182 31 -1758 36 -3954 38 -1703 1 -2555 -3 -3476 -16 -1386 -19 -2249 -35
-2348 -42 -49 -4 -69 -2 -71 7 -3 7 -9 261 -16 563 -11 578 -20 878 -45 1520
-28 721 -35 1278 -29 2275 4 625 2 1168 -5 1485 -34 1508 -34 2519 -1 3669 5
187 17 634 25 991 8 358 22 909 30 1225 8 316 19 814 25 1105 11 562 22 876
45 1330 61 1156 68 1586 62 3660 -4 1667 -7 1781 -42 2270 -53 717 -117 938
-332 1147 -236 229 -410 259 -1344 238 -502 -12 -1132 -8 -1834 10 -623 16
-2398 23 -2775 11 -705 -23 -1105 -44 -1745 -91 -512 -37 -799 -56 -1160 -75
-582 -31 -943 -77 -1530 -195 l-250 -50 -144 -72 c-129 -64 -153 -80 -222
-149 -64 -64 -86 -95 -122 -171 -76 -158 -86 -240 -64 -508 9 -102 19 -250 22
-330 16 -404 38 -841 65 -1265 40 -648 47 -787 70 -1445 11 -316 29 -780 40
-1030 39 -892 43 -1408 30 -3195 -7 -913 -16 -1741 -20 -1840 -5 -99 -13
-1039 -19 -2090 -9 -1769 -7 -2257 14 -3185 3 -135 10 -598 15 -1030 15 -1188
42 -1865 120 -3015 11 -159 33 -501 50 -760 16 -258 42 -631 56 -828 15 -196
25 -360 21 -363 -19 -20 -3614 62 -5347 121 -399 14 -1065 36 -1480 50 -903
30 -1405 49 -2035 75 -1442 61 -2551 91 -4287 116 l-457 6 4 57 c22 269 30
906 29 2216 -1 1454 -3 1587 -44 2495 -50 1107 -56 1291 -70 2035 -14 751 -23
1059 -75 2425 -52 1356 -68 1824 -95 2835 -25 925 -47 1690 -61 2125 -17 490
-24 4750 -10 5720 6 432 16 1105 21 1495 19 1380 35 2091 65 2965 14 389 45
1358 45 1405 0 11 22 -29 48 -90 110 -256 273 -489 474 -681 293 -280 661
-445 1103 -494 430 -48 921 81 1320 346 313 207 588 506 835 906 101 165 282
513 376 725 33 73 64 133 69 133 6 0 25 -57 44 -128 224 -840 678 -1690 1152
-2159 134 -132 206 -191 349 -286 344 -227 733 -341 1165 -341 351 0 643 68
940 219 395 200 747 533 1129 1067 270 380 482 757 807 1441 l94 198 18 -63
c243 -854 492 -1356 902 -1818 423 -478 927 -763 1460 -826 357 -43 755 51
1105 262 409 246 796 658 1118 1191 146 242 317 597 592 1231 67 154 87 190
97 180 6 -7 139 -224 294 -483z m12609 410 c833 -20 1544 -39 2735 -75 545
-17 1101 -33 1237 -37 136 -3 252 -9 258 -13 20 -12 -444 -725 -663 -1020
-403 -542 -752 -877 -1160 -1114 -140 -81 -321 -161 -477 -210 -387 -121 -793
-125 -1126 -10 -356 122 -676 392 -954 804 -234 348 -352 686 -485 1388 -30
161 -55 295 -55 298 0 6 -12 6 690 -11z m-26545 -40 c716 -22 1324 -38 1843
-49 112 -2 205 -6 208 -9 7 -6 -149 -320 -221 -447 -72 -127 -224 -354 -302
-450 -271 -338 -618 -561 -996 -642 -83 -17 -135 -21 -277 -21 -142 0 -194 4
-277 21 -366 79 -638 264 -845 577 -177 266 -269 565 -294 949 l-7 109 194 -7
c107 -3 545 -17 974 -31z m7765 9 c0 -12 -230 -483 -313 -639 -349 -660 -771
-1208 -1141 -1483 -182 -134 -397 -233 -606 -277 -188 -39 -461 -39 -657 0
-202 42 -440 148 -608 272 -278 206 -562 583 -808 1073 -157 311 -261 571
-351 875 l-33 113 606 5 c1024 10 2067 26 2706 42 983 24 1205 28 1205 19z
m25035 -144 c473 -11 1200 -29 1615 -40 851 -22 1677 -40 1884 -40 114 0 137
-2 133 -14 -10 -27 -201 -293 -313 -436 -313 -401 -814 -944 -1094 -1184 -378
-324 -920 -661 -1310 -814 -138 -53 -334 -105 -496 -129 -148 -21 -542 -25
-649 -5 -245 45 -389 145 -545 379 -165 245 -261 521 -300 858 -18 150 -24
564 -11 785 11 186 42 542 56 630 l6 35 82 -3 c45 -1 469 -11 942 -22z m6355
-141 c223 -5 740 -21 1150 -34 410 -14 791 -25 848 -25 56 0 102 -2 102 -5 0
-10 -413 -730 -508 -885 -415 -680 -828 -1118 -1172 -1245 -138 -51 -380 -46
-579 11 -201 59 -432 172 -522 256 l-36 33 13 560 c13 605 31 1153 41 1277 l6
78 126 -5 c69 -3 308 -10 531 -16z m4560 -109 c184 -5 623 -10 975 -10 l641 0
-3 -32 c-2 -18 -12 -136 -23 -263 -23 -255 -60 -530 -91 -669 -50 -227 -151
-461 -272 -633 -218 -309 -655 -598 -1067 -706 -101 -26 -137 -30 -290 -34
-193 -5 -287 6 -460 54 -229 63 -388 149 -516 278 -222 224 -378 577 -446
1010 -18 112 -21 192 -25 579 l-5 449 623 -7 c343 -4 775 -11 959 -16z
m-24160 -6303 c305 -6 972 -12 1482 -12 l927 0 5 -55 c49 -475 62 -1445 47
-3425 -11 -1409 -13 -1522 -51 -2245 -38 -740 -44 -902 -60 -1755 -6 -275 -15
-669 -20 -875 -6 -206 -17 -661 -25 -1010 -8 -349 -23 -907 -32 -1240 -21
-741 -24 -2772 -5 -3455 7 -266 12 -975 12 -1795 0 -1325 5 -1647 35 -2410 24
-603 57 -1911 49 -1919 -3 -3 -163 -9 -357 -13 -302 -7 -2451 -66 -3022 -83
-848 -26 -3148 -61 -4365 -67 l-595 -3 -22 285 c-22 282 -37 502 -113 1665
-84 1280 -105 1769 -120 2791 -5 379 -15 982 -22 1339 -19 981 -16 4412 5
5120 26 858 28 1034 28 2645 1 1545 -2 1726 -41 2650 -11 256 -27 665 -35 910
-21 609 -30 807 -70 1455 -34 548 -68 1225 -63 1230 5 4 332 53 463 69 176 22
325 34 655 51 359 19 651 38 1080 70 476 36 602 44 940 60 299 14 822 33 1070
39 258 6 1686 -5 2220 -17z"/>
<path d="M37413 57209 c-627 -38 -1304 -214 -1824 -475 -577 -289 -1127 -753
-1543 -1303 -188 -248 -420 -627 -582 -951 -238 -475 -375 -883 -454 -1351
-55 -328 -64 -446 -65 -799 0 -291 2 -340 23 -467 106 -662 427 -1371 868
-1919 255 -317 593 -637 909 -861 407 -288 977 -586 1411 -736 369 -128 701
-186 1107 -194 350 -7 552 15 877 98 506 129 910 313 1410 644 380 251 631
453 916 739 638 639 1050 1311 1248 2032 112 410 163 808 153 1189 -12 432
-73 742 -247 1250 -114 332 -200 530 -341 782 -380 683 -655 1034 -1070 1364
-171 136 -245 189 -359 256 -160 93 -446 242 -560 291 -138 60 -474 181 -585
212 -44 12 -105 37 -135 56 -197 120 -639 174 -1157 143z m570 -873 c236 -32
763 -189 1002 -299 272 -124 524 -275 709 -423 283 -227 470 -450 704 -839
203 -339 298 -528 390 -775 97 -262 198 -602 217 -731 l7 -46 -109 -7 c-230
-14 -1700 -47 -2355 -53 l-688 -6 0 44 c-1 267 -32 2305 -40 2559 -5 184 -10
399 -10 477 l0 142 35 -15 c20 -8 82 -21 138 -28z m-759 -78 c12 -257 46
-2312 46 -2855 l0 -243 -548 0 c-501 0 -1231 -14 -2027 -40 -373 -12 -855 -13
-855 -2 0 28 78 316 116 428 121 360 356 825 607 1199 414 618 983 1098 1607
1355 297 122 559 190 1010 263 14 2 28 5 32 6 3 0 9 -50 12 -111z m3821 -3690
c-43 -429 -127 -776 -270 -1104 -181 -415 -513 -883 -900 -1268 -396 -393
-1016 -814 -1475 -1000 -116 -47 -364 -129 -452 -150 l-28 -6 0 647 c0 357 -5
821 -10 1033 -5 212 -14 626 -19 920 -6 294 -13 623 -16 731 l-6 196 568 6
c558 6 1655 30 2108 46 127 4 292 9 368 9 l138 2 -6 -62z m-4004 5 l246 -6 7
-386 c4 -212 13 -669 21 -1016 8 -346 15 -985 15 -1418 l0 -788 -92 6 c-523
35 -925 158 -1462 447 -494 266 -799 493 -1113 830 -352 378 -602 793 -766
1273 -98 287 -137 519 -137 814 l0 187 578 12 c317 7 825 19 1127 27 820 23
1239 27 1576 18z"/>
<path d="M49795 35119 c-115 -4 -446 -15 -735 -24 -885 -26 -1285 -65 -1861
-179 -312 -62 -368 -83 -444 -168 -57 -64 -67 -82 -110 -209 -71 -211 -108
-548 -200 -1844 -70 -987 -78 -1203 -100 -2635 -18 -1224 -7 -2764 25 -3329
46 -797 149 -1323 322 -1641 206 -379 532 -654 996 -844 344 -142 795 -214
1542 -247 450 -19 2076 3 2579 36 1174 78 1823 231 2276 538 129 88 305 267
393 399 280 423 509 1176 646 2128 80 551 117 988 161 1910 36 736 28 1576
-25 2685 -45 938 -190 1912 -346 2333 -81 218 -159 347 -284 473 -239 241
-595 370 -1255 454 -576 73 -1241 124 -2148 165 -257 11 -1113 11 -1432 -1z
m1700 -564 c1215 -62 2036 -149 2371 -249 193 -58 338 -135 401 -214 146 -181
252 -590 348 -1334 60 -471 85 -810 110 -1473 17 -450 36 -1137 32 -1141 -1
-1 -202 -7 -447 -13 -747 -19 -1105 -31 -1595 -51 -893 -37 -2039 -69 -2051
-57 -4 3 -10 136 -15 294 -16 540 -39 1187 -54 1518 -57 1309 -57 2220 1 2694
l7 54 301 -6 c165 -4 432 -14 591 -22z m-1449 -7 c-10 -44 -26 -276 -36 -503
-19 -445 -9 -1195 25 -2020 31 -745 35 -842 50 -1310 8 -264 15 -527 17 -585
l2 -105 -105 3 c-57 1 -268 9 -469 18 -403 16 -1108 30 -2029 41 l-604 6 7
446 c9 588 23 1055 42 1381 19 348 110 1611 130 1815 32 333 69 593 88 612 2
2 95 21 207 43 420 81 799 121 1329 141 536 20 1063 36 1208 38 l142 1 -4 -22z
m4700 -5195 c-11 -421 -52 -1132 -87 -1508 -96 -1051 -293 -1912 -557 -2429
-119 -235 -253 -366 -499 -489 -420 -211 -1298 -344 -2404 -364 l-336 -6 -6
109 c-4 60 -11 246 -17 414 -5 168 -14 438 -20 600 -6 162 -15 428 -20 590
-12 340 -21 544 -55 1155 -13 242 -26 517 -30 610 -9 242 -35 1254 -35 1351
l0 81 348 7 c475 9 917 23 1492 46 804 33 994 39 1500 50 267 6 499 12 515 14
17 1 72 4 124 4 l94 2 -7 -237z m-6221 167 c504 -9 906 -21 1452 -46 l142 -6
5 -52 c3 -28 12 -339 21 -691 17 -684 24 -882 55 -1425 33 -583 50 -1002 80
-1990 6 -184 15 -429 21 -544 5 -115 7 -211 5 -214 -11 -11 -1074 -5 -1256 7
-689 45 -990 106 -1303 264 -175 89 -257 146 -368 256 -236 237 -334 497 -408
1081 -56 440 -71 868 -78 2222 l-6 1147 69 4 c90 6 840 0 1569 -13z"/>
<path d="M25250 34493 c-219 -4 -665 -23 -805 -34 -274 -21 -630 -85 -895
-159 -80 -22 -260 -71 -400 -110 -299 -81 -369 -104 -470 -155 -86 -43 -185
-136 -218 -205 -43 -91 -111 -307 -121 -390 -6 -47 -16 -303 -21 -570 -6 -267
-19 -681 -30 -920 -28 -624 -29 -700 -41 -1795 -7 -679 -7 -1105 1 -1355 5
-201 17 -628 25 -950 16 -635 23 -781 60 -1385 39 -622 63 -840 120 -1051 95
-361 291 -569 682 -723 305 -121 823 -218 1398 -261 383 -29 541 -32 1620 -37
1390 -6 1812 5 2345 62 903 97 1197 442 1473 1730 187 868 309 1933 357 3095
34 828 42 2233 15 2752 -58 1129 -109 1553 -215 1783 -55 120 -153 232 -271
311 -276 184 -830 287 -1789 334 -408 19 -2345 43 -2820 33z m740 -566 c0 -7
-6 -89 -14 -182 -19 -220 -33 -565 -46 -1100 -6 -236 -15 -578 -21 -760 -5
-181 -12 -786 -14 -1343 -1 -557 -5 -1015 -7 -1018 -3 -2 -282 -9 -620 -16
-630 -12 -1447 -2 -1748 22 -198 16 -456 59 -699 115 l-24 6 7 747 c7 765 16
1108 41 1617 8 160 17 443 21 630 6 339 6 340 31 393 25 52 26 56 19 196 -6
125 2 251 19 307 7 20 85 47 340 115 116 30 287 77 380 104 497 140 859 175
1848 178 393 2 487 -1 487 -11z m1685 -8 c1039 -26 1696 -116 1893 -258 22
-17 49 -49 61 -75 58 -119 109 -540 146 -1206 32 -587 35 -704 35 -1354 -1
-577 -13 -1383 -22 -1391 -11 -11 -699 -28 -1418 -35 -470 -5 -963 -14 -1095
-19 -132 -6 -352 -15 -490 -21 -137 -5 -271 -12 -296 -15 l-46 -5 4 932 c3
845 14 1446 43 2493 15 507 33 816 56 943 l6 33 372 -6 c204 -3 542 -10 751
-16z m-4720 -4863 c158 -33 368 -62 535 -76 364 -29 1319 -38 2019 -20 206 6
375 9 376 7 1 -1 7 -330 14 -732 24 -1540 48 -2688 61 -2920 5 -99 12 -224 14
-277 l5 -98 -273 0 c-1355 0 -2329 147 -2603 395 -98 87 -150 271 -183 640
-13 154 -56 845 -70 1130 -10 219 -34 1079 -47 1674 -6 306 -6 313 13 308 10
-3 73 -17 139 -31z m6811 -73 c-24 -389 -40 -613 -61 -840 -100 -1087 -288
-2112 -475 -2591 -169 -433 -305 -512 -970 -566 -345 -28 -564 -37 -1146 -43
l-582 -6 -6 104 c-3 57 -10 192 -16 299 -10 194 -31 1153 -50 2330 -5 338 -12
773 -16 966 l-7 351 79 7 c43 3 250 13 459 21 209 8 427 17 485 20 58 3 512
10 1010 16 498 6 973 14 1055 18 83 4 172 8 198 9 l49 2 -6 -97z"/>
<path d="M40695 31423 c-313 -70 -716 -393 -1131 -908 -403 -499 -677 -957
-869 -1453 -22 -57 -31 -70 -40 -60 -7 7 -62 100 -124 207 -166 286 -390 623
-594 895 -325 431 -735 787 -1024 887 -127 44 -276 33 -378 -27 -63 -36 -149
-134 -184 -208 -48 -99 -65 -184 -65 -326 -1 -362 192 -863 619 -1605 279
-487 465 -747 831 -1165 224 -256 746 -769 887 -872 29 -21 71 -54 93 -73 74
-62 110 -78 188 -83 127 -8 186 31 299 197 41 58 156 219 256 356 208 283 651
946 824 1230 372 613 578 1014 774 1505 166 414 232 701 220 955 -6 132 -31
238 -75 320 -56 104 -179 198 -293 224 -44 10 -176 13 -214 4z m32 -660 c-8
-104 -43 -263 -87 -394 -257 -769 -851 -1802 -1725 -3001 l-50 -68 -35 33
c-418 389 -644 629 -934 992 -199 249 -306 408 -511 765 -212 369 -340 626
-439 882 -69 181 -134 448 -109 448 24 0 244 -181 353 -290 324 -324 660 -818
1156 -1699 60 -107 128 -216 152 -242 150 -167 397 -126 501 85 17 35 69 178
115 317 179 547 365 902 718 1374 288 386 580 689 807 837 40 26 78 48 84 48
6 0 8 -30 4 -87z"/>
<path d="M40362 24695 c-35 -8 -102 -33 -150 -56 -121 -59 -240 -177 -299
-299 -151 -310 -55 -667 226 -849 266 -172 598 -134 826 94 141 140 201 297
192 500 -9 225 -114 404 -309 528 -128 82 -334 117 -486 82z"/>
</g>
</svg>
