<?xml version="1.0" standalone="no"?>
<!DOCTYPE svg PUBLIC "-//W3C//DTD SVG 20010904//EN"
 "http://www.w3.org/TR/2001/REC-SVG-20010904/DTD/svg10.dtd">
<svg version="1.0" xmlns="http://www.w3.org/2000/svg"
 width="7647.000000pt" height="8073.000000pt" viewBox="0 0 7647.000000 8073.000000"
 preserveAspectRatio="xMidYMid meet">

<g transform="translate(0.000000,8073.000000) scale(0.100000,-0.100000)"
fill="#000000" stroke="none">
<path d="M14670 72193 c-143 -50 -230 -178 -230 -338 0 -79 40 -252 118 -510
38 -127 324 -1023 337 -1058 4 -9 5 -17 2 -17 -8 0 -290 159 -452 255 -77 45
-210 122 -295 170 -85 48 -191 109 -235 135 -149 90 -257 101 -382 40 -175
-86 -235 -310 -128 -480 44 -70 119 -126 315 -235 58 -32 186 -106 285 -164
99 -58 249 -144 333 -192 l154 -87 -259 -102 c-142 -57 -391 -153 -554 -215
-403 -153 -479 -188 -542 -245 -179 -164 -140 -447 76 -550 114 -55 196 -49
371 25 55 24 222 89 369 145 147 56 453 175 680 265 226 91 412 163 414 161 2
-2 -39 -230 -207 -1145 -55 -300 -57 -321 -35 -404 18 -70 49 -120 104 -170
67 -60 122 -80 221 -81 73 0 93 4 142 27 104 51 179 150 197 260 32 193 107
597 111 597 3 0 60 -166 128 -369 129 -389 147 -428 226 -490 55 -44 135 -71
211 -71 131 0 238 68 297 188 30 61 33 74 32 152 -2 82 -8 105 -171 597 l-170
512 66 -36 c36 -20 80 -44 96 -53 43 -26 892 -473 1010 -533 95 -48 105 -51
192 -55 81 -4 97 -2 146 21 74 34 137 94 172 164 25 50 29 70 30 143 0 73 -4
93 -28 142 -52 107 -84 127 -693 450 -442 234 -986 532 -1013 555 -2 1 -2 5 1
8 2 3 322 122 709 266 387 143 726 272 752 287 120 65 198 205 183 330 -15
129 -98 239 -214 282 -47 18 -72 21 -142 17 -82 -4 -112 -14 -770 -259 -377
-140 -686 -254 -687 -253 -2 1 10 69 27 151 16 82 45 232 65 334 42 217 83
383 126 512 27 80 30 103 26 164 -6 88 -36 154 -97 214 -180 181 -474 103
-571 -150 -30 -80 -83 -269 -110 -393 -12 -59 -23 -106 -25 -104 -6 5 -139
425 -189 592 -29 99 -63 225 -74 280 -28 128 -59 193 -122 249 -89 80 -220
107 -329 69z"/>
<path d="M63730 68130 c-418 -6 -1706 -16 -5515 -40 -3024 -20 -4169 -43
-5960 -120 -1425 -62 -2295 -111 -4795 -270 -2881 -183 -3824 -230 -5980 -295
-1819 -55 -2857 -75 -4890 -96 -1267 -13 -4231 -7 -4990 10 -4004 90 -5102
103 -6660 81 -1764 -25 -2680 -62 -4025 -165 -3059 -234 -5151 -672 -6490
-1359 -814 -417 -1169 -884 -1284 -1691 -54 -377 -71 -728 -116 -2520 -13
-533 -30 -1181 -37 -1440 -16 -624 -16 -2455 0 -2980 55 -1807 81 -2441 152
-3745 22 -399 56 -1029 75 -1400 62 -1195 116 -2058 185 -2970 63 -830 121
-1616 160 -2175 129 -1846 162 -2250 305 -3725 155 -1593 242 -2691 350 -4405
125 -1986 159 -3007 159 -4775 1 -1118 -5 -1441 -34 -2130 -55 -1261 -199
-2818 -376 -4050 -108 -760 -208 -1324 -474 -2700 -577 -2979 -694 -3709 -772
-4795 -18 -243 -18 -1203 0 -1420 79 -983 271 -1855 554 -2520 286 -673 735
-1124 1303 -1309 391 -127 707 -145 1750 -101 1008 43 1744 86 2705 155 691
50 1769 129 2115 155 782 60 1769 169 2395 265 548 84 1363 215 1955 315 341
57 728 120 860 140 132 20 296 47 365 60 68 14 128 21 132 17 5 -5 143 -303
307 -663 543 -1191 873 -1867 1299 -2659 491 -914 1098 -1839 1609 -2452 903
-1083 1980 -1899 3253 -2463 450 -200 912 -355 1515 -510 553 -143 1141 -241
1885 -314 805 -80 1182 -91 3451 -98 2445 -8 2564 -3 3847 147 870 102 1094
143 1947 357 732 183 921 249 1845 648 182 78 714 340 915 450 473 260 1025
636 1440 981 647 537 1035 1156 1364 2174 189 586 436 1574 626 2509 30 151
57 276 59 278 7 7 1201 -30 1536 -47 393 -21 1040 -78 1883 -165 1200 -125
2225 -192 3947 -260 1508 -59 2109 -61 2640 -9 704 68 1252 219 1810 498 1198
598 1840 1570 2054 3111 59 427 95 878 128 1640 17 370 16 2282 0 3265 -55
3300 -34 8763 48 12760 68 3281 168 5974 310 8355 39 651 66 1061 145 2190
128 1840 158 2388 230 4190 93 2338 186 4008 360 6500 114 1628 143 2197 165
3205 32 1488 -21 4704 -96 5800 -77 1135 -258 1744 -629 2115 -307 308 -665
429 -1370 465 -211 10 -899 10 -1645 0z m1510 -1480 c215 -10 428 -31 451 -46
25 -15 74 -182 113 -384 60 -308 97 -755 126 -1540 46 -1232 76 -3478 60
-4540 -18 -1220 -42 -1707 -170 -3540 -169 -2407 -267 -4171 -355 -6395 -74
-1860 -107 -2471 -230 -4225 -136 -1940 -195 -2939 -265 -4470 -113 -2482
-184 -5091 -235 -8570 -45 -3056 -51 -7563 -15 -10005 29 -1993 33 -2492 21
-3015 -38 -1769 -142 -2547 -416 -3117 -204 -425 -488 -704 -955 -938 -316
-158 -605 -250 -971 -310 -563 -90 -1024 -96 -2699 -30 -1741 68 -2718 132
-3900 255 -1362 141 -1835 175 -2775 200 -231 6 -452 13 -492 16 -72 6 -72 6
-67 32 2 15 36 257 74 537 39 281 104 742 146 1025 114 779 214 1514 214 1570
0 7 191 10 593 10 1138 1 2061 32 3142 105 968 66 1788 105 2610 125 1783 43
2301 73 2643 155 329 79 494 220 563 480 27 101 29 310 5 500 -9 72 -68 537
-131 1035 -190 1502 -263 2216 -335 3310 -106 1612 -165 3963 -141 5575 28
1861 101 3427 266 5740 35 495 89 1265 120 1710 83 1221 113 1627 300 4065 8
107 44 607 80 1110 36 503 101 1383 145 1955 331 4331 422 5791 475 7565 51
1729 98 2586 220 4045 151 1796 174 2104 325 4300 35 516 45 888 32 1186 -33
726 -137 1042 -381 1162 l-66 32 -935 6 c-514 4 -1153 14 -1420 23 -619 20
-1007 34 -1140 41 -202 10 -939 35 -1495 50 -1905 51 -2844 93 -4720 210
-1780 111 -2723 150 -4760 195 -1475 32 -4942 38 -6720 11 -4425 -68 -6017
-116 -8220 -246 -1936 -116 -3622 -256 -6485 -540 -3687 -366 -5182 -467
-7595 -515 -1294 -26 -1742 -47 -2170 -101 -389 -49 -718 -131 -890 -222 -91
-49 -179 -136 -220 -221 -66 -135 -66 -132 14 -881 100 -937 172 -1672 236
-2411 30 -353 75 -853 100 -1110 155 -1612 183 -2056 280 -4464 131 -3264 119
-4476 -85 -8435 -117 -2261 -207 -3574 -390 -5680 -116 -1331 -157 -1897 -230
-3135 -124 -2129 -156 -3053 -167 -4750 -6 -1003 0 -1414 32 -2200 41 -996 69
-1467 200 -3300 100 -1399 133 -1935 155 -2480 5 -146 13 -303 16 -350 3 -47
9 -836 13 -1755 9 -1812 10 -1829 66 -2111 82 -408 247 -594 528 -594 216 0
1507 97 2062 155 316 34 824 84 1400 140 311 30 495 52 1500 175 1059 131
1333 170 1795 261 369 73 591 126 1115 270 99 27 185 49 191 49 7 0 33 -52 58
-115 167 -418 433 -1049 655 -1555 44 -102 81 -191 81 -197 0 -7 -10 -13 -22
-13 -37 0 -484 -71 -1058 -169 -599 -101 -1755 -285 -2075 -330 -400 -57
-1201 -146 -1715 -191 -129 -11 -516 -40 -860 -65 -344 -25 -832 -61 -1085
-80 -835 -63 -1701 -118 -2325 -150 -847 -42 -1043 -49 -1445 -49 -385 -1
-438 1 -510 18 -183 42 -282 124 -402 331 -136 235 -286 705 -388 1216 -248
1252 -200 2482 181 4544 116 631 291 1554 454 2395 253 1307 354 1890 465
2665 194 1357 337 2927 395 4340 43 1056 43 2978 0 4280 -35 1050 -110 2385
-225 4004 -88 1224 -140 1841 -289 3371 -97 987 -148 1605 -221 2640 -81 1149
-154 2152 -200 2755 -83 1092 -130 1841 -205 3280 -22 424 -54 1011 -70 1305
-59 1064 -91 1820 -136 3250 -32 1010 -30 2607 6 3960 6 201 19 718 30 1150
42 1676 67 2039 153 2222 46 100 171 199 407 322 1263 658 3541 1077 6960
1281 880 52 1763 78 3264 95 1174 14 2246 2 4701 -50 2549 -54 3401 -64 4930
-56 3098 16 5214 56 7740 146 1515 54 2412 102 4970 265 2284 145 3212 198
4500 255 2157 95 3502 118 8310 140 1155 5 2438 15 2850 20 1469 21 1658 22
1935 10z m-16700 -3339 c1485 -34 1751 -41 2435 -66 900 -33 1453 -61 2645
-135 1969 -122 2864 -162 4675 -210 521 -14 919 -27 1520 -50 1381 -54 2242
-74 2862 -67 l503 6 15 -52 c24 -81 53 -306 66 -507 14 -224 6 -775 -16 -1105
-42 -626 -158 -2288 -180 -2570 -29 -370 -54 -677 -130 -1585 -76 -909 -92
-1111 -115 -1455 -57 -856 -98 -1752 -130 -2860 -32 -1109 -74 -1986 -155
-3205 -60 -897 -200 -2825 -325 -4460 -44 -575 -104 -1394 -135 -1820 -67
-945 -96 -1326 -185 -2490 -83 -1076 -131 -1736 -205 -2820 -30 -443 -82
-1181 -115 -1640 -153 -2153 -224 -3597 -261 -5315 -13 -603 -7 -2491 10
-3095 49 -1733 100 -2741 197 -3885 61 -731 114 -1201 279 -2505 138 -1085
139 -1093 133 -1194 -6 -92 -9 -96 -108 -127 -235 -73 -825 -110 -2270 -144
-1050 -25 -1772 -57 -2800 -125 -1229 -81 -1743 -101 -2864 -107 l-928 -6 6
39 c18 117 108 1155 161 1863 19 255 37 466 39 468 2 2 48 8 102 14 355 33
932 84 1239 109 1170 96 2586 255 3120 350 212 37 427 116 552 201 122 84 228
208 303 359 125 249 226 733 289 1385 59 599 65 906 55 2530 -5 754 -8 1584
-6 1845 8 1385 79 2988 202 4580 58 739 217 2611 275 3240 161 1719 186 2021
249 2915 25 352 48 673 52 713 l6 72 61 44 c34 23 148 103 252 176 649 456
979 707 1048 800 172 228 131 561 -114 940 -86 133 -174 235 -346 399 -173
164 -213 194 -308 222 -38 12 -101 32 -138 45 -80 28 -188 32 -244 9 -20 -8
-38 -13 -40 -11 -2 2 12 255 31 562 40 633 64 1049 101 1734 39 719 61 1100
110 1840 25 371 58 893 75 1160 34 552 66 1025 115 1745 41 599 66 1004 100
1620 181 3280 216 3757 390 5365 157 1448 257 2656 240 2900 -16 228 -71 369
-189 485 -166 163 -408 231 -956 266 -211 13 -1419 13 -2455 -1 -2698 -36
-3974 -49 -5325 -55 -657 -3 -1231 -8 -1275 -10 -44 -3 -1725 -7 -3735 -10
-4256 -7 -4911 -13 -6340 -60 -1286 -43 -2165 -82 -3570 -160 -443 -25 -1194
-65 -1670 -90 -476 -25 -1144 -61 -1485 -80 -1487 -83 -3242 -162 -5995 -270
-355 -14 -892 -36 -1195 -50 -1889 -85 -2934 -123 -3990 -145 -264 -5 -547
-12 -630 -15 -82 -3 -339 -12 -570 -20 -786 -28 -1497 -66 -1621 -85 -282 -45
-483 -247 -569 -572 -73 -280 -104 -639 -145 -1693 -43 -1102 -65 -1534 -185
-3505 -95 -1556 -110 -1794 -175 -2780 -136 -2055 -176 -2774 -225 -4120 -56
-1520 -79 -2753 -90 -4705 -20 -3882 -22 -3989 -115 -6255 -115 -2815 -171
-4945 -172 -6505 0 -1087 22 -1667 122 -3280 72 -1140 197 -2798 246 -3250 47
-441 109 -780 171 -945 75 -202 221 -348 423 -424 226 -84 596 -113 1760 -136
278 -6 694 -14 925 -20 782 -18 1969 -33 2160 -27 105 4 270 14 368 23 98 9
179 15 181 13 4 -4 133 -319 283 -689 108 -265 333 -840 333 -849 0 -9 -449
-132 -730 -201 -358 -88 -906 -188 -1370 -250 -246 -32 -1454 -182 -1860 -229
-140 -17 -446 -49 -680 -71 -515 -49 -704 -68 -1140 -115 -653 -69 -2021 -168
-2041 -148 -15 15 -37 104 -53 218 -34 231 -38 419 -41 1930 -1 918 -6 1607
-13 1775 -38 907 -52 1140 -187 3047 -126 1795 -149 2186 -190 3238 -54 1403
-31 3410 60 5270 87 1763 167 2969 295 4445 199 2296 284 3510 400 5745 87
1685 120 2454 160 3750 42 1344 18 2740 -90 5335 -84 2010 -112 2435 -250
3865 -27 281 -75 801 -105 1155 -76 886 -147 1608 -255 2604 -28 253 -50 463
-50 467 0 21 268 93 475 128 426 71 851 94 2185 121 2583 52 4094 154 7950
540 1790 179 2804 270 4175 374 3198 244 5320 322 10785 396 813 11 5317 4
5880 -9z m11095 -3151 c363 -16 568 -41 675 -83 70 -28 79 -51 79 -209 2 -313
-98 -1488 -229 -2708 -95 -879 -96 -882 -129 -1250 -79 -852 -125 -1562 -261
-4020 -45 -811 -65 -1140 -120 -1945 -27 -401 -70 -1052 -95 -1445 -25 -393
-65 -1019 -90 -1390 -25 -371 -61 -961 -80 -1310 -19 -349 -46 -840 -60 -1090
-23 -412 -42 -725 -108 -1775 l-22 -339 -235 -174 c-328 -243 -1123 -816
-1315 -948 -88 -61 -295 -201 -460 -311 -412 -276 -1079 -739 -1315 -913 -256
-188 -670 -493 -945 -694 -347 -254 -934 -697 -1115 -841 -91 -73 -195 -164
-232 -203 -184 -196 -217 -467 -87 -738 43 -92 177 -285 247 -357 162 -166
380 -194 675 -86 286 105 1045 519 1692 923 307 191 885 538 1567 939 622 366
722 427 1078 652 144 91 266 165 270 165 4 0 6 -19 4 -42 -2 -24 -18 -236 -35
-473 -38 -543 -86 -1121 -149 -1810 -115 -1237 -153 -1667 -229 -2565 -169
-1996 -204 -2480 -266 -3665 -67 -1299 -76 -1979 -65 -4840 5 -1314 -2 -1570
-61 -2135 -51 -499 -134 -920 -218 -1105 -33 -73 -96 -146 -156 -181 -60 -34
-172 -71 -289 -93 -189 -37 -956 -138 -1396 -186 -594 -63 -1136 -115 -1625
-155 -203 -16 -586 -50 -850 -74 -264 -24 -481 -43 -482 -42 -2 1 6 142 17
312 47 752 94 1857 120 2874 13 489 13 1820 0 2165 -6 149 -21 518 -35 820
-14 303 -34 784 -45 1070 -11 286 -34 849 -50 1250 -17 402 -46 1140 -65 1640
-55 1435 -56 1447 -171 2885 -70 881 -98 1176 -144 1540 -97 754 -185 1112
-360 1455 -210 413 -578 701 -1145 898 -203 70 -828 211 -1225 276 -367 60
-1002 132 -1341 152 -266 15 -760 7 -899 -15 -180 -29 -360 -80 -494 -140 -33
-14 -61 -24 -64 -21 -3 2 -11 170 -18 372 -7 203 -18 467 -24 588 -9 197 -19
479 -50 1460 -5 165 -14 568 -20 895 -22 1256 -38 1525 -116 1892 -99 468
-302 794 -649 1043 -306 219 -632 331 -1275 439 -367 62 -669 98 -1050 128
-228 17 -1080 17 -1260 0 -299 -29 -556 -74 -762 -132 -57 -16 -105 -26 -108
-23 -3 2 -6 48 -8 101 -9 371 -34 643 -78 862 -115 582 -329 922 -754 1203
-273 180 -604 295 -1130 391 -322 59 -359 61 -980 61 -487 0 -600 -3 -740 -18
-229 -25 -1019 -141 -1170 -172 -286 -58 -649 -167 -893 -266 -450 -185 -830
-490 -1078 -866 -322 -488 -483 -1109 -587 -2253 -15 -160 -21 -194 -33 -191
-7 2 -62 19 -120 37 -332 102 -612 134 -1189 134 -379 0 -517 -10 -1370 -95
-557 -56 -1027 -190 -1330 -378 -140 -87 -314 -241 -411 -362 -112 -140 -256
-408 -334 -619 -153 -414 -253 -985 -314 -1781 -33 -421 -48 -753 -76 -1600
-9 -253 -24 -685 -35 -960 -66 -1692 -77 -2723 -46 -4180 9 -407 20 -1026 26
-1375 10 -631 17 -850 45 -1510 8 -190 19 -455 25 -590 15 -351 58 -1531 69
-1890 13 -382 25 -1237 19 -1230 -3 3 -64 152 -136 331 -334 832 -563 1358
-1074 2469 -226 492 -640 1242 -899 1630 -315 471 -589 713 -956 846 -240 87
-395 108 -738 101 -529 -10 -931 -88 -1440 -279 -494 -186 -857 -370 -1275
-647 -303 -201 -447 -311 -685 -522 -473 -419 -748 -821 -855 -1249 -42 -164
-60 -315 -67 -551 -20 -683 139 -1327 657 -2664 353 -910 428 -1116 810 -2245
255 -753 281 -829 380 -1105 218 -611 643 -1705 938 -2415 49 -118 126 -304
172 -413 45 -109 80 -201 77 -203 -27 -27 -962 -29 -2137 -4 -256 6 -784 17
-1175 25 -1458 31 -1693 54 -1754 173 -57 111 -122 498 -170 1012 -30 314
-145 1822 -186 2430 -69 1039 -120 1957 -147 2680 -16 416 -16 1944 0 2680 42
1943 77 3038 162 5105 80 1944 94 2606 105 4960 13 2799 28 3835 80 5440 49
1490 97 2413 235 4490 66 991 87 1328 190 3020 107 1771 135 2307 180 3450 46
1180 91 1545 201 1627 19 15 53 21 150 28 410 31 1741 83 2509 100 1181 25
2157 60 4050 145 305 14 899 39 1320 55 2909 115 4418 183 5975 270 391 22
1059 58 1485 80 426 22 1178 63 1670 90 1328 73 2214 113 3440 155 1650 55
1660 55 8575 70 2792 6 4925 22 7230 56 1786 26 2935 33 3260 19z m-20163
-12560 c304 -29 715 -128 831 -200 63 -40 81 -73 111 -199 44 -187 55 -337 76
-1051 5 -195 17 -593 26 -885 28 -885 14 -1623 -56 -3060 -5 -104 -10 -604
-10 -1110 -2 -1050 -6 -990 88 -1175 l48 -95 -7 -925 c-4 -509 -13 -1204 -18
-1545 -6 -341 -16 -993 -21 -1450 -23 -1798 -61 -3456 -95 -4075 -3 -58 -14
-265 -25 -460 -63 -1142 -91 -2451 -56 -2633 81 -423 473 -689 887 -602 279
59 483 254 591 565 31 91 33 101 33 250 0 134 -3 165 -23 227 l-22 72 9 408
c17 669 28 959 66 1658 61 1151 89 2165 115 4215 10 834 26 1897 35 2430 3
173 10 864 16 1535 5 671 14 1391 20 1600 6 209 12 911 14 1560 4 1297 14
1620 61 1949 24 167 83 355 122 389 39 33 286 97 487 126 607 86 1561 32 2375
-135 246 -50 376 -97 424 -154 15 -19 31 -61 44 -117 57 -244 62 -353 92
-1868 12 -589 43 -1591 65 -2105 8 -190 19 -475 25 -635 6 -159 18 -459 28
-665 14 -318 17 -592 17 -1810 -1 -1393 -6 -1717 -35 -2115 -19 -248 33 -437
165 -600 l32 -40 7 -265 c3 -146 11 -350 16 -455 10 -200 33 -840 50 -1430 6
-192 15 -484 20 -648 6 -163 10 -516 10 -785 0 -500 9 -788 35 -1112 16 -203
38 -598 56 -1015 9 -214 9 -286 -1 -350 -7 -48 -11 -127 -8 -191 8 -179 69
-326 192 -460 228 -250 584 -325 880 -185 159 75 278 191 356 345 63 127 82
214 81 391 0 284 -45 1205 -77 1585 -11 129 -18 407 -24 920 -4 404 -13 888
-19 1075 -7 187 -23 678 -37 1090 -13 413 -29 831 -34 930 -18 325 -23 1061
-11 1455 35 1117 70 1556 162 2015 69 348 209 641 327 688 161 64 643 48 1428
-48 405 -50 531 -71 1022 -176 344 -73 500 -124 636 -206 53 -32 62 -44 92
-108 65 -141 110 -339 163 -715 65 -463 87 -690 186 -1935 82 -1032 98 -1296
130 -2160 39 -1026 158 -3974 180 -4465 57 -1247 59 -1986 10 -3475 -39 -1183
-79 -1939 -165 -3110 -146 -1972 -219 -2661 -449 -4235 -49 -338 -120 -831
-156 -1095 -125 -911 -179 -1249 -285 -1805 -201 -1048 -492 -2242 -695 -2845
-240 -715 -477 -1083 -935 -1451 -530 -426 -1083 -766 -1750 -1075 -328 -151
-969 -415 -1175 -482 -285 -94 -1104 -297 -1471 -366 -394 -74 -1539 -208
-2049 -241 -639 -41 -3620 -41 -4840 0 -943 32 -1933 158 -2634 336 -690 176
-1156 347 -1696 623 -852 436 -1555 986 -2202 1721 -253 290 -493 610 -788
1055 -412 622 -638 1014 -1082 1880 -352 685 -520 1039 -1098 2310 -829 1824
-1199 2677 -1602 3695 -121 306 -147 373 -268 680 -209 534 -326 822 -923
2260 -313 757 -583 1440 -843 2139 -135 361 -208 569 -454 1296 -422 1244
-471 1382 -751 2110 -270 704 -293 766 -356 940 -146 412 -260 808 -303 1060
-35 204 -39 516 -8 644 39 165 325 473 684 738 299 222 622 411 924 543 481
209 803 290 1215 307 188 7 217 0 290 -75 144 -148 547 -825 825 -1387 118
-239 613 -1325 772 -1694 200 -467 588 -1431 788 -1961 357 -946 679 -1715
1032 -2458 144 -305 176 -383 217 -537 103 -384 382 -615 741 -615 293 0 541
158 665 425 21 44 43 102 49 129 7 26 25 75 41 107 61 120 90 289 70 414 -25
163 -51 379 -79 660 -51 517 -64 747 -86 1595 -8 316 -19 735 -25 930 -5 195
-12 558 -15 805 -10 753 -46 1902 -100 3165 -8 195 -22 513 -30 705 -8 193
-19 595 -25 895 -5 300 -14 784 -20 1075 -5 292 -15 784 -21 1095 -20 981 -2
2153 56 3570 8 195 24 627 35 960 45 1340 85 1895 176 2412 64 368 166 653
256 718 87 63 399 137 718 169 741 76 940 91 1195 91 350 0 595 -23 735 -67
53 -17 56 -20 72 -68 60 -182 178 -894 262 -1575 25 -201 65 -498 90 -660 50
-327 75 -531 106 -846 20 -208 39 -304 79 -396 18 -42 20 -85 30 -539 22 -962
80 -2286 171 -3894 75 -1324 101 -1935 130 -3095 17 -675 28 -930 80 -1850 11
-190 26 -493 35 -675 30 -637 88 -1597 106 -1755 45 -389 283 -675 621 -744
231 -47 470 18 643 176 106 96 188 237 221 376 21 86 21 256 0 342 -19 84 -66
807 -106 1650 -11 234 -27 540 -35 680 -52 921 -60 1099 -80 1840 -33 1260
-53 1732 -130 3100 -45 798 -58 1052 -100 1950 -47 1015 -53 1165 -70 1930
-16 707 -29 1192 -45 1615 -11 282 -34 2346 -33 2905 2 806 103 1740 237 2183
91 298 192 446 394 578 133 87 481 206 784 268 229 47 1038 156 1218 164 176
8 758 6 852 -3z m20627 -5397 c59 -60 131 -143 160 -186 50 -75 111 -191 111
-212 0 -25 -571 -439 -1220 -886 -495 -341 -1003 -657 -2020 -1254 -422 -248
-1049 -625 -1340 -805 -353 -219 -433 -266 -795 -470 -319 -179 -627 -341
-748 -391 -87 -36 -82 -37 -123 38 -15 27 -16 34 -4 48 37 44 715 561 1240
945 124 90 362 265 530 389 168 124 361 266 430 316 262 192 688 486 1295 895
565 381 1024 707 1798 1278 381 282 549 402 565 402 7 0 62 -48 121 -107z"/>
<path d="M55833 49516 c-266 -51 -440 -185 -538 -416 -33 -77 -38 -161 -13
-200 9 -14 22 -45 28 -70 61 -234 345 -420 581 -381 90 15 210 61 285 110 125
80 245 252 273 389 48 233 -86 478 -301 552 -80 27 -218 34 -315 16z m234
-332 c45 -34 66 -70 71 -123 12 -130 -128 -270 -296 -297 -82 -13 -222 85
-222 155 0 16 -4 41 -10 56 -18 47 26 111 115 169 95 61 284 83 342 40z"/>
<path d="M49857 48689 c-99 -13 -205 -51 -346 -125 -178 -94 -220 -123 -318
-221 -285 -285 -388 -770 -252 -1186 71 -219 189 -374 377 -497 163 -107 309
-146 516 -137 165 6 256 29 401 101 177 89 329 218 452 383 165 223 230 434
220 716 -6 179 -35 295 -106 434 -97 186 -193 289 -377 399 -213 128 -352 160
-567 133z m234 -325 c65 -19 176 -79 257 -139 102 -74 197 -231 227 -371 21
-101 19 -271 -5 -372 -67 -279 -338 -555 -615 -627 -88 -22 -247 -20 -329 5
-79 25 -200 104 -256 168 -131 148 -195 405 -161 642 25 168 119 371 211 454
22 20 66 48 98 62 31 14 73 40 92 59 19 19 69 50 111 70 130 62 266 80 370 49z"/>
<path d="M53725 48513 c-97 -14 -393 -108 -452 -144 -18 -11 -41 -34 -51 -52
-21 -34 -42 -118 -42 -167 0 -16 36 -190 81 -387 44 -197 107 -482 139 -634
112 -524 243 -1048 390 -1564 157 -548 178 -605 257 -681 83 -81 201 -100 386
-63 121 25 206 104 245 228 31 102 22 302 -27 591 -46 269 -140 758 -232 1200
-33 157 -102 501 -154 766 -135 685 -154 754 -235 835 -69 69 -165 91 -305 72z
m112 -408 c12 -49 70 -328 128 -620 57 -291 152 -764 210 -1050 145 -714 197
-1017 198 -1172 1 -66 -1 -124 -4 -127 -3 -4 -30 -7 -59 -9 l-54 -2 -22 65
c-33 94 -175 588 -246 850 -89 332 -189 749 -274 1145 -41 193 -104 477 -139
633 -36 156 -65 289 -65 296 0 8 44 26 108 44 202 58 190 61 219 -53z"/>
<path d="M57131 47874 c-71 -19 -104 -40 -172 -111 -87 -90 -844 -1061 -1258
-1613 -382 -510 -835 -1150 -866 -1224 -32 -75 -14 -128 80 -248 155 -196 242
-251 360 -226 133 28 270 164 1146 1128 167 184 396 434 509 555 603 647 831
910 898 1039 34 66 38 179 8 241 -11 22 -82 102 -158 177 -193 193 -292 262
-406 287 -65 14 -74 13 -141 -5z m156 -353 c26 -21 92 -81 147 -132 l98 -94
-38 -50 c-106 -140 -307 -366 -724 -815 -330 -355 -532 -575 -775 -845 -283
-314 -520 -567 -645 -690 l-112 -110 -29 35 c-15 19 -29 41 -29 49 0 36 604
873 1079 1491 275 359 878 1129 914 1168 17 17 39 32 48 32 9 0 39 -17 66 -39z"/>
<path d="M51905 47570 c-159 -15 -247 -44 -341 -116 -61 -46 -94 -84 -123
-142 -12 -24 -42 -69 -65 -100 -55 -73 -73 -119 -86 -229 -6 -48 -31 -227 -55
-398 -24 -170 -53 -389 -64 -485 -35 -302 -150 -1436 -191 -1895 -22 -242 -56
-609 -75 -815 -133 -1419 -172 -1959 -155 -2129 12 -110 48 -226 97 -311 57
-98 181 -218 273 -262 204 -100 535 -137 695 -77 187 69 304 213 391 482 88
272 203 882 359 1897 42 272 98 632 125 800 72 450 119 770 220 1505 49 363
113 815 140 1005 59 403 72 599 46 718 -44 206 -182 366 -385 445 -215 83
-561 129 -806 107z m420 -704 c113 -24 107 -19 100 -95 -4 -36 -31 -235 -61
-442 -29 -207 -88 -625 -129 -930 -101 -740 -143 -1027 -220 -1509 -36 -223
-90 -569 -120 -770 -133 -869 -257 -1548 -326 -1784 l-21 -68 -40 6 c-76 12
-78 16 -78 120 0 174 67 1022 135 1721 14 138 45 482 70 765 25 283 63 686 85
895 22 209 55 540 75 735 20 195 45 432 56 525 21 180 105 793 115 834 l5 24
142 -6 c78 -3 174 -12 212 -21z"/>
<path d="M57530 45764 c-36 -14 -76 -29 -90 -33 -114 -37 -313 -222 -702 -651
-117 -130 -1066 -1232 -1434 -1666 -149 -175 -709 -821 -1245 -1434 -1472
-1684 -1581 -1816 -1674 -2012 -121 -256 -35 -512 277 -819 361 -356 637 -291
1343 320 427 369 1383 1273 2163 2046 465 460 1594 1624 1987 2050 489 529
590 647 641 747 59 117 73 277 34 403 -69 222 -274 478 -575 720 -55 44 -149
121 -210 171 -60 50 -130 104 -154 119 -112 70 -244 84 -361 39z m259 -829
c142 -114 253 -220 319 -303 36 -46 40 -56 29 -71 -18 -27 -471 -524 -643
-706 -442 -469 -1291 -1339 -1786 -1830 -1223 -1216 -2191 -2113 -2522 -2338
l-60 -40 -38 43 c-21 23 -38 48 -38 54 0 13 228 298 386 483 60 70 374 432
699 803 324 371 774 887 1000 1145 225 259 523 602 660 764 1152 1357 1809
2101 1856 2101 4 0 66 -47 138 -105z"/>
<path d="M48657 44229 c-187 -46 -398 -202 -470 -348 -29 -59 -32 -76 -35
-173 -10 -292 108 -507 342 -625 82 -41 200 -73 272 -73 226 0 505 243 598
520 92 276 -7 507 -276 640 -158 78 -284 96 -431 59z m290 -344 c99 -49 128
-87 128 -170 0 -51 -7 -75 -38 -138 -46 -92 -126 -182 -197 -221 -65 -35 -113
-32 -205 13 -109 54 -165 151 -165 288 0 50 5 72 24 101 43 69 123 126 221
159 63 21 148 9 232 -32z"/>
<path d="M55675 36806 c-121 -29 -224 -81 -344 -176 -166 -131 -275 -495 -242
-808 41 -396 218 -670 523 -811 289 -135 559 -78 860 181 158 136 305 384 360
607 16 65 22 116 21 211 0 152 -21 241 -89 380 -64 130 -170 238 -294 298
-165 79 -355 120 -590 127 -103 4 -162 1 -205 -9z m330 -317 c189 -23 342 -80
413 -152 51 -52 89 -133 110 -236 14 -69 15 -91 4 -167 -21 -145 -95 -304
-199 -430 -57 -69 -178 -163 -263 -203 -69 -33 -82 -36 -165 -36 -83 0 -96 3
-169 37 -105 51 -199 144 -249 248 -108 226 -111 541 -7 755 24 51 40 68 102
111 70 48 109 68 153 77 40 9 182 7 270 -4z"/>
<path d="M11841 67965 c-54 -17 -106 -66 -126 -119 -8 -23 -21 -111 -30 -196
-16 -162 -143 -959 -155 -973 -4 -5 -56 106 -115 245 -160 375 -313 686 -357
724 -71 62 -163 70 -238 20 -55 -36 -84 -95 -84 -171 -1 -56 6 -74 111 -290
92 -191 163 -349 270 -602 l13 -33 -62 24 c-137 51 -289 117 -406 174 -134 67
-187 80 -250 62 -51 -13 -110 -63 -128 -107 -34 -80 -7 -187 58 -236 71 -53
382 -193 640 -288 81 -30 148 -57 148 -61 0 -15 -592 -336 -866 -469 -223
-109 -246 -124 -274 -180 -73 -142 51 -308 212 -283 56 9 533 249 902 454 159
88 291 159 293 157 1 -2 -4 -53 -12 -114 -8 -60 -37 -310 -65 -554 -28 -244
-54 -464 -56 -489 -3 -25 -14 -71 -25 -103 -10 -31 -19 -65 -19 -75 0 -68 64
-162 127 -189 18 -7 55 -13 83 -13 97 0 175 64 204 169 8 31 34 216 56 411 22
195 42 359 43 364 2 4 29 -48 61 -117 32 -68 71 -139 87 -156 35 -39 102 -71
149 -71 78 0 172 74 186 145 15 81 1 122 -169 490 -92 197 -164 361 -162 363
2 2 52 -12 112 -32 231 -76 910 -284 950 -291 150 -25 280 119 238 263 -24 79
-108 142 -191 142 -18 0 -775 232 -848 260 -17 6 -25 14 -20 19 12 11 473 269
734 411 226 122 280 166 300 241 23 85 -12 174 -87 220 -29 18 -52 24 -98 24
-54 0 -71 -6 -170 -59 -118 -64 -775 -429 -837 -466 -34 -20 -38 -20 -38 -5 0
10 29 189 64 399 71 415 111 729 101 789 -14 91 -72 157 -155 176 -54 12 -45
13 -99 -4z"/>
</g>
</svg>
