<?xml version="1.0" standalone="no"?>
<!DOCTYPE svg PUBLIC "-//W3C//DTD SVG 20010904//EN"
 "http://www.w3.org/TR/2001/REC-SVG-20010904/DTD/svg10.dtd">
<svg version="1.0" xmlns="http://www.w3.org/2000/svg"
 width="7647.000000pt" height="8073.000000pt" viewBox="0 0 7647.000000 8073.000000"
 preserveAspectRatio="xMidYMid meet">

<g transform="translate(0.000000,8073.000000) scale(0.100000,-0.100000)"
fill="#000000" stroke="none">
<path d="M30000 77180 c-307 -27 -620 -161 -900 -387 -104 -84 -281 -269 -368
-386 -237 -315 -442 -763 -567 -1240 -187 -711 -219 -1575 -105 -2807 11 -118
22 -225 25 -237 5 -20 0 -22 -58 -27 -34 -3 -249 -10 -477 -16 -411 -11 -997
-34 -1159 -45 -83 -6 -83 -6 -78 17 31 131 33 1193 3 1548 -63 730 -159 1189
-350 1675 -63 161 -193 427 -276 566 -474 788 -1137 1124 -1855 939 -352 -91
-705 -300 -995 -590 -372 -371 -659 -920 -854 -1632 -188 -687 -260 -1334
-261 -2351 0 -520 0 -528 -20 -532 -11 -2 -85 -11 -165 -20 -80 -9 -311 -36
-514 -61 -203 -24 -379 -44 -391 -44 -21 0 -19 9 51 196 215 570 340 1102 398
1699 40 400 44 847 11 1158 -70 666 -298 1169 -725 1598 -426 430 -959 710
-1541 810 -156 27 -569 38 -730 20 -569 -65 -1140 -384 -1684 -942 -610 -625
-985 -1398 -1209 -2484 -105 -513 -144 -926 -153 -1610 -8 -629 17 -1153 78
-1613 11 -86 23 -182 25 -212 l5 -55 -97 -55 c-145 -82 -520 -333 -673 -450
-768 -590 -1361 -1290 -1808 -2135 -250 -475 -519 -1084 -733 -1664 -678
-1842 -1020 -3542 -1132 -5626 -17 -310 -16 -1588 0 -2100 36 -1083 56 -1440
177 -3140 77 -1076 101 -1446 160 -2505 25 -443 63 -1104 85 -1470 22 -366 63
-1038 91 -1495 27 -456 76 -1228 109 -1715 128 -1912 163 -2733 190 -4530 30
-1973 -14 -3907 -165 -7230 -78 -1716 -97 -2657 -96 -4645 0 -753 5 -1748 11
-2210 6 -462 15 -1832 20 -3045 8 -2056 13 -2403 40 -3115 55 -1424 108 -2257
250 -3900 122 -1407 169 -1990 225 -2765 87 -1210 165 -1825 315 -2476 181
-789 432 -1395 796 -1928 386 -562 931 -1068 1591 -1479 815 -506 1903 -945
3088 -1247 1502 -382 3135 -571 5540 -640 2407 -69 6503 -4 10630 170 391 16
1014 41 1385 55 371 14 956 36 1300 50 788 31 1414 50 2465 75 457 10 936 22
1065 25 129 3 525 12 880 20 355 9 922 22 1260 30 338 8 1000 22 1470 30 470
8 1175 22 1565 30 2422 50 3801 70 8345 115 4348 44 7441 219 9275 526 1307
218 2191 551 2897 1091 338 258 692 627 974 1013 321 439 711 1166 955 1778
306 765 584 1750 753 2662 59 320 175 1018 225 1362 163 1114 199 1578 251
3293 6 187 22 666 35 1065 58 1706 70 2460 55 3529 -16 1183 -43 2017 -125
3826 -48 1072 -61 1495 -75 2440 -6 391 -17 1066 -26 1500 -26 1232 -21 2650
16 4460 40 1969 66 2506 235 4830 77 1057 92 1308 115 1935 24 644 31 1004 40
2030 13 1467 24 1821 90 2875 74 1179 85 1468 85 2335 0 747 -3 829 -50 1740
-38 731 -44 875 -65 1715 -19 788 -22 867 -40 1405 -17 479 -86 1829 -125
2460 -36 566 -125 1681 -170 2130 -84 828 -241 1825 -401 2555 -205 934 -510
1924 -777 2525 -30 69 -80 181 -110 250 -250 571 -514 1052 -799 1460 -131
187 -388 525 -503 663 -157 188 -419 461 -600 627 -88 80 -176 161 -197 180
l-39 35 51 170 c405 1359 514 2501 344 3605 -79 509 -203 930 -388 1315 -125
260 -242 428 -435 628 -266 276 -514 424 -831 499 -110 25 -428 36 -552 19
-514 -74 -1052 -410 -1404 -877 -194 -259 -403 -683 -532 -1084 -131 -406
-255 -990 -297 -1400 -46 -451 -42 -971 11 -1489 l7 -64 -222 5 c-122 3 -224
8 -227 11 -3 3 1 63 10 134 76 630 86 1369 31 2098 -63 823 -194 1440 -426
2011 -116 287 -279 615 -402 809 -276 436 -614 687 -1058 787 -91 20 -130 23
-309 23 -154 -1 -230 -5 -305 -19 -536 -97 -996 -345 -1434 -771 -684 -665
-1093 -1611 -1355 -3135 -86 -501 -177 -1224 -202 -1604 l-7 -109 -161 6 c-89
4 -327 11 -531 17 -203 6 -435 13 -514 16 l-143 6 6 87 c27 358 34 870 16
1236 -66 1352 -313 2228 -818 2905 -103 138 -326 363 -439 443 -644 457 -1483
335 -2099 -304 -313 -325 -572 -809 -748 -1399 -176 -594 -269 -1380 -283
-2397 l-6 -433 -61 0 c-44 0 -1055 38 -1062 40 -1 0 1 143 4 318 8 530 -29
873 -145 1337 -325 1304 -1158 2439 -2168 2955 -636 325 -1287 330 -1930 16
-607 -298 -1055 -829 -1381 -1640 -289 -718 -474 -1614 -501 -2429 l-6 -197
-46 5 c-48 6 -468 37 -1081 80 -195 14 -638 43 -984 64 -345 22 -630 42 -633
44 -2 3 3 56 11 118 48 357 69 677 69 1084 0 669 -68 1173 -219 1623 -165 490
-457 914 -861 1252 -584 488 -1290 623 -1989 379 -138 -48 -378 -169 -509
-257 -167 -112 -271 -197 -410 -337 -263 -263 -464 -555 -655 -948 -262 -542
-429 -1139 -494 -1777 -23 -219 -39 -587 -33 -749 l5 -143 -121 6 c-166 9
-1204 44 -1507 51 -135 3 -281 8 -325 11 l-80 5 3 122 c5 157 -14 625 -33 837
-64 703 -227 1497 -430 2090 -117 341 -289 716 -432 943 -327 516 -767 887
-1222 1031 -155 49 -363 71 -531 56z m255 -1557 c328 -276 592 -901 781 -1849
96 -484 134 -840 141 -1312 l5 -342 -813 2 -814 3 -16 151 c-26 228 -57 623
-70 868 -15 295 -7 934 15 1121 49 411 132 723 271 1011 99 208 202 344 314
415 l44 28 36 -18 c20 -11 67 -46 106 -78z m-11649 -58 c400 -70 816 -385 943
-714 78 -203 104 -390 103 -756 -2 -723 -127 -1345 -409 -2025 -103 -247 -340
-712 -386 -757 -7 -6 -113 -30 -237 -53 -612 -112 -1352 -293 -1873 -457 -98
-31 -180 -53 -183 -50 -10 9 -33 323 -45 607 -13 305 -7 889 11 1140 28 395
82 733 175 1095 173 675 404 1120 775 1494 251 253 505 422 715 476 71 19 304
18 411 0z m5673 -266 c135 -137 301 -451 396 -749 144 -459 214 -1101 202
-1865 -5 -313 -29 -730 -43 -744 -4 -4 -1552 -120 -1615 -121 l-27 0 -7 203
c-13 363 18 1037 66 1412 94 746 327 1404 603 1701 96 104 279 224 343 224 13
0 45 -24 82 -61z m34538 -124 c77 -54 293 -470 420 -808 181 -486 275 -1086
305 -1958 17 -493 -4 -964 -62 -1416 -10 -79 -20 -146 -22 -149 -3 -2 -164 5
-359 16 -195 11 -635 31 -979 45 -1025 41 -1175 48 -1179 51 -12 10 54 623
110 1024 240 1722 615 2617 1277 3045 184 118 427 193 489 150z m-21274 -290
c223 -47 505 -312 637 -600 80 -171 141 -421 177 -720 15 -123 18 -227 18
-580 0 -274 -5 -477 -13 -560 -20 -210 -63 -549 -71 -557 -3 -4 -377 13 -831
37 -454 24 -935 49 -1070 55 -135 7 -246 14 -248 15 -8 7 -2 567 8 680 37 444
117 799 267 1180 201 509 462 846 768 991 86 41 196 72 260 73 17 0 61 -6 98
-14z m7987 -291 c203 -68 506 -282 714 -505 493 -530 824 -1260 918 -2029 16
-128 18 -744 3 -758 -6 -6 -104 -5 -260 4 -137 7 -466 25 -730 39 -702 38
-2091 128 -2174 141 l-34 5 6 207 c18 560 97 1035 269 1602 197 653 465 1079
778 1235 192 95 346 113 510 59z m6573 -122 c127 -134 268 -393 356 -657 163
-492 255 -1304 237 -2105 -6 -273 -26 -603 -37 -614 -4 -5 -1042 27 -1305 40
l-122 6 -6 36 c-9 57 -7 471 4 737 48 1144 183 1803 473 2295 91 155 258 318
328 320 9 0 41 -26 72 -58z m11769 -269 c83 -67 158 -167 223 -298 154 -312
252 -711 307 -1250 19 -191 16 -774 -6 -985 -23 -235 -61 -483 -107 -715 -42
-213 -146 -645 -158 -658 -4 -4 -63 18 -132 49 -288 130 -673 266 -959 338
-91 23 -170 45 -176 48 -11 8 -13 20 -39 313 -53 614 -37 1037 59 1546 106
556 262 1006 444 1283 95 144 247 273 390 332 76 31 111 30 154 -3z m-33082
-4315 c-70 -210 -102 -295 -170 -458 -77 -185 -202 -442 -211 -433 -35 36
-283 670 -375 961 l-32 102 423 0 424 0 -59 -172z m-2285 65 c174 -581 333
-1024 521 -1453 83 -190 290 -605 379 -760 l66 -115 -158 -155 c-771 -758
-1677 -1258 -2390 -1320 -410 -36 -906 103 -1340 373 -196 122 -461 335 -643
517 -87 86 -210 222 -210 231 0 4 40 70 89 146 433 676 784 1450 1049 2313 36
118 66 216 66 216 5 9 1085 59 1571 74 193 6 384 12 425 13 41 2 182 4 312 5
l237 2 26 -87z m4603 72 c716 -22 1822 -64 1831 -70 5 -2 14 -33 20 -67 25
-129 122 -510 184 -728 188 -648 447 -1256 768 -1799 l73 -124 -35 -30 c-441
-379 -939 -676 -1369 -817 -425 -140 -911 -163 -1365 -65 -482 104 -923 345
-1445 791 -122 104 -470 448 -470 465 0 5 28 53 61 107 153 241 387 680 519
972 185 409 347 873 470 1338 l11 42 125 0 c68 0 348 -7 622 -15z m4047 -166
c313 -17 571 -32 572 -33 9 -9 -215 -485 -329 -701 -148 -278 -389 -685 -407
-685 -11 0 -150 300 -223 483 -97 243 -200 553 -268 812 -17 66 -34 128 -36
138 -7 23 8 23 691 -14z m-12800 -46 c-12 -53 -142 -389 -219 -568 -93 -217
-257 -551 -270 -548 -13 2 -107 232 -186 454 -62 174 -177 552 -182 599 l-3
25 415 31 c228 17 423 32 434 33 15 1 17 -4 11 -26z m15582 -108 c925 -57
2802 -189 2808 -198 1 -1 21 -83 45 -182 23 -99 75 -295 115 -435 287 -1004
656 -1804 1108 -2403 32 -43 57 -80 55 -82 -1 -2 -75 -44 -163 -95 -576 -329
-1172 -567 -1717 -685 -702 -151 -1445 -147 -2073 11 -676 171 -1366 578
-1929 1140 -165 164 -317 337 -313 354 3 8 64 98 137 200 476 666 937 1543
1221 2318 l33 92 52 0 c29 0 308 -16 621 -35z m-17911 -102 c163 -716 467
-1518 813 -2147 39 -70 71 -133 71 -138 0 -27 -446 -479 -660 -668 -436 -387
-868 -677 -1234 -829 -615 -256 -1318 -235 -1966 58 -455 206 -841 509 -1172
922 -213 265 -411 618 -607 1082 -111 264 -302 809 -288 823 9 9 412 143 552
184 716 208 1474 365 2345 484 551 76 2008 253 2092 255 44 1 48 -1 54 -26z
m22544 -223 c374 -26 1014 -65 1548 -94 244 -14 446 -27 448 -29 11 -11 -164
-335 -324 -602 -267 -445 -636 -934 -950 -1258 l-76 -79 -18 24 c-330 425
-642 1103 -868 1883 -22 77 -43 148 -46 158 -3 9 -2 17 3 17 5 0 132 -9 283
-20z m4555 -231 c439 -16 824 -29 855 -29 l56 0 33 -122 c140 -520 392 -1123
677 -1620 46 -80 84 -151 84 -157 0 -18 -290 -299 -422 -409 -578 -480 -1292
-797 -2038 -906 -518 -76 -1047 -6 -1557 205 -99 41 -432 208 -467 234 -18 14
-15 19 60 101 159 173 346 394 485 574 468 602 892 1320 1179 1997 l74 172 90
-5 c50 -3 451 -18 891 -35z m2853 -95 c45 -3 82 -8 82 -11 0 -23 -257 -493
-270 -493 -12 0 -173 392 -205 498 l-6 22 158 -5 c87 -3 195 -8 241 -11z
m2502 -74 c610 -17 1060 -34 1069 -39 5 -4 28 -118 51 -255 140 -847 332
-1509 629 -2170 39 -87 69 -161 67 -163 -2 -3 -71 -27 -153 -55 -555 -187
-1088 -223 -1653 -113 -531 104 -1019 333 -1465 690 -103 82 -345 312 -345
327 0 5 22 41 49 81 203 302 438 706 615 1057 114 225 254 530 287 624 l14 38
250 -7 c137 -3 401 -10 585 -15z m3120 -115 c201 -8 489 -20 640 -25 401 -16
600 -27 607 -33 3 -3 -24 -61 -59 -129 -234 -443 -521 -842 -859 -1192 -116
-121 -348 -336 -369 -344 -10 -4 -32 44 -115 253 -129 326 -223 641 -314 1055
-29 135 -81 407 -81 429 0 9 25 11 93 6 50 -3 256 -12 457 -20z m4725 -135
c298 -51 631 -163 926 -310 68 -34 125 -63 127 -65 9 -8 -189 -342 -333 -560
-594 -900 -1363 -1585 -2175 -1938 -739 -322 -1406 -393 -1975 -210 -176 56
-359 153 -474 250 l-33 29 118 100 c665 564 1194 1233 1605 2029 86 168 199
413 284 618 l28 68 126 -6 c69 -3 216 -11 326 -16 423 -22 513 -22 685 -4 468
49 557 51 765 15z m-46615 -855 c140 -422 395 -996 606 -1365 200 -352 439
-673 702 -945 406 -418 810 -716 1297 -955 604 -297 1146 -423 1810 -424 290
0 458 14 701 59 626 116 1239 406 1884 893 314 238 555 448 877 766 l212 209
169 -164 c698 -681 1510 -1109 2337 -1228 313 -46 594 -49 902 -10 956 119
2050 701 3020 1606 l132 124 108 -108 c553 -551 1186 -991 1773 -1233 483
-198 984 -293 1550 -293 375 0 629 30 968 114 628 155 1288 497 1923 997 l170
134 206 -212 c429 -440 787 -725 1293 -1031 967 -583 2056 -828 3280 -738
1133 83 2305 501 3402 1215 l128 83 147 -98 c301 -200 714 -420 1008 -536
1027 -407 2063 -425 3190 -58 809 264 1524 690 2115 1259 65 63 121 114 124
114 4 0 62 -50 129 -111 462 -421 1011 -761 1565 -970 1143 -431 2391 -406
3508 72 89 38 165 69 169 69 4 0 69 -60 144 -133 508 -495 1073 -762 1826
-864 185 -25 752 -25 940 0 549 73 1030 216 1556 461 787 368 1533 958 2164
1713 231 276 540 712 720 1016 38 64 72 117 76 117 24 0 422 -514 576 -745
274 -411 619 -1130 831 -1732 272 -769 486 -1621 637 -2533 54 -325 145 -954
145 -1000 l0 -33 -852 7 c-469 3 -997 10 -1173 16 -682 20 -3284 8 -4415 -20
-837 -20 -2404 -58 -3340 -80 -234 -5 -681 -14 -995 -20 -313 -6 -786 -15
-1050 -20 -2000 -42 -3077 -56 -5165 -70 -817 -5 -2275 -15 -3240 -21 -1317
-9 -2229 -9 -3655 0 -2247 14 -2959 25 -4250 66 -2087 67 -4013 90 -6710 81
-1028 -3 -3159 -10 -4735 -15 -1576 -6 -3139 -14 -3475 -20 -1956 -34 -2085
-37 -2805 -66 -2306 -94 -2532 -100 -4335 -130 -1415 -24 -2408 -29 -2840 -16
-362 11 -838 30 -841 34 -3 4 48 431 76 632 152 1090 404 2107 790 3190 259
726 597 1471 859 1892 86 140 250 365 351 483 206 241 715 712 740 683 3 -4
21 -53 40 -108z m49010 -8536 c239 -6 830 -13 1314 -15 483 -2 880 -5 882 -7
13 -12 119 -1933 149 -2687 11 -264 25 -764 40 -1380 18 -749 31 -1119 50
-1500 8 -157 24 -458 35 -670 62 -1220 53 -1969 -45 -3560 -73 -1185 -81
-1436 -100 -3138 -8 -719 -19 -1426 -25 -1572 -30 -834 -43 -1069 -95 -1795
-19 -264 -51 -696 -70 -960 -129 -1789 -166 -2651 -205 -4720 -35 -1945 -35
-2699 0 -4535 5 -272 14 -810 20 -1195 13 -901 25 -1278 75 -2380 14 -297 36
-817 50 -1155 57 -1421 65 -1754 72 -2940 7 -1233 -1 -1637 -62 -3405 -8 -236
-22 -653 -30 -925 -46 -1522 -84 -2000 -241 -3030 -142 -934 -250 -1505 -380
-2010 -266 -1038 -558 -1784 -962 -2460 -344 -575 -716 -934 -1210 -1167 -538
-253 -1336 -428 -2584 -568 -1952 -218 -4641 -331 -8693 -365 -616 -6 -1484
-14 -1930 -20 -445 -5 -1213 -15 -1705 -20 -904 -11 -2453 -35 -2895 -45 -509
-12 -1687 -35 -2510 -50 -859 -15 -1380 -26 -2125 -45 -217 -6 -795 -19 -1285
-30 -2140 -48 -2917 -70 -4065 -115 -344 -14 -870 -34 -1170 -45 -300 -11
-921 -36 -1380 -55 -4202 -174 -8143 -236 -10525 -165 -907 27 -1792 82 -2540
156 -1520 150 -2851 457 -3950 909 -996 410 -1640 868 -2017 1435 -355 532
-560 1319 -677 2590 -11 118 -34 406 -51 640 -60 828 -119 1562 -230 2840 -69
801 -102 1198 -130 1585 -52 732 -108 1848 -130 2605 -5 195 -12 420 -15 500
-4 80 -10 1153 -15 2385 -5 1232 -14 2681 -20 3220 -13 1083 -8 3640 9 4330
21 828 31 1111 81 2235 71 1576 97 2314 152 4180 17 571 17 3022 0 3710 -40
1621 -65 2163 -187 3985 -30 446 -70 1071 -90 1390 -19 319 -59 990 -90 1490
-30 501 -71 1194 -90 1540 -73 1304 -86 1514 -185 2905 -126 1768 -141 2071
-175 3564 l-5 239 167 -6 c93 -4 296 -13 453 -19 357 -16 1834 -16 2710 0 349
7 916 17 1260 22 924 15 1584 36 3165 100 2131 86 2545 91 11320 116 2114 6
3507 -2 4620 -26 1050 -23 1393 -32 1985 -50 1445 -45 2200 -57 4425 -70 1173
-7 2276 -7 3425 0 5397 32 5932 37 8310 85 410 8 1107 22 1550 30 699 13 1396
29 2230 50 409 10 2269 54 2610 61 447 9 2527 21 2955 17 187 -2 536 -9 775
-14z"/>
<path d="M61132 55069 c-189 -24 -383 -113 -526 -240 -111 -98 -227 -279 -272
-423 -17 -53 -48 -86 -883 -914 -1217 -1207 -1620 -1603 -2401 -2362 -824
-801 -1288 -1264 -1965 -1959 -280 -289 -652 -666 -825 -839 -307 -306 -722
-697 -740 -697 -5 0 -131 160 -281 355 -347 453 -529 685 -862 1095 -495 610
-806 1015 -997 1300 -175 260 -304 382 -504 476 -266 124 -600 116 -866 -22
-185 -96 -355 -279 -434 -466 -60 -144 -71 -204 -70 -393 0 -161 2 -182 27
-265 38 -124 105 -256 177 -345 33 -41 90 -118 127 -170 242 -338 582 -778
1041 -1345 332 -410 479 -597 777 -985 120 -157 341 -445 491 -640 150 -195
302 -390 339 -432 211 -247 535 -397 855 -398 189 0 383 50 595 154 473 232
1045 731 2213 1931 797 818 1476 1498 2222 2223 842 819 1669 1635 2766 2729
914 910 923 920 1020 1118 138 283 144 626 14 903 -197 421 -614 666 -1038
611z"/>
<path d="M44680 52225 c-102 -7 -363 -13 -580 -14 -858 -2 -2700 -32 -3675
-61 -363 -11 -858 -24 -1100 -30 -242 -6 -685 -17 -985 -25 -1137 -31 -1461
-36 -2730 -42 -829 -4 -1564 -1 -2015 6 -1476 24 -3618 61 -4090 71 -269 6
-1262 13 -2205 17 -1792 6 -2348 0 -3800 -37 -421 -11 -1033 -27 -1360 -35
-572 -15 -977 -28 -1870 -60 -673 -24 -1031 -34 -1630 -45 -1487 -28 -1568
-31 -1801 -70 -481 -80 -803 -347 -924 -765 -52 -181 -69 -345 -90 -900 -8
-220 -24 -578 -35 -795 -33 -660 -42 -932 -35 -1005 21 -226 97 -396 244 -548
144 -151 336 -244 589 -287 211 -37 444 -43 1397 -36 495 3 2018 10 3385 15
1367 5 3009 14 3650 20 641 6 1820 16 2620 21 2924 21 5516 52 7985 95 457 8
1024 17 1260 20 1566 21 2124 35 4130 100 1560 51 2006 70 3325 140 684 37
797 45 970 71 401 59 682 207 870 456 184 243 256 530 230 913 -26 395 -84
692 -239 1237 -39 135 -100 365 -136 509 -37 145 -80 296 -96 335 -48 116
-124 217 -223 295 -26 22 -66 67 -87 100 -104 161 -262 275 -449 323 -88 23
-273 27 -500 11z m-30 -1557 c12 -51 62 -233 111 -405 48 -171 101 -372 118
-445 28 -124 64 -338 58 -345 -2 -1 -295 -18 -652 -37 -1362 -74 -1787 -92
-3460 -146 -1941 -63 -2284 -71 -4305 -100 -388 -6 -939 -15 -1225 -20 -2059
-38 -5867 -80 -9090 -100 -907 -5 -1740 -12 -1850 -15 -110 -4 -1422 -11
-2915 -16 -1493 -6 -3051 -13 -3463 -16 l-747 -5 5 53 c7 75 33 627 49 1047 8
194 17 356 20 359 6 6 305 13 1356 33 649 12 915 19 1930 55 930 33 1242 42
1980 60 344 8 870 22 1170 30 1168 31 1893 38 3575 31 913 -3 1881 -10 2150
-16 270 -5 882 -17 1360 -25 479 -8 1282 -23 1785 -32 673 -13 1347 -18 2550
-18 1599 0 1931 4 3230 40 289 8 725 19 970 25 245 6 744 19 1110 30 988 29
2413 52 3845 63 138 1 264 3 281 5 l31 2 23 -92z"/>
<path d="M61441 39739 c-125 -16 -295 -80 -398 -150 -78 -53 -173 -139 -235
-214 -31 -38 -234 -243 -450 -455 -1842 -1805 -3042 -2983 -3468 -3404 -458
-452 -847 -830 -1520 -1475 -129 -124 -460 -444 -735 -711 -572 -556 -666
-646 -935 -890 -245 -224 -441 -391 -451 -388 -4 2 -114 146 -243 320 -536
722 -768 1019 -1376 1758 -188 228 -357 443 -630 800 -339 444 -412 533 -530
650 -155 154 -308 248 -495 302 -71 20 -101 23 -260 22 -166 0 -187 -2 -268
-27 -631 -194 -893 -925 -526 -1469 23 -35 88 -110 144 -168 56 -58 146 -163
201 -235 55 -71 199 -258 319 -415 224 -292 442 -565 690 -865 382 -462 664
-825 1205 -1550 516 -693 549 -734 685 -870 213 -214 423 -332 684 -385 124
-25 344 -27 475 -4 364 63 758 291 1296 749 369 314 687 611 1480 1385 212
206 592 573 845 815 518 496 751 723 1305 1270 397 393 634 625 2710 2662 674
661 1254 1235 1289 1277 127 151 211 300 253 453 18 66 22 105 22 253 0 151
-3 186 -22 255 -130 467 -581 766 -1061 704z"/>
<path d="M36960 37690 c-1661 -13 -3519 -45 -4985 -85 -993 -28 -2902 -85
-3685 -110 -2398 -77 -2900 -103 -4635 -235 -1840 -140 -3041 -205 -5365 -290
-779 -28 -881 -35 -1015 -66 -371 -85 -638 -345 -730 -710 -40 -158 -48 -316
-42 -908 5 -513 23 -946 47 -1146 44 -349 249 -617 575 -751 223 -91 470 -127
1021 -151 590 -26 5829 -1 9994 47 927 11 3399 60 4740 95 421 11 1037 27
1370 35 333 8 936 24 1340 35 967 26 1530 38 2355 50 374 5 995 15 1380 20
385 6 882 15 1105 20 223 6 880 21 1460 35 580 13 1127 27 1215 30 88 3 390
12 670 20 893 26 1138 46 1358 110 412 119 688 429 763 859 23 126 29 572 15
1061 -20 713 -79 1135 -196 1382 -100 213 -256 347 -475 409 -52 15 -121 40
-152 55 -105 53 -199 73 -333 71 -474 -5 -745 -2 -1120 12 -236 9 -680 23
-985 31 -305 8 -697 20 -870 25 -1495 47 -3069 63 -4820 50z m2735 -1465 c572
-7 1270 -22 1875 -40 272 -8 745 -22 1050 -30 305 -8 740 -22 965 -30 226 -8
507 -17 626 -21 l216 -7 6 -61 c8 -81 31 -915 25 -921 -9 -10 -1039 -43 -2193
-70 -352 -8 -912 -22 -1245 -30 -888 -22 -1528 -34 -2415 -45 -1259 -16 -2004
-31 -3240 -65 -297 -8 -904 -24 -1350 -35 -445 -11 -972 -24 -1170 -30 -1100
-30 -3740 -83 -4735 -95 -1382 -16 -4835 -43 -7830 -61 -975 -6 -2132 6 -2254
22 -41 6 -44 9 -50 43 -3 20 -9 197 -13 394 l-6 357 59 0 c149 0 2023 76 2714
110 1145 57 1756 96 3125 200 1667 127 2183 152 4790 235 1528 48 3648 109
4365 125 2674 59 4883 77 6685 55z"/>
<path d="M61113 25605 c-274 -49 -484 -194 -663 -455 -107 -156 -437 -496
-2160 -2224 -1835 -1840 -2255 -2245 -3340 -3221 -956 -860 -1308 -1169 -1640
-1441 -168 -137 -316 -254 -323 -254 -16 0 -504 676 -827 1145 -279 405 -409
587 -724 1010 -357 480 -454 617 -666 935 -221 331 -304 442 -401 536 -287
277 -694 356 -1051 204 -217 -93 -385 -252 -488 -463 -68 -140 -90 -226 -97
-374 -11 -239 47 -432 192 -638 31 -44 142 -207 246 -363 231 -344 316 -463
664 -932 353 -476 456 -619 725 -1010 316 -460 450 -646 814 -1135 392 -527
438 -585 562 -705 265 -255 545 -372 889 -372 233 0 394 42 650 167 372 182
979 650 1876 1446 1792 1592 2179 1960 4314 4100 1387 1391 1927 1940 2130
2164 228 252 357 464 417 685 19 72 23 110 23 245 0 136 -3 173 -23 245 -82
306 -314 559 -606 662 -155 55 -338 71 -493 43z"/>
<path d="M26020 23603 c-598 -4 -2068 -24 -2490 -33 -1526 -34 -1873 -48
-3040 -120 -349 -22 -831 -51 -1070 -65 -607 -35 -722 -44 -824 -61 -350 -58
-627 -276 -758 -596 -119 -292 -127 -664 -28 -1338 12 -80 71 -441 131 -803
120 -720 139 -803 223 -950 98 -172 239 -306 416 -396 372 -190 811 -215 2815
-161 1090 29 2488 81 3795 140 1703 77 1981 86 3825 135 1507 39 2342 42 5085
15 2767 -27 3630 -31 4815 -21 666 6 1311 13 1435 16 776 20 1932 38 2870 45
1182 9 1200 10 1433 69 491 124 815 480 937 1029 31 143 177 1165 215 1515 12
108 22 154 45 208 103 243 65 522 -102 734 -30 39 -73 97 -95 130 -42 62 -138
161 -189 196 -257 175 -600 167 -844 -18 l-75 -57 -145 -8 c-304 -18 -1465 -8
-2735 22 -697 17 -1345 45 -2340 100 -2174 122 -2508 140 -3115 165 -1157 47
-2832 82 -4945 105 -766 8 -4262 10 -5245 3z m6115 -1472 c3246 -54 3857 -75
6165 -206 1365 -78 2081 -114 2640 -135 708 -25 2136 -52 2850 -53 l506 0 -60
-421 c-32 -232 -63 -425 -68 -431 -6 -6 -374 -12 -1041 -17 -568 -3 -1372 -13
-1787 -22 -1981 -41 -3938 -50 -6100 -28 -3484 37 -4555 39 -5650 12 -2063
-50 -2815 -76 -4450 -150 -1850 -84 -3401 -136 -4690 -159 -474 -9 -1001 -3
-1014 10 -11 11 -193 1144 -212 1316 l-6 61 83 6 c46 4 203 13 349 21 146 9
515 31 820 50 1026 64 1289 77 1895 95 896 27 2004 47 3205 60 1036 11 5776 4
6565 -9z"/>
</g>
</svg>
